<?xml version="1.0" encoding="utf-8" standalone="no"?>
<!DOCTYPE svg PUBLIC "-//W3C//DTD SVG 1.1//EN"
  "http://www.w3.org/Graphics/SVG/1.1/DTD/svg11.dtd">
<svg xmlns:xlink="http://www.w3.org/1999/xlink" width="360pt" height="216pt" viewBox="0 0 360 216" xmlns="http://www.w3.org/2000/svg" version="1.1">
 <metadata>
  <rdf:RDF xmlns:dc="http://purl.org/dc/elements/1.1/" xmlns:cc="http://creativecommons.org/ns#" xmlns:rdf="http://www.w3.org/1999/02/22-rdf-syntax-ns#">
   <cc:Work>
    <dc:type rdf:resource="http://purl.org/dc/dcmitype/StillImage"/>
    <dc:date>2023-10-08T15:08:42.693362</dc:date>
    <dc:format>image/svg+xml</dc:format>
    <dc:creator>
     <cc:Agent>
      <dc:title>Matplotlib v3.7.2, https://matplotlib.org/</dc:title>
     </cc:Agent>
    </dc:creator>
   </cc:Work>
  </rdf:RDF>
 </metadata>
 <defs>
  <style type="text/css">*{stroke-linejoin: round; stroke-linecap: butt}</style>
 </defs>
 <g id="figure_1">
  <g id="patch_1">
   <path d="M 0 216 
L 360 216 
L 360 0 
L 0 0 
z
" style="fill: #ffffff"/>
  </g>
  <g id="axes_1">
   <g id="patch_2">
    <path d="M 45 192.24 
L 324 192.24 
L 324 25.92 
L 45 25.92 
z
" style="fill: #ffffff"/>
   </g>
   <g id="PolyCollection_1">
    <defs>
     <path id="m129f3d5959" d="M 57.681818 -33.571918 
L 57.681818 -32.844209 
L 71.056966 -35.460804 
L 84.47559 -37.62262 
L 97.854288 -38.478319 
L 111.108533 -41.283683 
L 124.502244 -44.240142 
L 137.821128 -44.871288 
L 151.159593 -47.314045 
L 164.516973 -49.044951 
L 177.84412 -51.609961 
L 191.218183 -53.463141 
L 204.564933 -56.530912 
L 217.906568 -61.448866 
L 231.252118 -63.514485 
L 244.596033 -65.523426 
L 257.951329 -67.172246 
L 271.276721 -71.378419 
L 284.641257 -76.241542 
L 297.972735 -79.08855 
L 311.318182 -82.238011 
L 311.318182 -83.343246 
L 311.318182 -83.343246 
L 297.972735 -80.189099 
L 284.641257 -77.288357 
L 271.276721 -72.229458 
L 257.951329 -68.168489 
L 244.596033 -66.131624 
L 231.252118 -64.639053 
L 217.906568 -61.895747 
L 204.564933 -57.285628 
L 191.218183 -54.566493 
L 177.84412 -52.829729 
L 164.516973 -50.232191 
L 151.159593 -48.455549 
L 137.821128 -46.376176 
L 124.502244 -45.030555 
L 111.108533 -42.097207 
L 97.854288 -40.34236 
L 84.47559 -38.702287 
L 71.056966 -36.855309 
L 57.681818 -33.571918 
z
" style="stroke: #1e88e5; stroke-opacity: 0.25"/>
    </defs>
    <g clip-path="url(#pf34ac33d51)">
     <use xlink:href="#m129f3d5959" x="0" y="216" style="fill: #1e88e5; fill-opacity: 0.25; stroke: #1e88e5; stroke-opacity: 0.25"/>
    </g>
   </g>
   <g id="PathCollection_1">
    <defs>
     <path id="mf49ab0802d" d="M 0 1.5 
C 0.397805 1.5 0.77937 1.341951 1.06066 1.06066 
C 1.341951 0.77937 1.5 0.397805 1.5 0 
C 1.5 -0.397805 1.341951 -0.77937 1.06066 -1.06066 
C 0.77937 -1.341951 0.397805 -1.5 0 -1.5 
C -0.397805 -1.5 -0.77937 -1.341951 -1.06066 -1.06066 
C -1.341951 -0.77937 -1.5 -0.397805 -1.5 0 
C -1.5 0.397805 -1.341951 0.77937 -1.06066 1.06066 
C -0.77937 1.341951 -0.397805 1.5 0 1.5 
z
" style="stroke: #a5d5ff"/>
    </defs>
    <g clip-path="url(#pf34ac33d51)">
     <use xlink:href="#mf49ab0802d" x="111.108533" y="174.406346" style="fill: #a5d5ff; stroke: #a5d5ff"/>
     <use xlink:href="#mf49ab0802d" x="164.516973" y="168.199978" style="fill: #a5d5ff; stroke: #a5d5ff"/>
     <use xlink:href="#mf49ab0802d" x="164.516973" y="165.939816" style="fill: #a5d5ff; stroke: #a5d5ff"/>
     <use xlink:href="#mf49ab0802d" x="191.218183" y="162.203276" style="fill: #a5d5ff; stroke: #a5d5ff"/>
     <use xlink:href="#mf49ab0802d" x="311.318182" y="133.28956" style="fill: #a5d5ff; stroke: #a5d5ff"/>
     <use xlink:href="#mf49ab0802d" x="111.108533" y="174.712323" style="fill: #a5d5ff; stroke: #a5d5ff"/>
     <use xlink:href="#mf49ab0802d" x="124.502244" y="170.933227" style="fill: #a5d5ff; stroke: #a5d5ff"/>
     <use xlink:href="#mf49ab0802d" x="311.318182" y="133.115132" style="fill: #a5d5ff; stroke: #a5d5ff"/>
     <use xlink:href="#mf49ab0802d" x="164.516973" y="165.94069" style="fill: #a5d5ff; stroke: #a5d5ff"/>
     <use xlink:href="#mf49ab0802d" x="151.159593" y="168.659176" style="fill: #a5d5ff; stroke: #a5d5ff"/>
     <use xlink:href="#mf49ab0802d" x="271.276721" y="143.821144" style="fill: #a5d5ff; stroke: #a5d5ff"/>
     <use xlink:href="#mf49ab0802d" x="57.681818" y="181.937873" style="fill: #a5d5ff; stroke: #a5d5ff"/>
     <use xlink:href="#mf49ab0802d" x="84.47559" y="178.042829" style="fill: #a5d5ff; stroke: #a5d5ff"/>
     <use xlink:href="#mf49ab0802d" x="191.218183" y="162.262533" style="fill: #a5d5ff; stroke: #a5d5ff"/>
     <use xlink:href="#mf49ab0802d" x="231.252118" y="152.146017" style="fill: #a5d5ff; stroke: #a5d5ff"/>
     <use xlink:href="#mf49ab0802d" x="297.972735" y="137.360918" style="fill: #a5d5ff; stroke: #a5d5ff"/>
     <use xlink:href="#mf49ab0802d" x="137.821128" y="168.299225" style="fill: #a5d5ff; stroke: #a5d5ff"/>
     <use xlink:href="#mf49ab0802d" x="71.056966" y="180.420144" style="fill: #a5d5ff; stroke: #a5d5ff"/>
     <use xlink:href="#mf49ab0802d" x="177.84412" y="164.639863" style="fill: #a5d5ff; stroke: #a5d5ff"/>
     <use xlink:href="#mf49ab0802d" x="257.951329" y="148.293678" style="fill: #a5d5ff; stroke: #a5d5ff"/>
     <use xlink:href="#mf49ab0802d" x="297.972735" y="135.778591" style="fill: #a5d5ff; stroke: #a5d5ff"/>
     <use xlink:href="#mf49ab0802d" x="97.854288" y="175.290976" style="fill: #a5d5ff; stroke: #a5d5ff"/>
     <use xlink:href="#mf49ab0802d" x="244.596033" y="150.057908" style="fill: #a5d5ff; stroke: #a5d5ff"/>
     <use xlink:href="#mf49ab0802d" x="257.951329" y="147.888256" style="fill: #a5d5ff; stroke: #a5d5ff"/>
     <use xlink:href="#mf49ab0802d" x="111.108533" y="174.732301" style="fill: #a5d5ff; stroke: #a5d5ff"/>
     <use xlink:href="#mf49ab0802d" x="111.108533" y="174.066747" style="fill: #a5d5ff; stroke: #a5d5ff"/>
     <use xlink:href="#mf49ab0802d" x="84.47559" y="177.740518" style="fill: #a5d5ff; stroke: #a5d5ff"/>
     <use xlink:href="#mf49ab0802d" x="204.564933" y="160.00038" style="fill: #a5d5ff; stroke: #a5d5ff"/>
     <use xlink:href="#mf49ab0802d" x="231.252118" y="151.017572" style="fill: #a5d5ff; stroke: #a5d5ff"/>
     <use xlink:href="#mf49ab0802d" x="257.951329" y="147.25107" style="fill: #a5d5ff; stroke: #a5d5ff"/>
     <use xlink:href="#mf49ab0802d" x="151.159593" y="167.11926" style="fill: #a5d5ff; stroke: #a5d5ff"/>
     <use xlink:href="#mf49ab0802d" x="111.108533" y="177.411457" style="fill: #a5d5ff; stroke: #a5d5ff"/>
     <use xlink:href="#mf49ab0802d" x="177.84412" y="164.010591" style="fill: #a5d5ff; stroke: #a5d5ff"/>
     <use xlink:href="#mf49ab0802d" x="244.596033" y="149.470282" style="fill: #a5d5ff; stroke: #a5d5ff"/>
     <use xlink:href="#mf49ab0802d" x="84.47559" y="178.194354" style="fill: #a5d5ff; stroke: #a5d5ff"/>
     <use xlink:href="#mf49ab0802d" x="191.218183" y="162.931191" style="fill: #a5d5ff; stroke: #a5d5ff"/>
     <use xlink:href="#mf49ab0802d" x="297.972735" y="136.175783" style="fill: #a5d5ff; stroke: #a5d5ff"/>
     <use xlink:href="#mf49ab0802d" x="204.564933" y="159.207104" style="fill: #a5d5ff; stroke: #a5d5ff"/>
     <use xlink:href="#mf49ab0802d" x="244.596033" y="150.50381" style="fill: #a5d5ff; stroke: #a5d5ff"/>
     <use xlink:href="#mf49ab0802d" x="71.056966" y="178.178216" style="fill: #a5d5ff; stroke: #a5d5ff"/>
     <use xlink:href="#mf49ab0802d" x="311.318182" y="133.829223" style="fill: #a5d5ff; stroke: #a5d5ff"/>
     <use xlink:href="#mf49ab0802d" x="204.564933" y="158.996011" style="fill: #a5d5ff; stroke: #a5d5ff"/>
     <use xlink:href="#mf49ab0802d" x="111.108533" y="174.683795" style="fill: #a5d5ff; stroke: #a5d5ff"/>
     <use xlink:href="#mf49ab0802d" x="57.681818" y="182.441385" style="fill: #a5d5ff; stroke: #a5d5ff"/>
     <use xlink:href="#mf49ab0802d" x="217.906568" y="155.088823" style="fill: #a5d5ff; stroke: #a5d5ff"/>
     <use xlink:href="#mf49ab0802d" x="151.159593" y="168.079546" style="fill: #a5d5ff; stroke: #a5d5ff"/>
     <use xlink:href="#mf49ab0802d" x="284.641257" y="138.805491" style="fill: #a5d5ff; stroke: #a5d5ff"/>
     <use xlink:href="#mf49ab0802d" x="84.47559" y="175.406798" style="fill: #a5d5ff; stroke: #a5d5ff"/>
     <use xlink:href="#mf49ab0802d" x="137.821128" y="171.730898" style="fill: #a5d5ff; stroke: #a5d5ff"/>
     <use xlink:href="#mf49ab0802d" x="84.47559" y="178.221785" style="fill: #a5d5ff; stroke: #a5d5ff"/>
    </g>
   </g>
   <g id="PolyCollection_2">
    <defs>
     <path id="m73277009de" d="M 57.681818 -79.056166 
L 57.681818 -72.587913 
L 71.056966 -82.44025 
L 84.47559 -86.286664 
L 97.854288 -93.406037 
L 111.108533 -97.573467 
L 124.502244 -108.159329 
L 137.821128 -111.731926 
L 151.159593 -117.47936 
L 164.516973 -122.056231 
L 177.84412 -127.502601 
L 191.218183 -133.729912 
L 204.564933 -138.809887 
L 217.906568 -144.58437 
L 231.252118 -151.061644 
L 244.596033 -156.164542 
L 257.951329 -160.009339 
L 271.276721 -164.696154 
L 284.641257 -170.08414 
L 297.972735 -176.065834 
L 311.318182 -179.077789 
L 311.318182 -180.846482 
L 311.318182 -180.846482 
L 297.972735 -177.405952 
L 284.641257 -171.699717 
L 271.276721 -165.629188 
L 257.951329 -161.31688 
L 244.596033 -157.292078 
L 231.252118 -152.589043 
L 217.906568 -146.068991 
L 204.564933 -140.730464 
L 191.218183 -135.84795 
L 177.84412 -130.358433 
L 164.516973 -123.847681 
L 151.159593 -119.88019 
L 137.821128 -112.902689 
L 124.502244 -111.966058 
L 111.108533 -101.868739 
L 97.854288 -98.334676 
L 84.47559 -92.871321 
L 71.056966 -87.99869 
L 57.681818 -79.056166 
z
" style="stroke: #d81b60; stroke-opacity: 0.25"/>
    </defs>
    <g clip-path="url(#pf34ac33d51)">
     <use xlink:href="#m73277009de" x="0" y="216" style="fill: #d81b60; fill-opacity: 0.25; stroke: #d81b60; stroke-opacity: 0.25"/>
    </g>
   </g>
   <g id="PathCollection_2">
    <defs>
     <path id="m85ebad6be5" d="M 0 1.5 
C 0.397805 1.5 0.77937 1.341951 1.06066 1.06066 
C 1.341951 0.77937 1.5 0.397805 1.5 0 
C 1.5 -0.397805 1.341951 -0.77937 1.06066 -1.06066 
C 0.77937 -1.341951 0.397805 -1.5 0 -1.5 
C -0.397805 -1.5 -0.77937 -1.341951 -1.06066 -1.06066 
C -1.341951 -0.77937 -1.5 -0.397805 -1.5 0 
C -1.5 0.397805 -1.341951 0.77937 -1.06066 1.06066 
C -0.77937 1.341951 -0.397805 1.5 0 1.5 
z
" style="stroke: #ff86b2"/>
    </defs>
    <g clip-path="url(#pf34ac33d51)">
     <use xlink:href="#m85ebad6be5" x="137.821128" y="101.911672" style="fill: #ff86b2; stroke: #ff86b2"/>
     <use xlink:href="#m85ebad6be5" x="137.821128" y="103.241094" style="fill: #ff86b2; stroke: #ff86b2"/>
     <use xlink:href="#m85ebad6be5" x="297.972735" y="39.358078" style="fill: #ff86b2; stroke: #ff86b2"/>
     <use xlink:href="#m85ebad6be5" x="297.972735" y="38.457787" style="fill: #ff86b2; stroke: #ff86b2"/>
     <use xlink:href="#m85ebad6be5" x="257.951329" y="56.675729" style="fill: #ff86b2; stroke: #ff86b2"/>
     <use xlink:href="#m85ebad6be5" x="71.056966" y="135.217043" style="fill: #ff86b2; stroke: #ff86b2"/>
     <use xlink:href="#m85ebad6be5" x="311.318182" y="35.975495" style="fill: #ff86b2; stroke: #ff86b2"/>
     <use xlink:href="#m85ebad6be5" x="97.854288" y="123.462623" style="fill: #ff86b2; stroke: #ff86b2"/>
     <use xlink:href="#m85ebad6be5" x="231.252118" y="63.067672" style="fill: #ff86b2; stroke: #ff86b2"/>
     <use xlink:href="#m85ebad6be5" x="111.108533" y="114.236262" style="fill: #ff86b2; stroke: #ff86b2"/>
     <use xlink:href="#m85ebad6be5" x="297.972735" y="39.978309" style="fill: #ff86b2; stroke: #ff86b2"/>
     <use xlink:href="#m85ebad6be5" x="151.159593" y="98.398835" style="fill: #ff86b2; stroke: #ff86b2"/>
     <use xlink:href="#m85ebad6be5" x="84.47559" y="124.811867" style="fill: #ff86b2; stroke: #ff86b2"/>
     <use xlink:href="#m85ebad6be5" x="111.108533" y="116.460609" style="fill: #ff86b2; stroke: #ff86b2"/>
     <use xlink:href="#m85ebad6be5" x="297.972735" y="39.923145" style="fill: #ff86b2; stroke: #ff86b2"/>
     <use xlink:href="#m85ebad6be5" x="124.502244" y="108.081066" style="fill: #ff86b2; stroke: #ff86b2"/>
     <use xlink:href="#m85ebad6be5" x="97.854288" y="119.102811" style="fill: #ff86b2; stroke: #ff86b2"/>
     <use xlink:href="#m85ebad6be5" x="124.502244" y="102.72694" style="fill: #ff86b2; stroke: #ff86b2"/>
     <use xlink:href="#m85ebad6be5" x="137.821128" y="103.244041" style="fill: #ff86b2; stroke: #ff86b2"/>
     <use xlink:href="#m85ebad6be5" x="297.972735" y="39.483693" style="fill: #ff86b2; stroke: #ff86b2"/>
     <use xlink:href="#m85ebad6be5" x="97.854288" y="120.16753" style="fill: #ff86b2; stroke: #ff86b2"/>
     <use xlink:href="#m85ebad6be5" x="164.516973" y="93.587788" style="fill: #ff86b2; stroke: #ff86b2"/>
     <use xlink:href="#m85ebad6be5" x="97.854288" y="120.059553" style="fill: #ff86b2; stroke: #ff86b2"/>
     <use xlink:href="#m85ebad6be5" x="244.596033" y="58.456756" style="fill: #ff86b2; stroke: #ff86b2"/>
     <use xlink:href="#m85ebad6be5" x="177.84412" y="88.471358" style="fill: #ff86b2; stroke: #ff86b2"/>
     <use xlink:href="#m85ebad6be5" x="217.906568" y="71.549403" style="fill: #ff86b2; stroke: #ff86b2"/>
     <use xlink:href="#m85ebad6be5" x="84.47559" y="123.381556" style="fill: #ff86b2; stroke: #ff86b2"/>
     <use xlink:href="#m85ebad6be5" x="164.516973" y="93.894739" style="fill: #ff86b2; stroke: #ff86b2"/>
     <use xlink:href="#m85ebad6be5" x="311.318182" y="35.46325" style="fill: #ff86b2; stroke: #ff86b2"/>
     <use xlink:href="#m85ebad6be5" x="231.252118" y="63.718821" style="fill: #ff86b2; stroke: #ff86b2"/>
     <use xlink:href="#m85ebad6be5" x="204.564933" y="76.749027" style="fill: #ff86b2; stroke: #ff86b2"/>
     <use xlink:href="#m85ebad6be5" x="177.84412" y="85.306493" style="fill: #ff86b2; stroke: #ff86b2"/>
     <use xlink:href="#m85ebad6be5" x="271.276721" y="51.296662" style="fill: #ff86b2; stroke: #ff86b2"/>
     <use xlink:href="#m85ebad6be5" x="111.108533" y="118.398003" style="fill: #ff86b2; stroke: #ff86b2"/>
     <use xlink:href="#m85ebad6be5" x="271.276721" y="51.362105" style="fill: #ff86b2; stroke: #ff86b2"/>
     <use xlink:href="#m85ebad6be5" x="111.108533" y="115.856055" style="fill: #ff86b2; stroke: #ff86b2"/>
     <use xlink:href="#m85ebad6be5" x="57.681818" y="132.596809" style="fill: #ff86b2; stroke: #ff86b2"/>
     <use xlink:href="#m85ebad6be5" x="124.502244" y="107.189709" style="fill: #ff86b2; stroke: #ff86b2"/>
     <use xlink:href="#m85ebad6be5" x="191.218183" y="82.940813" style="fill: #ff86b2; stroke: #ff86b2"/>
     <use xlink:href="#m85ebad6be5" x="231.252118" y="64.11178" style="fill: #ff86b2; stroke: #ff86b2"/>
     <use xlink:href="#m85ebad6be5" x="257.951329" y="55.903678" style="fill: #ff86b2; stroke: #ff86b2"/>
     <use xlink:href="#m85ebad6be5" x="271.276721" y="50.870675" style="fill: #ff86b2; stroke: #ff86b2"/>
     <use xlink:href="#m85ebad6be5" x="151.159593" y="96.166274" style="fill: #ff86b2; stroke: #ff86b2"/>
     <use xlink:href="#m85ebad6be5" x="111.108533" y="115.220916" style="fill: #ff86b2; stroke: #ff86b2"/>
     <use xlink:href="#m85ebad6be5" x="164.516973" y="94.373067" style="fill: #ff86b2; stroke: #ff86b2"/>
     <use xlink:href="#m85ebad6be5" x="297.972735" y="39.491852" style="fill: #ff86b2; stroke: #ff86b2"/>
     <use xlink:href="#m85ebad6be5" x="271.276721" y="50.371996" style="fill: #ff86b2; stroke: #ff86b2"/>
     <use xlink:href="#m85ebad6be5" x="217.906568" y="71.938302" style="fill: #ff86b2; stroke: #ff86b2"/>
     <use xlink:href="#m85ebad6be5" x="164.516973" y="93.577586" style="fill: #ff86b2; stroke: #ff86b2"/>
     <use xlink:href="#m85ebad6be5" x="57.681818" y="142.636622" style="fill: #ff86b2; stroke: #ff86b2"/>
    </g>
   </g>
   <g id="matplotlib.axis_1">
    <g id="xtick_1">
     <g id="line2d_1">
      <defs>
       <path id="m419d03ef5d" d="M 0 0 
L 0 3.5 
" style="stroke: #000000; stroke-width: 0.8"/>
      </defs>
      <g>
       <use xlink:href="#m419d03ef5d" x="184.5" y="192.24" style="stroke: #000000; stroke-width: 0.8"/>
      </g>
     </g>
     <g id="text_1">
      <!-- $\mathdefault{10^{3}}$ -->
      <g transform="translate(175.162898 208.925876) scale(0.14 -0.14)">
       <defs>
        <path id="CMR17-31" d="M 1702 4058 
C 1702 4192 1696 4192 1606 4192 
C 1357 3916 979 3827 621 3827 
C 602 3827 570 3827 563 3808 
C 557 3795 557 3782 557 3648 
C 755 3648 1088 3686 1344 3839 
L 1344 461 
C 1344 236 1331 160 781 160 
L 589 160 
L 589 0 
C 896 0 1216 0 1523 0 
C 1830 0 2150 0 2458 0 
L 2458 160 
L 2266 160 
C 1715 160 1702 230 1702 458 
L 1702 4058 
z
" transform="scale(0.015625)"/>
        <path id="CMR17-30" d="M 2688 2025 
C 2688 2416 2682 3080 2413 3591 
C 2176 4039 1798 4198 1466 4198 
C 1158 4198 768 4058 525 3597 
C 269 3118 243 2524 243 2025 
C 243 1661 250 1106 448 619 
C 723 -39 1216 -128 1466 -128 
C 1760 -128 2208 -7 2470 600 
C 2662 1042 2688 1559 2688 2025 
z
M 1466 -26 
C 1056 -26 813 325 723 812 
C 653 1188 653 1738 653 2096 
C 653 2588 653 2997 736 3387 
C 858 3929 1216 4096 1466 4096 
C 1728 4096 2067 3923 2189 3400 
C 2272 3036 2278 2607 2278 2096 
C 2278 1680 2278 1169 2202 792 
C 2067 95 1690 -26 1466 -26 
z
" transform="scale(0.015625)"/>
        <path id="CMR17-33" d="M 1414 2157 
C 1984 2157 2234 1662 2234 1090 
C 2234 320 1824 25 1453 25 
C 1114 25 563 194 390 693 
C 422 680 454 680 486 680 
C 640 680 755 782 755 948 
C 755 1133 614 1216 486 1216 
C 378 1216 211 1165 211 926 
C 211 335 787 -128 1466 -128 
C 2176 -128 2720 430 2720 1085 
C 2720 1707 2208 2157 1600 2227 
C 2086 2328 2554 2756 2554 3329 
C 2554 3820 2048 4179 1472 4179 
C 890 4179 378 3829 378 3329 
C 378 3110 544 3072 627 3072 
C 762 3072 877 3155 877 3321 
C 877 3486 762 3569 627 3569 
C 602 3569 570 3569 544 3557 
C 730 3959 1235 4032 1459 4032 
C 1683 4032 2106 3925 2106 3320 
C 2106 3143 2080 2828 1862 2550 
C 1670 2304 1453 2304 1242 2284 
C 1210 2284 1062 2269 1037 2269 
C 992 2263 966 2257 966 2208 
C 966 2163 973 2157 1101 2157 
L 1414 2157 
z
" transform="scale(0.015625)"/>
       </defs>
       <use xlink:href="#CMR17-31" transform="scale(0.996264)"/>
       <use xlink:href="#CMR17-30" transform="translate(45.690477 0) scale(0.996264)"/>
       <use xlink:href="#CMR17-33" transform="translate(91.380954 36.153639) scale(0.697382)"/>
      </g>
     </g>
    </g>
    <g id="xtick_2">
     <g id="line2d_2">
      <defs>
       <path id="m7120a63634" d="M 0 0 
L 0 2 
" style="stroke: #000000; stroke-width: 0.6"/>
      </defs>
      <g>
       <use xlink:href="#m7120a63634" x="57.681818" y="192.24" style="stroke: #000000; stroke-width: 0.6"/>
      </g>
     </g>
    </g>
    <g id="xtick_3">
     <g id="line2d_3">
      <g>
       <use xlink:href="#m7120a63634" x="89.631077" y="192.24" style="stroke: #000000; stroke-width: 0.6"/>
      </g>
     </g>
    </g>
    <g id="xtick_4">
     <g id="line2d_4">
      <g>
       <use xlink:href="#m7120a63634" x="112.299436" y="192.24" style="stroke: #000000; stroke-width: 0.6"/>
      </g>
     </g>
    </g>
    <g id="xtick_5">
     <g id="line2d_5">
      <g>
       <use xlink:href="#m7120a63634" x="129.882382" y="192.24" style="stroke: #000000; stroke-width: 0.6"/>
      </g>
     </g>
    </g>
    <g id="xtick_6">
     <g id="line2d_6">
      <g>
       <use xlink:href="#m7120a63634" x="144.248695" y="192.24" style="stroke: #000000; stroke-width: 0.6"/>
      </g>
     </g>
    </g>
    <g id="xtick_7">
     <g id="line2d_7">
      <g>
       <use xlink:href="#m7120a63634" x="156.395239" y="192.24" style="stroke: #000000; stroke-width: 0.6"/>
      </g>
     </g>
    </g>
    <g id="xtick_8">
     <g id="line2d_8">
      <g>
       <use xlink:href="#m7120a63634" x="166.917054" y="192.24" style="stroke: #000000; stroke-width: 0.6"/>
      </g>
     </g>
    </g>
    <g id="xtick_9">
     <g id="line2d_9">
      <g>
       <use xlink:href="#m7120a63634" x="176.197953" y="192.24" style="stroke: #000000; stroke-width: 0.6"/>
      </g>
     </g>
    </g>
    <g id="xtick_10">
     <g id="line2d_10">
      <g>
       <use xlink:href="#m7120a63634" x="239.117618" y="192.24" style="stroke: #000000; stroke-width: 0.6"/>
      </g>
     </g>
    </g>
    <g id="xtick_11">
     <g id="line2d_11">
      <g>
       <use xlink:href="#m7120a63634" x="271.066876" y="192.24" style="stroke: #000000; stroke-width: 0.6"/>
      </g>
     </g>
    </g>
    <g id="xtick_12">
     <g id="line2d_12">
      <g>
       <use xlink:href="#m7120a63634" x="293.735236" y="192.24" style="stroke: #000000; stroke-width: 0.6"/>
      </g>
     </g>
    </g>
    <g id="xtick_13">
     <g id="line2d_13">
      <g>
       <use xlink:href="#m7120a63634" x="311.318182" y="192.24" style="stroke: #000000; stroke-width: 0.6"/>
      </g>
     </g>
    </g>
    <g id="text_2">
     <!-- $n_{\mathtt{train}}$ -->
     <g transform="translate(167.609672 225.323781) scale(0.14 -0.14)">
      <defs>
       <path id="CMMI12-6e" d="M 1318 1871 
C 1331 1910 1491 2229 1728 2433 
C 1894 2586 2112 2689 2362 2689 
C 2618 2689 2707 2497 2707 2242 
C 2707 1878 2445 1150 2317 805 
C 2259 651 2227 568 2227 453 
C 2227 166 2426 -64 2733 -64 
C 3328 -64 3552 875 3552 913 
C 3552 945 3526 971 3488 971 
C 3430 971 3424 952 3392 843 
C 3245 319 3002 64 2752 64 
C 2688 64 2586 64 2586 269 
C 2586 429 2656 621 2694 710 
C 2822 1063 3091 1780 3091 2145 
C 3091 2528 2867 2816 2381 2816 
C 1811 2816 1510 2415 1395 2255 
C 1376 2618 1114 2816 832 2816 
C 627 2816 486 2695 378 2478 
C 262 2248 173 1865 173 1839 
C 173 1814 198 1782 243 1782 
C 294 1782 301 1788 339 1935 
C 442 2325 557 2689 813 2689 
C 960 2689 1011 2586 1011 2395 
C 1011 2254 947 2005 902 1807 
L 723 1118 
C 698 996 627 709 595 594 
C 550 428 480 128 480 96 
C 480 6 550 -64 646 -64 
C 723 -64 813 -26 864 70 
C 877 102 934 326 966 453 
L 1107 1028 
L 1318 1871 
z
" transform="scale(0.015625)"/>
       <path id="CMTT12-74" d="M 1382 2381 
L 2419 2381 
C 2509 2381 2675 2381 2675 2567 
C 2675 2752 2509 2752 2419 2752 
L 1382 2752 
L 1382 3285 
C 1382 3402 1382 3552 1178 3552 
C 966 3552 966 3402 966 3285 
L 966 2752 
L 422 2752 
C 333 2752 160 2752 160 2567 
C 160 2381 326 2381 416 2381 
L 966 2381 
L 966 776 
C 966 184 1376 -32 1837 -32 
C 2182 -32 2816 139 2816 790 
C 2816 918 2816 1058 2605 1058 
C 2400 1058 2400 918 2400 785 
C 2394 403 2029 339 1882 339 
C 1382 339 1382 657 1382 809 
L 1382 2381 
z
" transform="scale(0.015625)"/>
       <path id="CMTT12-72" d="M 1382 1212 
C 1382 1976 1920 2432 2464 2432 
C 2496 2432 2534 2432 2566 2425 
C 2586 2185 2765 2165 2810 2165 
C 2957 2165 3059 2275 3059 2418 
C 3059 2698 2790 2803 2470 2803 
C 2042 2803 1677 2607 1382 2241 
L 1382 2491 
C 1382 2688 1344 2752 1126 2752 
L 480 2752 
C 390 2752 224 2752 224 2567 
C 224 2381 390 2381 480 2381 
L 966 2381 
L 966 371 
L 480 371 
C 390 371 224 371 224 186 
C 224 0 390 0 480 0 
L 2054 0 
C 2144 0 2310 0 2310 186 
C 2310 371 2144 371 2054 371 
L 1382 371 
L 1382 1212 
z
" transform="scale(0.015625)"/>
       <path id="CMTT12-61" d="M 2650 1816 
C 2650 2303 2285 2816 1421 2816 
C 1152 2816 531 2816 531 2380 
C 531 2210 653 2115 794 2115 
C 832 2115 1043 2115 1050 2388 
C 1050 2419 1056 2426 1190 2438 
C 1267 2445 1350 2445 1427 2445 
C 1574 2445 1792 2445 2003 2282 
C 2234 2100 2234 1916 2234 1728 
C 1856 1728 1485 1728 1088 1599 
C 768 1489 358 1256 358 816 
C 358 356 762 -32 1357 -32 
C 1562 -32 1958 0 2291 226 
C 2419 0 2739 0 2982 0 
C 3136 0 3290 0 3290 183 
C 3290 365 3123 365 3034 365 
C 2867 365 2739 378 2650 417 
L 2650 1816 
z
M 2234 851 
C 2234 704 2234 569 1971 448 
C 1747 339 1446 339 1427 339 
C 1050 339 774 544 774 806 
C 774 1184 1459 1401 2234 1401 
L 2234 851 
z
" transform="scale(0.015625)"/>
       <path id="CMTT12-69" d="M 1933 3616 
C 1933 3776 1805 3904 1645 3904 
C 1485 3904 1357 3776 1357 3616 
C 1357 3456 1485 3328 1645 3328 
C 1805 3328 1933 3456 1933 3616 
z
M 832 2752 
C 742 2752 576 2752 576 2567 
C 576 2381 742 2381 832 2381 
L 1517 2381 
L 1517 371 
L 787 371 
C 698 371 525 371 525 186 
C 525 0 698 0 787 0 
L 2566 0 
C 2656 0 2822 0 2822 186 
C 2822 371 2656 371 2566 371 
L 1933 371 
L 1933 2491 
C 1933 2688 1894 2752 1677 2752 
L 832 2752 
z
" transform="scale(0.015625)"/>
       <path id="CMTT12-6e" d="M 2675 1879 
C 2675 2507 2381 2803 1856 2803 
C 1421 2803 1139 2560 1030 2438 
C 1030 2666 1030 2752 774 2752 
L 352 2752 
C 262 2752 96 2752 96 2567 
C 96 2381 262 2381 352 2381 
L 614 2381 
L 614 371 
L 352 371 
C 262 371 96 371 96 186 
C 96 0 262 0 352 0 
L 1293 0 
C 1382 0 1549 0 1549 186 
C 1549 371 1382 371 1293 371 
L 1030 371 
L 1030 1533 
C 1030 2155 1466 2432 1811 2432 
C 2182 2432 2259 2219 2259 1854 
L 2259 371 
L 1997 371 
C 1907 371 1741 371 1741 186 
C 1741 0 1907 0 1997 0 
L 2938 0 
C 3027 0 3194 0 3194 186 
C 3194 371 3027 371 2938 371 
L 2675 371 
L 2675 1879 
z
" transform="scale(0.015625)"/>
      </defs>
      <use xlink:href="#CMMI12-6e" transform="scale(0.996264)"/>
      <use xlink:href="#CMTT12-74" transform="translate(58.230047 -14.943915) scale(0.697382)"/>
      <use xlink:href="#CMTT12-72" transform="translate(94.116165 -14.943915) scale(0.697382)"/>
      <use xlink:href="#CMTT12-61" transform="translate(130.002283 -14.943915) scale(0.697382)"/>
      <use xlink:href="#CMTT12-69" transform="translate(165.888401 -14.943915) scale(0.697382)"/>
      <use xlink:href="#CMTT12-6e" transform="translate(201.774519 -14.943915) scale(0.697382)"/>
     </g>
    </g>
   </g>
   <g id="matplotlib.axis_2">
    <g id="ytick_1">
     <g id="line2d_14">
      <defs>
       <path id="mef6d8aa65f" d="M 0 0 
L -3.5 0 
" style="stroke: #000000; stroke-width: 0.8"/>
      </defs>
      <g>
       <use xlink:href="#mef6d8aa65f" x="45" y="149.865212" style="stroke: #000000; stroke-width: 0.8"/>
      </g>
     </g>
     <g id="text_3">
      <!-- $\mathdefault{10^{3}}$ -->
      <g transform="translate(19.325796 154.70815) scale(0.14 -0.14)">
       <use xlink:href="#CMR17-31" transform="scale(0.996264)"/>
       <use xlink:href="#CMR17-30" transform="translate(45.690477 0) scale(0.996264)"/>
       <use xlink:href="#CMR17-33" transform="translate(91.380954 36.153639) scale(0.697382)"/>
      </g>
     </g>
    </g>
    <g id="ytick_2">
     <g id="line2d_15">
      <g>
       <use xlink:href="#mef6d8aa65f" x="45" y="101.046535" style="stroke: #000000; stroke-width: 0.8"/>
      </g>
     </g>
     <g id="text_4">
      <!-- $\mathdefault{10^{4}}$ -->
      <g transform="translate(19.325796 105.889473) scale(0.14 -0.14)">
       <defs>
        <path id="CMR17-34" d="M 2150 4122 
C 2150 4256 2144 4256 2029 4256 
L 128 1254 
L 128 1088 
L 1779 1088 
L 1779 457 
C 1779 224 1766 160 1318 160 
L 1197 160 
L 1197 0 
C 1402 0 1747 0 1965 0 
C 2182 0 2528 0 2733 0 
L 2733 160 
L 2611 160 
C 2163 160 2150 224 2150 457 
L 2150 1088 
L 2803 1088 
L 2803 1254 
L 2150 1254 
L 2150 4122 
z
M 1798 3703 
L 1798 1254 
L 256 1254 
L 1798 3703 
z
" transform="scale(0.015625)"/>
       </defs>
       <use xlink:href="#CMR17-31" transform="scale(0.996264)"/>
       <use xlink:href="#CMR17-30" transform="translate(45.690477 0) scale(0.996264)"/>
       <use xlink:href="#CMR17-34" transform="translate(91.380954 36.153639) scale(0.697382)"/>
      </g>
     </g>
    </g>
    <g id="ytick_3">
     <g id="line2d_16">
      <g>
       <use xlink:href="#mef6d8aa65f" x="45" y="52.227858" style="stroke: #000000; stroke-width: 0.8"/>
      </g>
     </g>
     <g id="text_5">
      <!-- $\mathdefault{10^{5}}$ -->
      <g transform="translate(19.325796 57.070796) scale(0.14 -0.14)">
       <defs>
        <path id="CMR17-35" d="M 730 3692 
C 794 3666 1056 3584 1325 3584 
C 1920 3584 2246 3911 2432 4100 
C 2432 4157 2432 4192 2394 4192 
C 2387 4192 2374 4192 2323 4163 
C 2099 4058 1837 3973 1517 3973 
C 1325 3973 1037 3999 723 4139 
C 653 4171 640 4171 634 4171 
C 602 4171 595 4164 595 4037 
L 595 2203 
C 595 2089 595 2057 659 2057 
C 691 2057 704 2070 736 2114 
C 941 2401 1222 2522 1542 2522 
C 1766 2522 2246 2382 2246 1289 
C 2246 1085 2246 715 2054 421 
C 1894 159 1645 25 1370 25 
C 947 25 518 320 403 814 
C 429 807 480 795 506 795 
C 589 795 749 840 749 1038 
C 749 1210 627 1280 506 1280 
C 358 1280 262 1190 262 1011 
C 262 454 704 -128 1382 -128 
C 2042 -128 2669 440 2669 1264 
C 2669 2030 2170 2624 1549 2624 
C 1222 2624 947 2503 730 2274 
L 730 3692 
z
" transform="scale(0.015625)"/>
       </defs>
       <use xlink:href="#CMR17-31" transform="scale(0.996264)"/>
       <use xlink:href="#CMR17-30" transform="translate(45.690477 0) scale(0.996264)"/>
       <use xlink:href="#CMR17-35" transform="translate(91.380954 36.153639) scale(0.697382)"/>
      </g>
     </g>
    </g>
    <g id="ytick_4">
     <g id="line2d_17">
      <defs>
       <path id="m43a3273cb5" d="M 0 0 
L -2 0 
" style="stroke: #000000; stroke-width: 0.6"/>
      </defs>
      <g>
       <use xlink:href="#m43a3273cb5" x="45" y="183.988003" style="stroke: #000000; stroke-width: 0.6"/>
      </g>
     </g>
    </g>
    <g id="ytick_5">
     <g id="line2d_18">
      <g>
       <use xlink:href="#m43a3273cb5" x="45" y="175.391461" style="stroke: #000000; stroke-width: 0.6"/>
      </g>
     </g>
    </g>
    <g id="ytick_6">
     <g id="line2d_19">
      <g>
       <use xlink:href="#m43a3273cb5" x="45" y="169.292117" style="stroke: #000000; stroke-width: 0.6"/>
      </g>
     </g>
    </g>
    <g id="ytick_7">
     <g id="line2d_20">
      <g>
       <use xlink:href="#m43a3273cb5" x="45" y="164.561098" style="stroke: #000000; stroke-width: 0.6"/>
      </g>
     </g>
    </g>
    <g id="ytick_8">
     <g id="line2d_21">
      <g>
       <use xlink:href="#m43a3273cb5" x="45" y="160.695574" style="stroke: #000000; stroke-width: 0.6"/>
      </g>
     </g>
    </g>
    <g id="ytick_9">
     <g id="line2d_22">
      <g>
       <use xlink:href="#m43a3273cb5" x="45" y="157.427321" style="stroke: #000000; stroke-width: 0.6"/>
      </g>
     </g>
    </g>
    <g id="ytick_10">
     <g id="line2d_23">
      <g>
       <use xlink:href="#m43a3273cb5" x="45" y="154.596231" style="stroke: #000000; stroke-width: 0.6"/>
      </g>
     </g>
    </g>
    <g id="ytick_11">
     <g id="line2d_24">
      <g>
       <use xlink:href="#m43a3273cb5" x="45" y="152.099032" style="stroke: #000000; stroke-width: 0.6"/>
      </g>
     </g>
    </g>
    <g id="ytick_12">
     <g id="line2d_25">
      <g>
       <use xlink:href="#m43a3273cb5" x="45" y="135.169326" style="stroke: #000000; stroke-width: 0.6"/>
      </g>
     </g>
    </g>
    <g id="ytick_13">
     <g id="line2d_26">
      <g>
       <use xlink:href="#m43a3273cb5" x="45" y="126.572783" style="stroke: #000000; stroke-width: 0.6"/>
      </g>
     </g>
    </g>
    <g id="ytick_14">
     <g id="line2d_27">
      <g>
       <use xlink:href="#m43a3273cb5" x="45" y="120.47344" style="stroke: #000000; stroke-width: 0.6"/>
      </g>
     </g>
    </g>
    <g id="ytick_15">
     <g id="line2d_28">
      <g>
       <use xlink:href="#m43a3273cb5" x="45" y="115.742421" style="stroke: #000000; stroke-width: 0.6"/>
      </g>
     </g>
    </g>
    <g id="ytick_16">
     <g id="line2d_29">
      <g>
       <use xlink:href="#m43a3273cb5" x="45" y="111.876897" style="stroke: #000000; stroke-width: 0.6"/>
      </g>
     </g>
    </g>
    <g id="ytick_17">
     <g id="line2d_30">
      <g>
       <use xlink:href="#m43a3273cb5" x="45" y="108.608644" style="stroke: #000000; stroke-width: 0.6"/>
      </g>
     </g>
    </g>
    <g id="ytick_18">
     <g id="line2d_31">
      <g>
       <use xlink:href="#m43a3273cb5" x="45" y="105.777553" style="stroke: #000000; stroke-width: 0.6"/>
      </g>
     </g>
    </g>
    <g id="ytick_19">
     <g id="line2d_32">
      <g>
       <use xlink:href="#m43a3273cb5" x="45" y="103.280355" style="stroke: #000000; stroke-width: 0.6"/>
      </g>
     </g>
    </g>
    <g id="ytick_20">
     <g id="line2d_33">
      <g>
       <use xlink:href="#m43a3273cb5" x="45" y="86.350649" style="stroke: #000000; stroke-width: 0.6"/>
      </g>
     </g>
    </g>
    <g id="ytick_21">
     <g id="line2d_34">
      <g>
       <use xlink:href="#m43a3273cb5" x="45" y="77.754106" style="stroke: #000000; stroke-width: 0.6"/>
      </g>
     </g>
    </g>
    <g id="ytick_22">
     <g id="line2d_35">
      <g>
       <use xlink:href="#m43a3273cb5" x="45" y="71.654762" style="stroke: #000000; stroke-width: 0.6"/>
      </g>
     </g>
    </g>
    <g id="ytick_23">
     <g id="line2d_36">
      <g>
       <use xlink:href="#m43a3273cb5" x="45" y="66.923744" style="stroke: #000000; stroke-width: 0.6"/>
      </g>
     </g>
    </g>
    <g id="ytick_24">
     <g id="line2d_37">
      <g>
       <use xlink:href="#m43a3273cb5" x="45" y="63.05822" style="stroke: #000000; stroke-width: 0.6"/>
      </g>
     </g>
    </g>
    <g id="ytick_25">
     <g id="line2d_38">
      <g>
       <use xlink:href="#m43a3273cb5" x="45" y="59.789966" style="stroke: #000000; stroke-width: 0.6"/>
      </g>
     </g>
    </g>
    <g id="ytick_26">
     <g id="line2d_39">
      <g>
       <use xlink:href="#m43a3273cb5" x="45" y="56.958876" style="stroke: #000000; stroke-width: 0.6"/>
      </g>
     </g>
    </g>
    <g id="ytick_27">
     <g id="line2d_40">
      <g>
       <use xlink:href="#m43a3273cb5" x="45" y="54.461678" style="stroke: #000000; stroke-width: 0.6"/>
      </g>
     </g>
    </g>
    <g id="ytick_28">
     <g id="line2d_41">
      <g>
       <use xlink:href="#m43a3273cb5" x="45" y="37.531972" style="stroke: #000000; stroke-width: 0.6"/>
      </g>
     </g>
    </g>
    <g id="ytick_29">
     <g id="line2d_42">
      <g>
       <use xlink:href="#m43a3273cb5" x="45" y="28.935429" style="stroke: #000000; stroke-width: 0.6"/>
      </g>
     </g>
    </g>
    <g id="text_6">
     <!-- $\sum_{\mathrm{layers}} \|$ weights $\|^2$ -->
     <g transform="translate(9.397952 165.425467) rotate(-90) scale(0.14 -0.14)">
      <defs>
       <path id="CMEX10-50" d="M 2694 -3418 
L 422 -6227 
C 371 -6291 365 -6304 365 -6330 
C 365 -6400 422 -6400 538 -6400 
L 5843 -6400 
L 6394 -4806 
L 6234 -4806 
C 6074 -5286 5645 -5677 5101 -5862 
C 4998 -5894 4557 -6048 3616 -6048 
L 896 -6048 
L 3117 -3302 
C 3162 -3245 3174 -3226 3174 -3200 
C 3174 -3174 3168 -3168 3130 -3110 
L 1050 -256 
L 3584 -256 
C 4314 -256 5786 -301 6234 -1498 
L 6394 -1498 
L 5843 0 
L 538 0 
C 365 0 358 -6 358 -205 
L 2694 -3418 
z
" transform="scale(0.015625)"/>
       <path id="CMR17-6c" d="M 979 4396 
L 218 4326 
L 218 4160 
C 595 4160 653 4122 653 3817 
L 653 426 
C 653 184 627 153 218 153 
L 218 -13 
C 371 0 653 0 813 0 
C 979 0 1261 0 1414 -13 
L 1414 153 
C 1005 153 979 178 979 426 
L 979 4396 
z
" transform="scale(0.015625)"/>
       <path id="CMR17-61" d="M 2304 1653 
C 2304 2072 2304 2294 2035 2543 
C 1798 2752 1523 2816 1306 2816 
C 800 2816 435 2407 435 1971 
C 435 1728 627 1728 666 1728 
C 749 1728 896 1778 896 1954 
C 896 2112 774 2181 666 2181 
C 640 2181 608 2174 589 2168 
C 723 2592 1069 2714 1293 2714 
C 1613 2714 1965 2429 1965 1885 
L 1965 1600 
C 1587 1600 1133 1549 774 1357 
C 371 1133 256 813 256 570 
C 256 77 832 -64 1171 -64 
C 1523 -64 1850 139 1990 511 
C 2003 233 2182 -18 2464 -18 
C 2598 -18 2938 70 2938 567 
L 2938 920 
L 2822 920 
L 2822 562 
C 2822 178 2650 128 2566 128 
C 2304 128 2304 458 2304 738 
L 2304 1653 
z
M 1965 870 
C 1965 317 1568 38 1216 38 
C 896 38 646 275 646 570 
C 646 761 730 1100 1101 1305 
C 1408 1478 1760 1504 1965 1504 
L 1965 870 
z
" transform="scale(0.015625)"/>
       <path id="CMR17-79" d="M 2496 2197 
C 2656 2586 2944 2586 3034 2586 
L 3034 2752 
C 2912 2752 2752 2752 2630 2752 
C 2496 2752 2285 2752 2157 2758 
L 2157 2592 
C 2400 2573 2406 2394 2406 2343 
C 2406 2280 2394 2248 2362 2171 
L 1664 449 
L 902 2306 
C 870 2382 870 2426 870 2433 
C 870 2573 1018 2586 1171 2586 
L 1171 2758 
C 1018 2752 742 2752 582 2752 
C 410 2752 205 2752 64 2758 
L 64 2586 
C 410 2586 448 2554 531 2350 
L 1485 15 
C 1197 -738 1030 -1178 627 -1178 
C 557 -1178 397 -1159 282 -1044 
C 429 -1031 493 -942 493 -833 
C 493 -725 416 -629 288 -629 
C 147 -629 77 -725 77 -840 
C 77 -1095 339 -1280 627 -1280 
C 998 -1280 1229 -922 1357 -604 
L 2496 2197 
z
" transform="scale(0.015625)"/>
       <path id="CMR17-65" d="M 2438 1472 
C 2464 1498 2464 1511 2464 1576 
C 2464 2238 2118 2816 1389 2816 
C 710 2816 173 2169 173 1383 
C 173 551 781 -64 1459 -64 
C 2176 -64 2458 607 2458 740 
C 2458 784 2419 784 2406 784 
C 2362 784 2355 771 2330 696 
C 2189 265 1837 51 1504 51 
C 1229 51 954 203 781 480 
C 582 803 582 1176 582 1472 
L 2438 1472 
z
M 589 1568 
C 634 2505 1126 2714 1382 2714 
C 1818 2714 2112 2297 2118 1568 
L 589 1568 
z
" transform="scale(0.015625)"/>
       <path id="CMR17-72" d="M 960 1497 
C 960 2112 1222 2688 1702 2688 
C 1747 2688 1792 2682 1837 2662 
C 1837 2662 1696 2617 1696 2452 
C 1696 2298 1818 2234 1914 2234 
C 1990 2234 2131 2279 2131 2458 
C 2131 2663 1926 2790 1709 2790 
C 1222 2790 1011 2317 947 2093 
L 941 2093 
L 941 2790 
L 198 2720 
L 198 2554 
C 576 2554 634 2515 634 2208 
L 634 428 
C 634 184 608 153 198 153 
L 198 -13 
C 352 0 646 0 813 0 
C 998 0 1325 0 1498 -13 
L 1498 153 
C 1037 153 960 153 960 440 
L 960 1497 
z
" transform="scale(0.015625)"/>
       <path id="CMR17-73" d="M 1978 2697 
C 1978 2813 1971 2819 1933 2819 
C 1907 2819 1901 2813 1824 2717 
C 1805 2691 1747 2626 1728 2601 
C 1523 2819 1235 2819 1126 2819 
C 416 2819 160 2447 160 2076 
C 160 1498 813 1365 998 1325 
C 1402 1243 1542 1217 1677 1101 
C 1760 1025 1901 884 1901 654 
C 1901 384 1747 38 1158 38 
C 602 38 403 460 288 1021 
C 269 1110 269 1117 218 1117 
C 166 1117 160 1110 160 983 
L 160 63 
C 160 -51 166 -58 205 -58 
C 237 -58 243 -51 275 0 
C 314 57 410 211 448 276 
C 576 103 800 -64 1158 -64 
C 1792 -64 2131 283 2131 784 
C 2131 1112 1958 1285 1875 1362 
C 1683 1561 1459 1606 1190 1657 
C 838 1735 390 1825 390 2217 
C 390 2383 480 2737 1126 2737 
C 1811 2737 1850 2094 1862 1888 
C 1869 1856 1901 1849 1920 1849 
C 1978 1849 1978 1869 1978 1978 
L 1978 2697 
z
" transform="scale(0.015625)"/>
       <path id="CMSY10-6b" d="M 1103 4582 
C 1103 4685 1103 4800 975 4800 
C 847 4800 847 4659 847 4563 
L 847 -1363 
C 847 -1466 847 -1600 975 -1600 
C 1103 -1600 1103 -1485 1103 -1382 
L 1103 4582 
z
M 2351 4563 
C 2351 4666 2351 4800 2223 4800 
C 2095 4800 2095 4685 2095 4582 
L 2095 -1382 
C 2095 -1485 2095 -1600 2223 -1600 
C 2351 -1600 2351 -1459 2351 -1363 
L 2351 4563 
z
" transform="scale(0.015625)"/>
       <path id="CMSS17-77" d="M 4013 2752 
L 3526 2752 
L 3187 1601 
C 3117 1358 2918 685 2893 371 
L 2886 371 
C 2874 564 2765 1024 2586 1633 
L 2259 2752 
L 1818 2752 
L 1498 1658 
C 1338 1101 1216 627 1203 371 
L 1197 371 
C 1171 749 909 1633 870 1773 
L 582 2752 
L 83 2752 
L 915 0 
L 1402 0 
C 1734 1096 1990 1943 2010 2370 
C 2022 2160 2131 1707 2195 1484 
L 2618 0 
L 3181 0 
L 4013 2752 
z
" transform="scale(0.015625)"/>
       <path id="CMSS17-65" d="M 2502 1377 
C 2502 1590 2490 2003 2285 2345 
C 2061 2713 1696 2816 1421 2816 
C 755 2816 192 2188 192 1375 
C 192 582 774 -64 1510 -64 
C 1798 -64 2150 19 2470 248 
C 2470 274 2458 414 2451 420 
C 2451 433 2432 630 2432 656 
C 2125 407 1773 325 1517 325 
C 1107 325 666 667 646 1377 
L 2502 1377 
z
M 698 1728 
C 781 2084 1062 2421 1421 2421 
C 1517 2421 1965 2421 2080 1728 
L 698 1728 
z
" transform="scale(0.015625)"/>
       <path id="CMSS17-69" d="M 979 4183 
L 442 4183 
L 442 3648 
L 979 3648 
L 979 4183 
z
M 947 2739 
L 474 2739 
L 474 0 
L 947 0 
L 947 2739 
z
" transform="scale(0.015625)"/>
       <path id="CMSS17-67" d="M 2848 2808 
C 2483 2808 2170 2738 1914 2617 
C 1702 2777 1485 2808 1338 2808 
C 781 2808 358 2349 358 1814 
C 358 1468 550 1207 563 1195 
C 448 1035 384 863 384 672 
C 384 448 474 289 544 200 
C 211 -3 166 -314 166 -435 
C 166 -898 749 -1280 1498 -1280 
C 2253 -1280 2835 -898 2835 -428 
C 2835 448 1856 448 1587 448 
L 1069 448 
C 973 448 717 448 717 791 
C 717 921 774 1004 781 1010 
C 877 940 1075 832 1338 832 
C 1869 832 2310 1278 2310 1827 
C 2310 2132 2170 2355 2112 2432 
L 2131 2432 
C 2150 2432 2419 2432 2515 2432 
C 2720 2432 2739 2429 2918 2419 
L 2848 2808 
z
M 1338 1182 
C 1120 1182 813 1315 813 1823 
C 813 2375 1165 2464 1331 2464 
C 1549 2464 1856 2331 1856 1823 
C 1856 1271 1504 1182 1338 1182 
z
M 1581 -10 
C 1734 -10 2381 -10 2381 -442 
C 2381 -714 1984 -929 1504 -929 
C 1018 -929 621 -720 621 -435 
C 621 -403 621 -10 1062 -10 
L 1581 -10 
z
" transform="scale(0.015625)"/>
       <path id="CMSS17-68" d="M 2618 1891 
C 2618 2292 2522 2820 1798 2820 
C 1395 2820 1133 2623 947 2407 
L 947 4448 
L 474 4448 
L 474 32 
L 960 32 
L 960 1573 
C 960 1973 1114 2432 1549 2432 
C 2112 2432 2131 2056 2131 1839 
L 2131 32 
L 2618 32 
L 2618 1891 
z
" transform="scale(0.015625)"/>
       <path id="CMSS17-74" d="M 1069 2368 
L 1901 2368 
L 1901 2737 
L 1069 2737 
L 1069 3520 
L 614 3520 
L 614 2737 
L 109 2737 
L 109 2368 
L 602 2368 
L 602 749 
C 602 384 685 -64 1107 -64 
C 1427 -64 1722 25 2003 172 
L 1901 548 
C 1747 414 1562 337 1363 337 
C 1082 337 1069 696 1069 856 
L 1069 2368 
z
" transform="scale(0.015625)"/>
       <path id="CMSS17-73" d="M 2061 2627 
C 1683 2807 1389 2807 1197 2807 
C 742 2807 198 2648 198 2003 
C 198 1359 902 1218 1094 1179 
C 1389 1122 1715 1058 1715 740 
C 1715 337 1254 337 1171 337 
C 915 337 563 407 243 638 
L 166 210 
C 531 0 883 -64 1178 -64 
C 1965 -64 2163 416 2163 781 
C 2163 1094 1984 1305 1862 1401 
C 1651 1568 1574 1587 1050 1696 
C 960 1709 646 1779 646 2066 
C 646 2432 1050 2432 1139 2432 
C 1555 2432 1811 2303 1984 2208 
L 2061 2627 
z
" transform="scale(0.015625)"/>
       <path id="CMR17-32" d="M 2669 989 
L 2554 989 
C 2490 536 2438 459 2413 420 
C 2381 369 1920 369 1830 369 
L 602 369 
C 832 619 1280 1072 1824 1597 
C 2214 1967 2669 2402 2669 3035 
C 2669 3790 2067 4224 1395 4224 
C 691 4224 262 3604 262 3030 
C 262 2780 448 2748 525 2748 
C 589 2748 781 2787 781 3010 
C 781 3207 614 3264 525 3264 
C 486 3264 448 3258 422 3245 
C 544 3790 915 4058 1306 4058 
C 1862 4058 2227 3617 2227 3035 
C 2227 2479 1901 2000 1536 1584 
L 262 146 
L 262 0 
L 2515 0 
L 2669 989 
z
" transform="scale(0.015625)"/>
      </defs>
      <use xlink:href="#CMEX10-50" transform="translate(0 74.720454) scale(0.996264)"/>
      <use xlink:href="#CMR17-6c" transform="translate(105.161552 -28.394178) scale(0.697382)"/>
      <use xlink:href="#CMR17-61" transform="translate(122.571211 -28.394178) scale(0.697382)"/>
      <use xlink:href="#CMR17-79" transform="translate(152.732672 -28.394178) scale(0.697382)"/>
      <use xlink:href="#CMR17-65" transform="translate(184.715839 -28.394178) scale(0.697382)"/>
      <use xlink:href="#CMR17-72" transform="translate(213.055671 -28.394178) scale(0.697382)"/>
      <use xlink:href="#CMR17-73" transform="translate(237.752091 -28.394178) scale(0.697382)"/>
      <use xlink:href="#CMSY10-6b" transform="translate(279.915451 0) scale(0.996264)"/>
      <use xlink:href="#CMSS17-77" transform="translate(360.957946 0) scale(0.996264)"/>
      <use xlink:href="#CMSS17-65" transform="translate(422.175038 0) scale(0.996264)"/>
      <use xlink:href="#CMSS17-69" transform="translate(463.81386 0) scale(0.996264)"/>
      <use xlink:href="#CMSS17-67" transform="translate(485.994583 0) scale(0.996264)"/>
      <use xlink:href="#CMSS17-68" transform="translate(532.838206 0) scale(0.996264)"/>
      <use xlink:href="#CMSS17-74" transform="translate(581.043149 0) scale(0.996264)"/>
      <use xlink:href="#CMSS17-73" transform="translate(614.874716 0) scale(0.996264)"/>
      <use xlink:href="#CMSY10-6b" transform="translate(682.017371 0) scale(0.996264)"/>
      <use xlink:href="#CMR17-32" transform="translate(731.830754 36.153639) scale(0.697382)"/>
     </g>
    </g>
   </g>
   <g id="line2d_43">
    <path d="M 57.681818 184.68 
L 89.093214 178.695987 
L 111.491259 174.429057 
L 128.91157 171.110409 
L 143.169273 168.394252 
L 155.238147 166.095077 
L 165.701659 164.10173 
L 174.937181 162.342321 
L 183.202908 160.767663 
L 190.683294 159.342616 
L 197.514709 158.0412 
L 203.800823 156.843667 
L 209.622293 155.73465 
L 215.043105 154.701961 
L 220.114876 153.735766 
L 224.879848 152.828017 
L 229.373031 151.972045 
L 233.623764 151.162261 
L 237.656878 150.393935 
L 241.493574 149.663027 
L 245.152099 148.966061 
L 248.648268 148.300025 
L 251.995883 147.662289 
L 255.207053 147.050547 
L 258.292468 146.462761 
L 261.261606 145.897127 
L 264.122916 145.352034 
L 266.883954 144.826044 
L 269.551511 144.317862 
L 272.131711 143.826323 
L 274.630094 143.350369 
L 277.05169 142.889044 
L 279.401079 142.441475 
L 281.682441 142.006865 
L 283.899607 141.584485 
L 286.05609 141.173665 
L 288.155124 140.77379 
L 290.19969 140.384291 
L 292.192544 140.004643 
L 294.136237 139.63436 
L 296.033137 139.272992 
L 297.885443 138.92012 
L 299.695205 138.575352 
L 301.464332 138.238325 
L 303.19461 137.908699 
L 304.887708 137.586157 
L 306.54519 137.270399 
L 308.168524 136.961146 
L 309.759089 136.658136 
L 311.318182 136.361122 
" clip-path="url(#pf34ac33d51)" style="fill: none; stroke-dasharray: 1.5,2.475; stroke-dashoffset: 0; stroke: #1e88e5; stroke-width: 1.5"/>
   </g>
   <g id="line2d_44">
    <path d="M 57.681818 136.459903 
L 89.093214 123.706438 
L 111.491259 114.612519 
L 128.91157 107.53963 
L 143.169273 101.750803 
L 155.238147 96.850672 
L 165.701659 92.60234 
L 174.937181 88.852589 
L 183.202908 85.496589 
L 190.683294 82.459448 
L 197.514709 79.685798 
L 203.800823 77.133548 
L 209.622293 74.76995 
L 215.043105 72.569024 
L 220.114876 70.509815 
L 224.879848 68.57517 
L 229.373031 66.750875 
L 233.623764 65.025018 
L 237.656878 63.387517 
L 241.493574 61.829765 
L 245.152099 60.344353 
L 248.648268 58.924859 
L 251.995883 57.565681 
L 255.207053 56.261901 
L 258.292468 55.00918 
L 261.261606 53.803668 
L 264.122916 52.641937 
L 266.883954 51.520917 
L 269.551511 50.437851 
L 272.131711 49.390254 
L 274.630094 48.375875 
L 277.05169 47.392674 
L 279.401079 46.438789 
L 281.682441 45.512524 
L 283.899607 44.612324 
L 286.05609 43.736762 
L 288.155124 42.884525 
L 290.19969 42.054402 
L 292.192544 41.245276 
L 294.136237 40.456109 
L 296.033137 39.685942 
L 297.885443 38.933879 
L 299.695205 38.199091 
L 301.464332 37.480801 
L 303.19461 36.778284 
L 304.887708 36.090862 
L 306.54519 35.417901 
L 308.168524 34.758805 
L 309.759089 34.113013 
L 311.318182 33.48 
" clip-path="url(#pf34ac33d51)" style="fill: none; stroke-dasharray: 1.5,2.475; stroke-dashoffset: 0; stroke: #d81b60; stroke-width: 1.5"/>
   </g>
   <g id="patch_3">
    <path d="M 45 192.24 
L 45 25.92 
" style="fill: none; stroke: #000000; stroke-width: 0.8; stroke-linejoin: miter; stroke-linecap: square"/>
   </g>
   <g id="patch_4">
    <path d="M 324 192.24 
L 324 25.92 
" style="fill: none; stroke: #000000; stroke-width: 0.8; stroke-linejoin: miter; stroke-linecap: square"/>
   </g>
   <g id="patch_5">
    <path d="M 45 192.24 
L 324 192.24 
" style="fill: none; stroke: #000000; stroke-width: 0.8; stroke-linejoin: miter; stroke-linecap: square"/>
   </g>
   <g id="patch_6">
    <path d="M 45 25.92 
L 324 25.92 
" style="fill: none; stroke: #000000; stroke-width: 0.8; stroke-linejoin: miter; stroke-linecap: square"/>
   </g>
   <g id="text_7">
    <!-- $\sum_{\ell}\|W_\ell\|^2 \propto(n_{\mathtt{train}})^{0.71}$ -->
    <g transform="translate(98.247681 157.93544) scale(0.14 -0.14)">
     <defs>
      <path id="CMMI12-60" d="M 589 1088 
C 186 692 83 597 83 572 
C 83 546 109 501 154 501 
C 186 501 550 851 602 909 
C 640 482 800 -73 1299 -73 
C 1555 -73 1786 86 1888 163 
C 1971 227 2278 488 2278 546 
C 2278 578 2246 616 2214 616 
C 2189 616 2093 520 2067 495 
C 1843 278 1562 55 1306 55 
C 960 55 915 552 915 897 
C 915 960 915 1228 960 1279 
C 1338 1667 2522 2886 2522 4014 
C 2522 4269 2426 4492 2150 4492 
C 1555 4492 1037 3178 947 2936 
C 922 2873 550 1891 589 1088 
z
M 973 1471 
C 979 1509 1267 3186 1805 4082 
C 1914 4255 2022 4364 2150 4364 
C 2368 4364 2381 4159 2381 4018 
C 2381 3794 2317 3218 1760 2412 
C 1594 2175 1338 1855 973 1471 
z
" transform="scale(0.015625)"/>
      <path id="CMMI12-57" d="M 5779 3646 
C 5926 3894 6067 4129 6451 4168 
C 6509 4174 6566 4180 6566 4282 
C 6566 4352 6509 4352 6490 4352 
C 6477 4352 6432 4352 6010 4352 
C 5818 4352 5619 4352 5434 4352 
C 5395 4352 5318 4352 5318 4226 
C 5318 4166 5370 4160 5408 4160 
C 5536 4160 5741 4122 5741 3925 
C 5741 3842 5715 3797 5651 3690 
L 3904 648 
L 3674 3963 
C 3674 4039 3744 4160 4102 4160 
C 4186 4160 4250 4160 4250 4286 
C 4250 4352 4186 4352 4154 4352 
C 3930 4352 3693 4352 3462 4352 
L 3130 4352 
C 3034 4352 2918 4352 2822 4352 
C 2784 4352 2707 4352 2707 4226 
C 2707 4160 2752 4160 2861 4160 
C 3155 4160 3155 4153 3181 3772 
L 3200 3543 
L 1542 648 
L 1306 3931 
C 1306 4002 1306 4160 1741 4160 
C 1811 4160 1882 4160 1882 4279 
C 1882 4352 1824 4352 1786 4352 
C 1562 4352 1325 4352 1094 4352 
L 762 4352 
C 666 4352 550 4352 454 4352 
C 416 4352 339 4352 339 4226 
C 339 4160 390 4160 480 4160 
C 781 4160 787 4121 800 3918 
L 1082 18 
C 1088 -90 1094 -128 1171 -128 
C 1235 -128 1248 -103 1306 -7 
L 3213 3307 
L 3450 18 
C 3456 -90 3462 -128 3539 -128 
C 3603 -128 3622 -96 3674 -7 
L 5779 3646 
z
" transform="scale(0.015625)"/>
      <path id="CMSY10-2f" d="M 4621 205 
C 4595 205 4493 192 4474 192 
C 3968 192 3629 691 3411 1024 
C 3347 1133 3174 1395 3104 1504 
C 3258 1850 3686 2643 4448 2643 
C 4493 2643 4550 2643 4621 2624 
C 4621 2790 4614 2797 4602 2810 
C 4557 2822 4461 2829 4403 2829 
C 3590 2829 3117 2048 2963 1728 
C 2707 2118 2618 2259 2381 2458 
C 1990 2797 1638 2829 1478 2829 
C 768 2829 358 2112 358 1376 
C 358 659 755 -70 1459 -70 
C 2272 -70 2746 710 2899 1030 
C 3155 640 3245 499 3482 301 
C 3872 -38 4224 -70 4384 -70 
C 4461 -70 4563 -58 4621 -44 
L 4621 205 
z
M 2758 1254 
C 2605 909 2176 115 1414 115 
C 794 115 499 794 499 1376 
C 499 2010 858 2566 1389 2566 
C 1894 2566 2234 2067 2451 1734 
C 2515 1626 2688 1363 2758 1254 
z
" transform="scale(0.015625)"/>
      <path id="CMR17-28" d="M 1958 -1561 
C 1958 -1555 1958 -1542 1939 -1523 
C 1645 -1224 858 -407 858 1581 
C 858 3569 1632 4379 1946 4697 
C 1946 4704 1958 4717 1958 4736 
C 1958 4755 1939 4768 1914 4768 
C 1843 4768 1299 4296 986 3594 
C 666 2887 576 2199 576 1588 
C 576 1128 621 351 1005 -471 
C 1312 -1135 1837 -1600 1914 -1600 
C 1946 -1600 1958 -1587 1958 -1561 
z
" transform="scale(0.015625)"/>
      <path id="CMR17-29" d="M 1683 1581 
C 1683 2040 1638 2817 1254 3639 
C 947 4303 422 4768 346 4768 
C 326 4768 301 4761 301 4729 
C 301 4717 307 4710 314 4697 
C 621 4378 1402 3568 1402 1584 
C 1402 -407 627 -1217 314 -1537 
C 307 -1549 301 -1556 301 -1568 
C 301 -1600 326 -1600 346 -1600 
C 416 -1600 960 -1128 1274 -426 
C 1594 281 1683 969 1683 1581 
z
" transform="scale(0.015625)"/>
      <path id="CMMI12-3a" d="M 1178 307 
C 1178 492 1024 619 870 619 
C 685 619 557 466 557 313 
C 557 128 710 0 864 0 
C 1050 0 1178 153 1178 307 
z
" transform="scale(0.015625)"/>
      <path id="CMR17-37" d="M 2886 3941 
L 2886 4081 
L 1382 4081 
C 634 4081 621 4165 595 4288 
L 480 4288 
L 294 3094 
L 410 3094 
C 429 3215 474 3540 550 3661 
C 589 3712 1062 3712 1171 3712 
L 2579 3712 
L 1869 2661 
C 1395 1954 1069 999 1069 165 
C 1069 89 1069 -128 1299 -128 
C 1530 -128 1530 89 1530 171 
L 1530 465 
C 1530 1508 1709 2196 2003 2636 
L 2886 3941 
z
" transform="scale(0.015625)"/>
     </defs>
     <use xlink:href="#CMEX10-50" transform="translate(0 74.720454) scale(0.996264)"/>
     <use xlink:href="#CMMI12-60" transform="translate(105.161552 -28.394178) scale(0.697382)"/>
     <use xlink:href="#CMSY10-6b" transform="translate(150.917914 0) scale(0.996264)"/>
     <use xlink:href="#CMMI12-57" transform="translate(200.731297 0) scale(0.996264)"/>
     <use xlink:href="#CMMI12-60" transform="translate(292.827206 -14.943915) scale(0.697382)"/>
     <use xlink:href="#CMSY10-6b" transform="translate(321.979163 0) scale(0.996264)"/>
     <use xlink:href="#CMR17-32" transform="translate(371.792546 36.153639) scale(0.697382)"/>
     <use xlink:href="#CMSY10-2f" transform="translate(431.947868 0) scale(0.996264)"/>
     <use xlink:href="#CMR17-28" transform="translate(537.109345 0) scale(0.996264)"/>
     <use xlink:href="#CMMI12-6e" transform="translate(572.390112 0) scale(0.996264)"/>
     <use xlink:href="#CMTT12-74" transform="translate(630.62016 -14.943915) scale(0.697382)"/>
     <use xlink:href="#CMTT12-72" transform="translate(666.506278 -14.943915) scale(0.697382)"/>
     <use xlink:href="#CMTT12-61" transform="translate(702.392396 -14.943915) scale(0.697382)"/>
     <use xlink:href="#CMTT12-69" transform="translate(738.278514 -14.943915) scale(0.697382)"/>
     <use xlink:href="#CMTT12-6e" transform="translate(774.164632 -14.943915) scale(0.697382)"/>
     <use xlink:href="#CMR17-29" transform="translate(810.548882 0) scale(0.996264)"/>
     <use xlink:href="#CMR17-30" transform="translate(845.829649 36.153639) scale(0.697382)"/>
     <use xlink:href="#CMMI12-3a" transform="translate(877.812831 36.153639) scale(0.697382)"/>
     <use xlink:href="#CMR17-37" transform="translate(896.780764 36.153639) scale(0.697382)"/>
     <use xlink:href="#CMR17-31" transform="translate(928.763946 36.153639) scale(0.697382)"/>
    </g>
   </g>
   <g id="text_8">
    <!-- $\sum_{\ell}\|W_\ell\|^2 \propto(n_{\mathtt{train}})^{1.51}$ -->
    <g transform="translate(98.247681 79.500784) scale(0.14 -0.14)">
     <use xlink:href="#CMEX10-50" transform="translate(0 74.720454) scale(0.996264)"/>
     <use xlink:href="#CMMI12-60" transform="translate(105.161552 -28.394178) scale(0.697382)"/>
     <use xlink:href="#CMSY10-6b" transform="translate(150.917914 0) scale(0.996264)"/>
     <use xlink:href="#CMMI12-57" transform="translate(200.731297 0) scale(0.996264)"/>
     <use xlink:href="#CMMI12-60" transform="translate(292.827206 -14.943915) scale(0.697382)"/>
     <use xlink:href="#CMSY10-6b" transform="translate(321.979163 0) scale(0.996264)"/>
     <use xlink:href="#CMR17-32" transform="translate(371.792546 36.153639) scale(0.697382)"/>
     <use xlink:href="#CMSY10-2f" transform="translate(431.947868 0) scale(0.996264)"/>
     <use xlink:href="#CMR17-28" transform="translate(537.109345 0) scale(0.996264)"/>
     <use xlink:href="#CMMI12-6e" transform="translate(572.390112 0) scale(0.996264)"/>
     <use xlink:href="#CMTT12-74" transform="translate(630.62016 -14.943915) scale(0.697382)"/>
     <use xlink:href="#CMTT12-72" transform="translate(666.506278 -14.943915) scale(0.697382)"/>
     <use xlink:href="#CMTT12-61" transform="translate(702.392396 -14.943915) scale(0.697382)"/>
     <use xlink:href="#CMTT12-69" transform="translate(738.278514 -14.943915) scale(0.697382)"/>
     <use xlink:href="#CMTT12-6e" transform="translate(774.164632 -14.943915) scale(0.697382)"/>
     <use xlink:href="#CMR17-29" transform="translate(810.548882 0) scale(0.996264)"/>
     <use xlink:href="#CMR17-31" transform="translate(845.829649 36.153639) scale(0.697382)"/>
     <use xlink:href="#CMMI12-3a" transform="translate(877.812831 36.153639) scale(0.697382)"/>
     <use xlink:href="#CMR17-35" transform="translate(896.780764 36.153639) scale(0.697382)"/>
     <use xlink:href="#CMR17-31" transform="translate(928.763946 36.153639) scale(0.697382)"/>
    </g>
   </g>
   <g id="text_9">
    <!-- Squared norm vs $n_{\mathtt{train}}$ -->
    <g transform="translate(104.525468 19.92) scale(0.168 -0.168)">
     <defs>
      <path id="CMSS17-53" d="M 2797 4169 
C 2515 4334 2208 4480 1690 4480 
C 864 4480 333 3879 333 3266 
C 333 3025 403 2753 653 2475 
C 902 2196 1184 2121 1542 2033 
C 1690 1994 1939 1924 1984 1906 
C 2342 1767 2515 1444 2515 1140 
C 2515 742 2202 318 1645 318 
C 1453 318 890 318 358 819 
L 269 318 
C 794 -64 1363 -128 1651 -128 
C 2438 -128 3002 488 3002 1186 
C 3002 1440 2925 1763 2656 2061 
C 2394 2347 2163 2410 1638 2549 
C 1338 2626 1146 2677 986 2873 
C 877 3013 819 3146 819 3317 
C 819 3673 1126 4060 1690 4060 
C 1971 4060 2336 4002 2707 3660 
L 2797 4169 
z
" transform="scale(0.015625)"/>
      <path id="CMSS17-71" d="M 2611 2816 
L 2138 2816 
L 2138 2428 
C 2112 2460 1818 2816 1318 2816 
C 736 2816 211 2228 211 1399 
C 211 633 653 -5 1229 -5 
C 1498 -5 1837 91 2125 365 
L 2125 -1216 
L 2611 -1216 
L 2611 2816 
z
M 2138 914 
C 2138 832 2138 718 1939 554 
C 1888 510 1747 384 1504 384 
C 1050 384 698 850 698 1399 
C 698 2011 1126 2415 1562 2415 
C 1926 2415 2138 2061 2138 1797 
L 2138 914 
z
" transform="scale(0.015625)"/>
      <path id="CMSS17-75" d="M 2618 2739 
L 2131 2739 
L 2131 972 
C 2131 498 1786 306 1421 306 
C 998 306 960 447 960 709 
L 960 2739 
L 474 2739 
L 474 678 
C 474 179 646 -64 1088 -64 
C 1306 -64 1798 -13 2144 306 
L 2144 0 
L 2618 0 
L 2618 2739 
z
" transform="scale(0.015625)"/>
      <path id="CMSS17-61" d="M 2406 1791 
C 2406 2392 1978 2808 1402 2808 
C 1120 2808 813 2757 461 2553 
L 499 2135 
C 659 2248 934 2432 1395 2432 
C 1722 2432 1920 2180 1920 1782 
L 1920 1536 
C 896 1536 256 1238 256 726 
C 256 461 416 -64 947 -64 
C 1043 -64 1562 -64 1933 217 
L 1933 -19 
L 2406 -19 
L 2406 1791 
z
M 1920 816 
C 1920 701 1920 548 1728 434 
C 1562 325 1350 325 1261 325 
C 941 325 723 511 723 744 
C 723 1211 1722 1211 1920 1211 
L 1920 816 
z
" transform="scale(0.015625)"/>
      <path id="CMSS17-72" d="M 954 1363 
C 954 1965 1395 2368 1958 2368 
L 1958 2789 
C 1549 2789 1165 2585 934 2253 
L 934 2758 
L 480 2758 
L 480 0 
L 954 0 
L 954 1363 
z
" transform="scale(0.015625)"/>
      <path id="CMSS17-64" d="M 2611 4416 
L 2138 4416 
L 2138 2438 
C 1939 2603 1613 2756 1254 2756 
C 672 2756 211 2131 211 1347 
C 211 562 666 -64 1235 -64 
C 1677 -64 1971 172 2125 306 
L 2125 -13 
L 2611 -13 
L 2611 4416 
z
M 2125 836 
C 2125 747 2125 653 1926 482 
C 1798 375 1645 325 1498 325 
C 1152 325 698 576 698 1340 
C 698 2134 1210 2368 1562 2368 
C 1798 2368 1990 2254 2125 2065 
L 2125 836 
z
" transform="scale(0.015625)"/>
      <path id="CMSS17-6e" d="M 2618 1877 
C 2618 2283 2522 2816 1798 2816 
C 1389 2816 1120 2606 941 2389 
L 941 2758 
L 474 2758 
L 474 0 
L 960 0 
L 960 1559 
C 960 1964 1114 2428 1549 2428 
C 2112 2428 2131 2048 2131 1829 
L 2131 0 
L 2618 0 
L 2618 1877 
z
" transform="scale(0.015625)"/>
      <path id="CMSS17-6f" d="M 2829 1356 
C 2829 2176 2221 2816 1504 2816 
C 768 2816 173 2157 173 1356 
C 173 544 787 -64 1498 -64 
C 2227 -64 2829 563 2829 1356 
z
M 1504 337 
C 1050 337 659 709 659 1408 
C 659 2151 1114 2427 1498 2427 
C 1914 2427 2342 2126 2342 1408 
C 2342 683 1926 337 1504 337 
z
" transform="scale(0.015625)"/>
      <path id="CMSS17-6d" d="M 4288 1877 
C 4288 2308 4179 2816 3462 2816 
C 2982 2816 2694 2516 2566 2331 
C 2451 2670 2182 2816 1798 2816 
C 1363 2816 1088 2568 941 2389 
L 941 2758 
L 474 2758 
L 474 0 
L 960 0 
L 960 1559 
C 960 1939 1101 2428 1555 2428 
C 2138 2428 2138 2016 2138 1829 
L 2138 0 
L 2624 0 
L 2624 1559 
C 2624 1939 2765 2428 3219 2428 
C 3802 2428 3802 2016 3802 1829 
L 3802 0 
L 4288 0 
L 4288 1877 
z
" transform="scale(0.015625)"/>
      <path id="CMSS17-76" d="M 2675 2752 
L 2176 2752 
L 1747 1556 
C 1613 1165 1421 627 1389 352 
L 1382 352 
C 1370 468 1318 634 1286 749 
C 1248 890 1197 1056 1158 1172 
L 595 2752 
L 83 2752 
L 1094 0 
L 1664 0 
L 2675 2752 
z
" transform="scale(0.015625)"/>
     </defs>
     <use xlink:href="#CMSS17-53" transform="scale(0.996264)"/>
     <use xlink:href="#CMSS17-71" transform="translate(52.048516 0) scale(0.996264)"/>
     <use xlink:href="#CMSS17-75" transform="translate(100.253459 0) scale(0.996264)"/>
     <use xlink:href="#CMSS17-61" transform="translate(148.458402 0) scale(0.996264)"/>
     <use xlink:href="#CMSS17-72" transform="translate(190.777869 0) scale(0.996264)"/>
     <use xlink:href="#CMSS17-65" transform="translate(222.687642 0) scale(0.996264)"/>
     <use xlink:href="#CMSS17-64" transform="translate(264.326464 0) scale(0.996264)"/>
     <use xlink:href="#CMSS17-6e" transform="translate(343.76052 0) scale(0.996264)"/>
     <use xlink:href="#CMSS17-6f" transform="translate(391.965463 0) scale(0.996264)"/>
     <use xlink:href="#CMSS17-72" transform="translate(436.206632 0) scale(0.996264)"/>
     <use xlink:href="#CMSS17-6d" transform="translate(468.116405 0) scale(0.996264)"/>
     <use xlink:href="#CMSS17-76" transform="translate(573.574772 0) scale(0.996264)"/>
     <use xlink:href="#CMSS17-73" transform="translate(616.574914 0) scale(0.996264)"/>
     <use xlink:href="#CMMI12-6e" transform="translate(683.717569 0) scale(0.996264)"/>
     <use xlink:href="#CMTT12-74" transform="translate(741.947616 -14.943915) scale(0.697382)"/>
     <use xlink:href="#CMTT12-72" transform="translate(777.833734 -14.943915) scale(0.697382)"/>
     <use xlink:href="#CMTT12-61" transform="translate(813.719852 -14.943915) scale(0.697382)"/>
     <use xlink:href="#CMTT12-69" transform="translate(849.60597 -14.943915) scale(0.697382)"/>
     <use xlink:href="#CMTT12-6e" transform="translate(885.492088 -14.943915) scale(0.697382)"/>
    </g>
   </g>
   <g id="legend_1">
    <g id="patch_7">
     <path d="M 54.8 58.067696 
L 191.816794 58.067696 
Q 194.616794 58.067696 194.616794 55.267696 
L 194.616794 35.72 
Q 194.616794 32.92 191.816794 32.92 
L 54.8 32.92 
Q 52 32.92 52 35.72 
L 52 55.267696 
Q 52 58.067696 54.8 58.067696 
z
" style="fill: #ffffff; opacity: 0.8; stroke: #cccccc; stroke-linejoin: miter"/>
    </g>
    <g id="line2d_45">
     <path d="M 57.6 44.080772 
L 71.6 44.080772 
L 85.6 44.080772 
" style="fill: none; stroke-dasharray: 1.5,2.475; stroke-dashoffset: 0; stroke: #1e88e5; stroke-width: 1.5"/>
    </g>
    <g id="text_10">
     <!-- LSq fit (log-log) -->
     <g transform="translate(96.8 48.980772) scale(0.14 -0.14)">
      <defs>
       <path id="CMSS17-4c" d="M 1670 414 
C 1594 414 1517 414 1440 414 
L 1101 414 
L 1101 4416 
L 563 4416 
L 563 0 
L 3002 0 
L 3002 414 
L 1670 414 
z
" transform="scale(0.015625)"/>
       <path id="CMSS17-c" d="M 2752 4416 
L 2240 4416 
L 2240 3906 
L 2752 3906 
L 2752 4416 
z
M 2733 2737 
L 2259 2737 
L 2259 0 
L 2733 0 
L 2733 2737 
z
M 1075 2368 
L 1773 2368 
L 1773 2737 
L 1062 2737 
L 1062 3578 
C 1062 3919 1216 4092 1421 4092 
C 1542 4092 1664 4056 1773 3992 
L 1773 4410 
C 1722 4428 1574 4480 1421 4480 
C 941 4480 602 3993 602 3372 
L 602 2737 
L 160 2737 
L 160 2368 
L 602 2368 
L 602 0 
L 1075 0 
L 1075 2368 
z
" transform="scale(0.015625)"/>
       <path id="CMSS17-28" d="M 1613 4768 
C 1267 4417 474 3601 474 1588 
C 474 -433 1267 -1243 1613 -1600 
L 2003 -1600 
C 1216 -784 960 357 960 1581 
C 960 2798 1203 3946 2003 4768 
L 1613 4768 
z
" transform="scale(0.015625)"/>
       <path id="CMSS17-6c" d="M 947 4416 
L 474 4416 
L 474 0 
L 947 0 
L 947 4416 
z
" transform="scale(0.015625)"/>
       <path id="CMSS17-2d" d="M 1664 1216 
L 1664 1585 
L 64 1585 
L 64 1216 
L 1664 1216 
z
" transform="scale(0.015625)"/>
       <path id="CMSS17-29" d="M 723 -1600 
C 1069 -1249 1862 -433 1862 1581 
C 1862 3601 1069 4411 723 4768 
L 333 4768 
C 1120 3952 1376 2811 1376 1588 
C 1376 370 1133 -778 333 -1600 
L 723 -1600 
z
" transform="scale(0.015625)"/>
      </defs>
      <use xlink:href="#CMSS17-4c" transform="scale(0.996264)"/>
      <use xlink:href="#CMSS17-53" transform="translate(50.687105 0) scale(0.996264)"/>
      <use xlink:href="#CMSS17-71" transform="translate(102.735622 0) scale(0.996264)"/>
      <use xlink:href="#CMSS17-c" transform="translate(182.169677 0) scale(0.996264)"/>
      <use xlink:href="#CMSS17-74" transform="translate(232.296415 0) scale(0.996264)"/>
      <use xlink:href="#CMSS17-28" transform="translate(297.357094 0) scale(0.996264)"/>
      <use xlink:href="#CMSS17-6c" transform="translate(333.791008 0) scale(0.996264)"/>
      <use xlink:href="#CMSS17-6f" transform="translate(355.971731 0) scale(0.996264)"/>
      <use xlink:href="#CMSS17-67" transform="translate(402.815355 0) scale(0.996264)"/>
      <use xlink:href="#CMSS17-2d" transform="translate(449.658978 0) scale(0.996264)"/>
      <use xlink:href="#CMSS17-6c" transform="translate(480.888091 0) scale(0.996264)"/>
      <use xlink:href="#CMSS17-6f" transform="translate(503.068814 0) scale(0.996264)"/>
      <use xlink:href="#CMSS17-67" transform="translate(549.912438 0) scale(0.996264)"/>
      <use xlink:href="#CMSS17-29" transform="translate(596.756061 0) scale(0.996264)"/>
     </g>
    </g>
   </g>
  </g>
 </g>
 <defs>
  <clipPath id="pf34ac33d51">
   <rect x="45" y="25.92" width="279" height="166.32"/>
  </clipPath>
 </defs>
</svg>
