<?xml version="1.0" encoding="utf-8" standalone="no"?>
<!DOCTYPE svg PUBLIC "-//W3C//DTD SVG 1.1//EN"
  "http://www.w3.org/Graphics/SVG/1.1/DTD/svg11.dtd">
<svg xmlns:xlink="http://www.w3.org/1999/xlink" width="360pt" height="216pt" viewBox="0 0 360 216" xmlns="http://www.w3.org/2000/svg" version="1.1">
 <metadata>
  <rdf:RDF xmlns:dc="http://purl.org/dc/elements/1.1/" xmlns:cc="http://creativecommons.org/ns#" xmlns:rdf="http://www.w3.org/1999/02/22-rdf-syntax-ns#">
   <cc:Work>
    <dc:type rdf:resource="http://purl.org/dc/dcmitype/StillImage"/>
    <dc:date>2023-10-08T15:10:43.432736</dc:date>
    <dc:format>image/svg+xml</dc:format>
    <dc:creator>
     <cc:Agent>
      <dc:title>Matplotlib v3.7.2, https://matplotlib.org/</dc:title>
     </cc:Agent>
    </dc:creator>
   </cc:Work>
  </rdf:RDF>
 </metadata>
 <defs>
  <style type="text/css">*{stroke-linejoin: round; stroke-linecap: butt}</style>
 </defs>
 <g id="figure_1">
  <g id="patch_1">
   <path d="M 0 216 
L 360 216 
L 360 0 
L 0 0 
z
" style="fill: #ffffff"/>
  </g>
  <g id="axes_1">
   <g id="patch_2">
    <path d="M 45 192.24 
L 324 192.24 
L 324 25.92 
L 45 25.92 
z
" style="fill: #ffffff"/>
   </g>
   <g id="PolyCollection_1">
    <defs>
     <path id="me0d59df1c5" d="M 57.681818 -32.583021 
L 57.681818 -31.32 
L 71.056966 -33.468281 
L 84.47559 -36.091 
L 97.854288 -38.717309 
L 111.108533 -40.245391 
L 124.502244 -42.816979 
L 137.821128 -44.687481 
L 151.159593 -47.15191 
L 164.516973 -49.944634 
L 177.84412 -52.111172 
L 191.218183 -53.931765 
L 204.564933 -56.712349 
L 217.906568 -58.517274 
L 231.252118 -60.957193 
L 244.596033 -63.227467 
L 257.951329 -65.603883 
L 271.276721 -67.659859 
L 284.641257 -70.048271 
L 297.972735 -72.287269 
L 311.318182 -74.674397 
L 311.318182 -74.934683 
L 311.318182 -74.934683 
L 297.972735 -72.778013 
L 284.641257 -70.39605 
L 271.276721 -68.137529 
L 257.951329 -66.163881 
L 244.596033 -63.7291 
L 231.252118 -61.492398 
L 217.906568 -59.542409 
L 204.564933 -57.143511 
L 191.218183 -54.795857 
L 177.84412 -52.775194 
L 164.516973 -50.647481 
L 151.159593 -48.208495 
L 137.821128 -45.590693 
L 124.502244 -43.630682 
L 111.108533 -41.643741 
L 97.854288 -39.445875 
L 84.47559 -37.686044 
L 71.056966 -34.699387 
L 57.681818 -32.583021 
z
" style="stroke: #1e88e5; stroke-opacity: 0.25"/>
    </defs>
    <g clip-path="url(#p72afa10857)">
     <use xlink:href="#me0d59df1c5" x="0" y="216" style="fill: #1e88e5; fill-opacity: 0.25; stroke: #1e88e5; stroke-opacity: 0.25"/>
    </g>
   </g>
   <g id="PathCollection_1">
    <defs>
     <path id="med27110223" d="M 0 1.5 
C 0.397805 1.5 0.77937 1.341951 1.06066 1.06066 
C 1.341951 0.77937 1.5 0.397805 1.5 0 
C 1.5 -0.397805 1.341951 -0.77937 1.06066 -1.06066 
C 0.77937 -1.341951 0.397805 -1.5 0 -1.5 
C -0.397805 -1.5 -0.77937 -1.341951 -1.06066 -1.06066 
C -1.341951 -0.77937 -1.5 -0.397805 -1.5 0 
C -1.5 0.397805 -1.341951 0.77937 -1.06066 1.06066 
C -0.77937 1.341951 -0.397805 1.5 0 1.5 
z
" style="stroke: #a5d5ff"/>
    </defs>
    <g clip-path="url(#p72afa10857)">
     <use xlink:href="#med27110223" x="231.252118" y="155.28196" style="fill: #a5d5ff; stroke: #a5d5ff"/>
     <use xlink:href="#med27110223" x="177.84412" y="163.561952" style="fill: #a5d5ff; stroke: #a5d5ff"/>
     <use xlink:href="#med27110223" x="284.641257" y="145.680826" style="fill: #a5d5ff; stroke: #a5d5ff"/>
     <use xlink:href="#med27110223" x="257.951329" y="149.717216" style="fill: #a5d5ff; stroke: #a5d5ff"/>
     <use xlink:href="#med27110223" x="284.641257" y="145.711367" style="fill: #a5d5ff; stroke: #a5d5ff"/>
     <use xlink:href="#med27110223" x="297.972735" y="143.222263" style="fill: #a5d5ff; stroke: #a5d5ff"/>
     <use xlink:href="#med27110223" x="97.854288" y="178.633775" style="fill: #a5d5ff; stroke: #a5d5ff"/>
     <use xlink:href="#med27110223" x="297.972735" y="143.485996" style="fill: #a5d5ff; stroke: #a5d5ff"/>
     <use xlink:href="#med27110223" x="177.84412" y="163.22883" style="fill: #a5d5ff; stroke: #a5d5ff"/>
     <use xlink:href="#med27110223" x="124.502244" y="173.0143" style="fill: #a5d5ff; stroke: #a5d5ff"/>
     <use xlink:href="#med27110223" x="231.252118" y="154.973448" style="fill: #a5d5ff; stroke: #a5d5ff"/>
     <use xlink:href="#med27110223" x="151.159593" y="169.222646" style="fill: #a5d5ff; stroke: #a5d5ff"/>
     <use xlink:href="#med27110223" x="204.564933" y="159.234837" style="fill: #a5d5ff; stroke: #a5d5ff"/>
     <use xlink:href="#med27110223" x="204.564933" y="158.912428" style="fill: #a5d5ff; stroke: #a5d5ff"/>
     <use xlink:href="#med27110223" x="137.821128" y="170.95153" style="fill: #a5d5ff; stroke: #a5d5ff"/>
     <use xlink:href="#med27110223" x="204.564933" y="160.150155" style="fill: #a5d5ff; stroke: #a5d5ff"/>
     <use xlink:href="#med27110223" x="57.681818" y="183.440283" style="fill: #a5d5ff; stroke: #a5d5ff"/>
     <use xlink:href="#med27110223" x="297.972735" y="143.754019" style="fill: #a5d5ff; stroke: #a5d5ff"/>
     <use xlink:href="#med27110223" x="217.906568" y="156.648075" style="fill: #a5d5ff; stroke: #a5d5ff"/>
     <use xlink:href="#med27110223" x="311.318182" y="141.282484" style="fill: #a5d5ff; stroke: #a5d5ff"/>
     <use xlink:href="#med27110223" x="257.951329" y="150.282481" style="fill: #a5d5ff; stroke: #a5d5ff"/>
     <use xlink:href="#med27110223" x="271.276721" y="147.687931" style="fill: #a5d5ff; stroke: #a5d5ff"/>
     <use xlink:href="#med27110223" x="84.47559" y="181.203148" style="fill: #a5d5ff; stroke: #a5d5ff"/>
     <use xlink:href="#med27110223" x="297.972735" y="143.702434" style="fill: #a5d5ff; stroke: #a5d5ff"/>
     <use xlink:href="#med27110223" x="177.84412" y="163.806817" style="fill: #a5d5ff; stroke: #a5d5ff"/>
     <use xlink:href="#med27110223" x="164.516973" y="165.627793" style="fill: #a5d5ff; stroke: #a5d5ff"/>
     <use xlink:href="#med27110223" x="164.516973" y="165.811717" style="fill: #a5d5ff; stroke: #a5d5ff"/>
     <use xlink:href="#med27110223" x="137.821128" y="170.064238" style="fill: #a5d5ff; stroke: #a5d5ff"/>
     <use xlink:href="#med27110223" x="151.159593" y="168.070776" style="fill: #a5d5ff; stroke: #a5d5ff"/>
     <use xlink:href="#med27110223" x="71.056966" y="181.454902" style="fill: #a5d5ff; stroke: #a5d5ff"/>
     <use xlink:href="#med27110223" x="231.252118" y="154.982557" style="fill: #a5d5ff; stroke: #a5d5ff"/>
     <use xlink:href="#med27110223" x="151.159593" y="168.544709" style="fill: #a5d5ff; stroke: #a5d5ff"/>
     <use xlink:href="#med27110223" x="71.056966" y="182.664269" style="fill: #a5d5ff; stroke: #a5d5ff"/>
     <use xlink:href="#med27110223" x="124.502244" y="172.519331" style="fill: #a5d5ff; stroke: #a5d5ff"/>
     <use xlink:href="#med27110223" x="231.252118" y="154.983849" style="fill: #a5d5ff; stroke: #a5d5ff"/>
     <use xlink:href="#med27110223" x="204.564933" y="158.742193" style="fill: #a5d5ff; stroke: #a5d5ff"/>
     <use xlink:href="#med27110223" x="271.276721" y="148.067091" style="fill: #a5d5ff; stroke: #a5d5ff"/>
     <use xlink:href="#med27110223" x="217.906568" y="157.464925" style="fill: #a5d5ff; stroke: #a5d5ff"/>
     <use xlink:href="#med27110223" x="84.47559" y="176.9744" style="fill: #a5d5ff; stroke: #a5d5ff"/>
     <use xlink:href="#med27110223" x="311.318182" y="141.297851" style="fill: #a5d5ff; stroke: #a5d5ff"/>
     <use xlink:href="#med27110223" x="111.108533" y="175.083644" style="fill: #a5d5ff; stroke: #a5d5ff"/>
     <use xlink:href="#med27110223" x="191.218183" y="161.235926" style="fill: #a5d5ff; stroke: #a5d5ff"/>
     <use xlink:href="#med27110223" x="57.681818" y="184.643043" style="fill: #a5d5ff; stroke: #a5d5ff"/>
     <use xlink:href="#med27110223" x="297.972735" y="143.220881" style="fill: #a5d5ff; stroke: #a5d5ff"/>
     <use xlink:href="#med27110223" x="57.681818" y="183.725592" style="fill: #a5d5ff; stroke: #a5d5ff"/>
     <use xlink:href="#med27110223" x="151.159593" y="167.872227" style="fill: #a5d5ff; stroke: #a5d5ff"/>
     <use xlink:href="#med27110223" x="257.951329" y="149.711962" style="fill: #a5d5ff; stroke: #a5d5ff"/>
     <use xlink:href="#med27110223" x="297.972735" y="143.67868" style="fill: #a5d5ff; stroke: #a5d5ff"/>
     <use xlink:href="#med27110223" x="244.596033" y="152.684697" style="fill: #a5d5ff; stroke: #a5d5ff"/>
     <use xlink:href="#med27110223" x="217.906568" y="156.289848" style="fill: #a5d5ff; stroke: #a5d5ff"/>
    </g>
   </g>
   <g id="PolyCollection_2">
    <defs>
     <path id="m4fdd083ec8" d="M 57.681818 -98.068399 
L 57.681818 -94.983648 
L 71.056966 -100.508214 
L 84.47559 -106.220063 
L 97.854288 -109.93025 
L 111.108533 -114.750233 
L 124.502244 -118.596576 
L 137.821128 -123.090763 
L 151.159593 -127.922695 
L 164.516973 -132.36002 
L 177.84412 -137.202575 
L 191.218183 -141.366966 
L 204.564933 -145.899027 
L 217.906568 -150.633103 
L 231.252118 -154.572104 
L 244.596033 -159.772123 
L 257.951329 -163.986863 
L 271.276721 -168.862541 
L 284.641257 -173.509592 
L 297.972735 -177.970317 
L 311.318182 -182.273256 
L 311.318182 -182.52 
L 311.318182 -182.52 
L 297.972735 -178.209677 
L 284.641257 -173.717071 
L 271.276721 -169.321747 
L 257.951329 -164.79313 
L 244.596033 -160.225874 
L 231.252118 -155.719536 
L 217.906568 -151.453422 
L 204.564933 -146.549085 
L 191.218183 -141.973732 
L 177.84412 -137.492617 
L 164.516973 -133.430674 
L 151.159593 -128.903818 
L 137.821128 -124.383585 
L 124.502244 -119.708742 
L 111.108533 -115.567462 
L 97.854288 -111.154077 
L 84.47559 -106.817711 
L 71.056966 -102.271105 
L 57.681818 -98.068399 
z
" style="stroke: #d81b60; stroke-opacity: 0.25"/>
    </defs>
    <g clip-path="url(#p72afa10857)">
     <use xlink:href="#m4fdd083ec8" x="0" y="216" style="fill: #d81b60; fill-opacity: 0.25; stroke: #d81b60; stroke-opacity: 0.25"/>
    </g>
   </g>
   <g id="PathCollection_2">
    <defs>
     <path id="ma94e245348" d="M 0 1.5 
C 0.397805 1.5 0.77937 1.341951 1.06066 1.06066 
C 1.341951 0.77937 1.5 0.397805 1.5 0 
C 1.5 -0.397805 1.341951 -0.77937 1.06066 -1.06066 
C 0.77937 -1.341951 0.397805 -1.5 0 -1.5 
C -0.397805 -1.5 -0.77937 -1.341951 -1.06066 -1.06066 
C -1.341951 -0.77937 -1.5 -0.397805 -1.5 0 
C -1.5 0.397805 -1.341951 0.77937 -1.06066 1.06066 
C -0.77937 1.341951 -0.397805 1.5 0 1.5 
z
" style="stroke: #ff86b2"/>
    </defs>
    <g clip-path="url(#p72afa10857)">
     <use xlink:href="#ma94e245348" x="284.641257" y="42.294345" style="fill: #ff86b2; stroke: #ff86b2"/>
     <use xlink:href="#ma94e245348" x="164.516973" y="83.091253" style="fill: #ff86b2; stroke: #ff86b2"/>
     <use xlink:href="#ma94e245348" x="244.596033" y="56.923572" style="fill: #ff86b2; stroke: #ff86b2"/>
     <use xlink:href="#ma94e245348" x="271.276721" y="47.073904" style="fill: #ff86b2; stroke: #ff86b2"/>
     <use xlink:href="#ma94e245348" x="257.951329" y="52.099058" style="fill: #ff86b2; stroke: #ff86b2"/>
     <use xlink:href="#ma94e245348" x="204.564933" y="69.972579" style="fill: #ff86b2; stroke: #ff86b2"/>
     <use xlink:href="#ma94e245348" x="151.159593" y="88.435933" style="fill: #ff86b2; stroke: #ff86b2"/>
     <use xlink:href="#ma94e245348" x="271.276721" y="46.937862" style="fill: #ff86b2; stroke: #ff86b2"/>
     <use xlink:href="#ma94e245348" x="231.252118" y="61.067543" style="fill: #ff86b2; stroke: #ff86b2"/>
     <use xlink:href="#ma94e245348" x="271.276721" y="46.619728" style="fill: #ff86b2; stroke: #ff86b2"/>
     <use xlink:href="#ma94e245348" x="97.854288" y="106.100808" style="fill: #ff86b2; stroke: #ff86b2"/>
     <use xlink:href="#ma94e245348" x="191.218183" y="74.722591" style="fill: #ff86b2; stroke: #ff86b2"/>
     <use xlink:href="#ma94e245348" x="71.056966" y="114.771122" style="fill: #ff86b2; stroke: #ff86b2"/>
     <use xlink:href="#ma94e245348" x="97.854288" y="105.63089" style="fill: #ff86b2; stroke: #ff86b2"/>
     <use xlink:href="#ma94e245348" x="311.318182" y="33.923569" style="fill: #ff86b2; stroke: #ff86b2"/>
     <use xlink:href="#ma94e245348" x="164.516973" y="83.102321" style="fill: #ff86b2; stroke: #ff86b2"/>
     <use xlink:href="#ma94e245348" x="217.906568" y="64.880415" style="fill: #ff86b2; stroke: #ff86b2"/>
     <use xlink:href="#ma94e245348" x="297.972735" y="37.742529" style="fill: #ff86b2; stroke: #ff86b2"/>
     <use xlink:href="#ma94e245348" x="71.056966" y="117.504285" style="fill: #ff86b2; stroke: #ff86b2"/>
     <use xlink:href="#ma94e245348" x="204.564933" y="69.279135" style="fill: #ff86b2; stroke: #ff86b2"/>
     <use xlink:href="#ma94e245348" x="137.821128" y="91.657261" style="fill: #ff86b2; stroke: #ff86b2"/>
     <use xlink:href="#ma94e245348" x="271.276721" y="47.39554" style="fill: #ff86b2; stroke: #ff86b2"/>
     <use xlink:href="#ma94e245348" x="204.564933" y="69.767225" style="fill: #ff86b2; stroke: #ff86b2"/>
     <use xlink:href="#ma94e245348" x="151.159593" y="88.074979" style="fill: #ff86b2; stroke: #ff86b2"/>
     <use xlink:href="#ma94e245348" x="311.318182" y="33.590779" style="fill: #ff86b2; stroke: #ff86b2"/>
     <use xlink:href="#ma94e245348" x="57.681818" y="119.629973" style="fill: #ff86b2; stroke: #ff86b2"/>
     <use xlink:href="#ma94e245348" x="217.906568" y="64.4242" style="fill: #ff86b2; stroke: #ff86b2"/>
     <use xlink:href="#ma94e245348" x="271.276721" y="46.300877" style="fill: #ff86b2; stroke: #ff86b2"/>
     <use xlink:href="#ma94e245348" x="191.218183" y="74.508331" style="fill: #ff86b2; stroke: #ff86b2"/>
     <use xlink:href="#ma94e245348" x="97.854288" y="104.418369" style="fill: #ff86b2; stroke: #ff86b2"/>
     <use xlink:href="#ma94e245348" x="244.596033" y="55.943733" style="fill: #ff86b2; stroke: #ff86b2"/>
     <use xlink:href="#ma94e245348" x="271.276721" y="46.87687" style="fill: #ff86b2; stroke: #ff86b2"/>
     <use xlink:href="#ma94e245348" x="57.681818" y="121.637389" style="fill: #ff86b2; stroke: #ff86b2"/>
     <use xlink:href="#ma94e245348" x="57.681818" y="119.68849" style="fill: #ff86b2; stroke: #ff86b2"/>
     <use xlink:href="#ma94e245348" x="124.502244" y="97.30412" style="fill: #ff86b2; stroke: #ff86b2"/>
     <use xlink:href="#ma94e245348" x="137.821128" y="92.856272" style="fill: #ff86b2; stroke: #ff86b2"/>
     <use xlink:href="#ma94e245348" x="311.318182" y="33.678101" style="fill: #ff86b2; stroke: #ff86b2"/>
     <use xlink:href="#ma94e245348" x="297.972735" y="38.359753" style="fill: #ff86b2; stroke: #ff86b2"/>
     <use xlink:href="#ma94e245348" x="97.854288" y="104.684955" style="fill: #ff86b2; stroke: #ff86b2"/>
     <use xlink:href="#ma94e245348" x="204.564933" y="69.027328" style="fill: #ff86b2; stroke: #ff86b2"/>
     <use xlink:href="#ma94e245348" x="84.47559" y="108.499753" style="fill: #ff86b2; stroke: #ff86b2"/>
     <use xlink:href="#ma94e245348" x="124.502244" y="95.875958" style="fill: #ff86b2; stroke: #ff86b2"/>
     <use xlink:href="#ma94e245348" x="244.596033" y="56.185949" style="fill: #ff86b2; stroke: #ff86b2"/>
     <use xlink:href="#ma94e245348" x="124.502244" y="96.299455" style="fill: #ff86b2; stroke: #ff86b2"/>
     <use xlink:href="#ma94e245348" x="124.502244" y="97.176282" style="fill: #ff86b2; stroke: #ff86b2"/>
     <use xlink:href="#ma94e245348" x="151.159593" y="87.141177" style="fill: #ff86b2; stroke: #ff86b2"/>
     <use xlink:href="#ma94e245348" x="84.47559" y="109.235886" style="fill: #ff86b2; stroke: #ff86b2"/>
     <use xlink:href="#ma94e245348" x="297.972735" y="37.999286" style="fill: #ff86b2; stroke: #ff86b2"/>
     <use xlink:href="#ma94e245348" x="177.84412" y="78.703958" style="fill: #ff86b2; stroke: #ff86b2"/>
     <use xlink:href="#ma94e245348" x="111.108533" y="100.735513" style="fill: #ff86b2; stroke: #ff86b2"/>
    </g>
   </g>
   <g id="matplotlib.axis_1">
    <g id="xtick_1">
     <g id="line2d_1">
      <defs>
       <path id="m48e9d263be" d="M 0 0 
L 0 3.5 
" style="stroke: #000000; stroke-width: 0.8"/>
      </defs>
      <g>
       <use xlink:href="#m48e9d263be" x="184.5" y="192.24" style="stroke: #000000; stroke-width: 0.8"/>
      </g>
     </g>
     <g id="text_1">
      <!-- $\mathdefault{10^{3}}$ -->
      <g transform="translate(175.162898 208.925876) scale(0.14 -0.14)">
       <defs>
        <path id="CMR17-31" d="M 1702 4058 
C 1702 4192 1696 4192 1606 4192 
C 1357 3916 979 3827 621 3827 
C 602 3827 570 3827 563 3808 
C 557 3795 557 3782 557 3648 
C 755 3648 1088 3686 1344 3839 
L 1344 461 
C 1344 236 1331 160 781 160 
L 589 160 
L 589 0 
C 896 0 1216 0 1523 0 
C 1830 0 2150 0 2458 0 
L 2458 160 
L 2266 160 
C 1715 160 1702 230 1702 458 
L 1702 4058 
z
" transform="scale(0.015625)"/>
        <path id="CMR17-30" d="M 2688 2025 
C 2688 2416 2682 3080 2413 3591 
C 2176 4039 1798 4198 1466 4198 
C 1158 4198 768 4058 525 3597 
C 269 3118 243 2524 243 2025 
C 243 1661 250 1106 448 619 
C 723 -39 1216 -128 1466 -128 
C 1760 -128 2208 -7 2470 600 
C 2662 1042 2688 1559 2688 2025 
z
M 1466 -26 
C 1056 -26 813 325 723 812 
C 653 1188 653 1738 653 2096 
C 653 2588 653 2997 736 3387 
C 858 3929 1216 4096 1466 4096 
C 1728 4096 2067 3923 2189 3400 
C 2272 3036 2278 2607 2278 2096 
C 2278 1680 2278 1169 2202 792 
C 2067 95 1690 -26 1466 -26 
z
" transform="scale(0.015625)"/>
        <path id="CMR17-33" d="M 1414 2157 
C 1984 2157 2234 1662 2234 1090 
C 2234 320 1824 25 1453 25 
C 1114 25 563 194 390 693 
C 422 680 454 680 486 680 
C 640 680 755 782 755 948 
C 755 1133 614 1216 486 1216 
C 378 1216 211 1165 211 926 
C 211 335 787 -128 1466 -128 
C 2176 -128 2720 430 2720 1085 
C 2720 1707 2208 2157 1600 2227 
C 2086 2328 2554 2756 2554 3329 
C 2554 3820 2048 4179 1472 4179 
C 890 4179 378 3829 378 3329 
C 378 3110 544 3072 627 3072 
C 762 3072 877 3155 877 3321 
C 877 3486 762 3569 627 3569 
C 602 3569 570 3569 544 3557 
C 730 3959 1235 4032 1459 4032 
C 1683 4032 2106 3925 2106 3320 
C 2106 3143 2080 2828 1862 2550 
C 1670 2304 1453 2304 1242 2284 
C 1210 2284 1062 2269 1037 2269 
C 992 2263 966 2257 966 2208 
C 966 2163 973 2157 1101 2157 
L 1414 2157 
z
" transform="scale(0.015625)"/>
       </defs>
       <use xlink:href="#CMR17-31" transform="scale(0.996264)"/>
       <use xlink:href="#CMR17-30" transform="translate(45.690477 0) scale(0.996264)"/>
       <use xlink:href="#CMR17-33" transform="translate(91.380954 36.153639) scale(0.697382)"/>
      </g>
     </g>
    </g>
    <g id="xtick_2">
     <g id="line2d_2">
      <defs>
       <path id="m2b97f85f7f" d="M 0 0 
L 0 2 
" style="stroke: #000000; stroke-width: 0.6"/>
      </defs>
      <g>
       <use xlink:href="#m2b97f85f7f" x="57.681818" y="192.24" style="stroke: #000000; stroke-width: 0.6"/>
      </g>
     </g>
    </g>
    <g id="xtick_3">
     <g id="line2d_3">
      <g>
       <use xlink:href="#m2b97f85f7f" x="89.631077" y="192.24" style="stroke: #000000; stroke-width: 0.6"/>
      </g>
     </g>
    </g>
    <g id="xtick_4">
     <g id="line2d_4">
      <g>
       <use xlink:href="#m2b97f85f7f" x="112.299436" y="192.24" style="stroke: #000000; stroke-width: 0.6"/>
      </g>
     </g>
    </g>
    <g id="xtick_5">
     <g id="line2d_5">
      <g>
       <use xlink:href="#m2b97f85f7f" x="129.882382" y="192.24" style="stroke: #000000; stroke-width: 0.6"/>
      </g>
     </g>
    </g>
    <g id="xtick_6">
     <g id="line2d_6">
      <g>
       <use xlink:href="#m2b97f85f7f" x="144.248695" y="192.24" style="stroke: #000000; stroke-width: 0.6"/>
      </g>
     </g>
    </g>
    <g id="xtick_7">
     <g id="line2d_7">
      <g>
       <use xlink:href="#m2b97f85f7f" x="156.395239" y="192.24" style="stroke: #000000; stroke-width: 0.6"/>
      </g>
     </g>
    </g>
    <g id="xtick_8">
     <g id="line2d_8">
      <g>
       <use xlink:href="#m2b97f85f7f" x="166.917054" y="192.24" style="stroke: #000000; stroke-width: 0.6"/>
      </g>
     </g>
    </g>
    <g id="xtick_9">
     <g id="line2d_9">
      <g>
       <use xlink:href="#m2b97f85f7f" x="176.197953" y="192.24" style="stroke: #000000; stroke-width: 0.6"/>
      </g>
     </g>
    </g>
    <g id="xtick_10">
     <g id="line2d_10">
      <g>
       <use xlink:href="#m2b97f85f7f" x="239.117618" y="192.24" style="stroke: #000000; stroke-width: 0.6"/>
      </g>
     </g>
    </g>
    <g id="xtick_11">
     <g id="line2d_11">
      <g>
       <use xlink:href="#m2b97f85f7f" x="271.066876" y="192.24" style="stroke: #000000; stroke-width: 0.6"/>
      </g>
     </g>
    </g>
    <g id="xtick_12">
     <g id="line2d_12">
      <g>
       <use xlink:href="#m2b97f85f7f" x="293.735236" y="192.24" style="stroke: #000000; stroke-width: 0.6"/>
      </g>
     </g>
    </g>
    <g id="xtick_13">
     <g id="line2d_13">
      <g>
       <use xlink:href="#m2b97f85f7f" x="311.318182" y="192.24" style="stroke: #000000; stroke-width: 0.6"/>
      </g>
     </g>
    </g>
    <g id="text_2">
     <!-- $n_{\mathtt{train}}$ -->
     <g transform="translate(167.609672 225.323781) scale(0.14 -0.14)">
      <defs>
       <path id="CMMI12-6e" d="M 1318 1871 
C 1331 1910 1491 2229 1728 2433 
C 1894 2586 2112 2689 2362 2689 
C 2618 2689 2707 2497 2707 2242 
C 2707 1878 2445 1150 2317 805 
C 2259 651 2227 568 2227 453 
C 2227 166 2426 -64 2733 -64 
C 3328 -64 3552 875 3552 913 
C 3552 945 3526 971 3488 971 
C 3430 971 3424 952 3392 843 
C 3245 319 3002 64 2752 64 
C 2688 64 2586 64 2586 269 
C 2586 429 2656 621 2694 710 
C 2822 1063 3091 1780 3091 2145 
C 3091 2528 2867 2816 2381 2816 
C 1811 2816 1510 2415 1395 2255 
C 1376 2618 1114 2816 832 2816 
C 627 2816 486 2695 378 2478 
C 262 2248 173 1865 173 1839 
C 173 1814 198 1782 243 1782 
C 294 1782 301 1788 339 1935 
C 442 2325 557 2689 813 2689 
C 960 2689 1011 2586 1011 2395 
C 1011 2254 947 2005 902 1807 
L 723 1118 
C 698 996 627 709 595 594 
C 550 428 480 128 480 96 
C 480 6 550 -64 646 -64 
C 723 -64 813 -26 864 70 
C 877 102 934 326 966 453 
L 1107 1028 
L 1318 1871 
z
" transform="scale(0.015625)"/>
       <path id="CMTT12-74" d="M 1382 2381 
L 2419 2381 
C 2509 2381 2675 2381 2675 2567 
C 2675 2752 2509 2752 2419 2752 
L 1382 2752 
L 1382 3285 
C 1382 3402 1382 3552 1178 3552 
C 966 3552 966 3402 966 3285 
L 966 2752 
L 422 2752 
C 333 2752 160 2752 160 2567 
C 160 2381 326 2381 416 2381 
L 966 2381 
L 966 776 
C 966 184 1376 -32 1837 -32 
C 2182 -32 2816 139 2816 790 
C 2816 918 2816 1058 2605 1058 
C 2400 1058 2400 918 2400 785 
C 2394 403 2029 339 1882 339 
C 1382 339 1382 657 1382 809 
L 1382 2381 
z
" transform="scale(0.015625)"/>
       <path id="CMTT12-72" d="M 1382 1212 
C 1382 1976 1920 2432 2464 2432 
C 2496 2432 2534 2432 2566 2425 
C 2586 2185 2765 2165 2810 2165 
C 2957 2165 3059 2275 3059 2418 
C 3059 2698 2790 2803 2470 2803 
C 2042 2803 1677 2607 1382 2241 
L 1382 2491 
C 1382 2688 1344 2752 1126 2752 
L 480 2752 
C 390 2752 224 2752 224 2567 
C 224 2381 390 2381 480 2381 
L 966 2381 
L 966 371 
L 480 371 
C 390 371 224 371 224 186 
C 224 0 390 0 480 0 
L 2054 0 
C 2144 0 2310 0 2310 186 
C 2310 371 2144 371 2054 371 
L 1382 371 
L 1382 1212 
z
" transform="scale(0.015625)"/>
       <path id="CMTT12-61" d="M 2650 1816 
C 2650 2303 2285 2816 1421 2816 
C 1152 2816 531 2816 531 2380 
C 531 2210 653 2115 794 2115 
C 832 2115 1043 2115 1050 2388 
C 1050 2419 1056 2426 1190 2438 
C 1267 2445 1350 2445 1427 2445 
C 1574 2445 1792 2445 2003 2282 
C 2234 2100 2234 1916 2234 1728 
C 1856 1728 1485 1728 1088 1599 
C 768 1489 358 1256 358 816 
C 358 356 762 -32 1357 -32 
C 1562 -32 1958 0 2291 226 
C 2419 0 2739 0 2982 0 
C 3136 0 3290 0 3290 183 
C 3290 365 3123 365 3034 365 
C 2867 365 2739 378 2650 417 
L 2650 1816 
z
M 2234 851 
C 2234 704 2234 569 1971 448 
C 1747 339 1446 339 1427 339 
C 1050 339 774 544 774 806 
C 774 1184 1459 1401 2234 1401 
L 2234 851 
z
" transform="scale(0.015625)"/>
       <path id="CMTT12-69" d="M 1933 3616 
C 1933 3776 1805 3904 1645 3904 
C 1485 3904 1357 3776 1357 3616 
C 1357 3456 1485 3328 1645 3328 
C 1805 3328 1933 3456 1933 3616 
z
M 832 2752 
C 742 2752 576 2752 576 2567 
C 576 2381 742 2381 832 2381 
L 1517 2381 
L 1517 371 
L 787 371 
C 698 371 525 371 525 186 
C 525 0 698 0 787 0 
L 2566 0 
C 2656 0 2822 0 2822 186 
C 2822 371 2656 371 2566 371 
L 1933 371 
L 1933 2491 
C 1933 2688 1894 2752 1677 2752 
L 832 2752 
z
" transform="scale(0.015625)"/>
       <path id="CMTT12-6e" d="M 2675 1879 
C 2675 2507 2381 2803 1856 2803 
C 1421 2803 1139 2560 1030 2438 
C 1030 2666 1030 2752 774 2752 
L 352 2752 
C 262 2752 96 2752 96 2567 
C 96 2381 262 2381 352 2381 
L 614 2381 
L 614 371 
L 352 371 
C 262 371 96 371 96 186 
C 96 0 262 0 352 0 
L 1293 0 
C 1382 0 1549 0 1549 186 
C 1549 371 1382 371 1293 371 
L 1030 371 
L 1030 1533 
C 1030 2155 1466 2432 1811 2432 
C 2182 2432 2259 2219 2259 1854 
L 2259 371 
L 1997 371 
C 1907 371 1741 371 1741 186 
C 1741 0 1907 0 1997 0 
L 2938 0 
C 3027 0 3194 0 3194 186 
C 3194 371 3027 371 2938 371 
L 2675 371 
L 2675 1879 
z
" transform="scale(0.015625)"/>
      </defs>
      <use xlink:href="#CMMI12-6e" transform="scale(0.996264)"/>
      <use xlink:href="#CMTT12-74" transform="translate(58.230047 -14.943915) scale(0.697382)"/>
      <use xlink:href="#CMTT12-72" transform="translate(94.116165 -14.943915) scale(0.697382)"/>
      <use xlink:href="#CMTT12-61" transform="translate(130.002283 -14.943915) scale(0.697382)"/>
      <use xlink:href="#CMTT12-69" transform="translate(165.888401 -14.943915) scale(0.697382)"/>
      <use xlink:href="#CMTT12-6e" transform="translate(201.774519 -14.943915) scale(0.697382)"/>
     </g>
    </g>
   </g>
   <g id="matplotlib.axis_2">
    <g id="ytick_1">
     <g id="line2d_14">
      <defs>
       <path id="mcf6598f8ed" d="M 0 0 
L -3.5 0 
" style="stroke: #000000; stroke-width: 0.8"/>
      </defs>
      <g>
       <use xlink:href="#mcf6598f8ed" x="45" y="161.941724" style="stroke: #000000; stroke-width: 0.8"/>
      </g>
     </g>
     <g id="text_3">
      <!-- $\mathdefault{10^{3}}$ -->
      <g transform="translate(19.325796 166.784662) scale(0.14 -0.14)">
       <use xlink:href="#CMR17-31" transform="scale(0.996264)"/>
       <use xlink:href="#CMR17-30" transform="translate(45.690477 0) scale(0.996264)"/>
       <use xlink:href="#CMR17-33" transform="translate(91.380954 36.153639) scale(0.697382)"/>
      </g>
     </g>
    </g>
    <g id="ytick_2">
     <g id="line2d_15">
      <g>
       <use xlink:href="#mcf6598f8ed" x="45" y="112.904089" style="stroke: #000000; stroke-width: 0.8"/>
      </g>
     </g>
     <g id="text_4">
      <!-- $\mathdefault{10^{5}}$ -->
      <g transform="translate(19.325796 117.747027) scale(0.14 -0.14)">
       <defs>
        <path id="CMR17-35" d="M 730 3692 
C 794 3666 1056 3584 1325 3584 
C 1920 3584 2246 3911 2432 4100 
C 2432 4157 2432 4192 2394 4192 
C 2387 4192 2374 4192 2323 4163 
C 2099 4058 1837 3973 1517 3973 
C 1325 3973 1037 3999 723 4139 
C 653 4171 640 4171 634 4171 
C 602 4171 595 4164 595 4037 
L 595 2203 
C 595 2089 595 2057 659 2057 
C 691 2057 704 2070 736 2114 
C 941 2401 1222 2522 1542 2522 
C 1766 2522 2246 2382 2246 1289 
C 2246 1085 2246 715 2054 421 
C 1894 159 1645 25 1370 25 
C 947 25 518 320 403 814 
C 429 807 480 795 506 795 
C 589 795 749 840 749 1038 
C 749 1210 627 1280 506 1280 
C 358 1280 262 1190 262 1011 
C 262 454 704 -128 1382 -128 
C 2042 -128 2669 440 2669 1264 
C 2669 2030 2170 2624 1549 2624 
C 1222 2624 947 2503 730 2274 
L 730 3692 
z
" transform="scale(0.015625)"/>
       </defs>
       <use xlink:href="#CMR17-31" transform="scale(0.996264)"/>
       <use xlink:href="#CMR17-30" transform="translate(45.690477 0) scale(0.996264)"/>
       <use xlink:href="#CMR17-35" transform="translate(91.380954 36.153639) scale(0.697382)"/>
      </g>
     </g>
    </g>
    <g id="ytick_3">
     <g id="line2d_16">
      <g>
       <use xlink:href="#mcf6598f8ed" x="45" y="63.866454" style="stroke: #000000; stroke-width: 0.8"/>
      </g>
     </g>
     <g id="text_5">
      <!-- $\mathdefault{10^{7}}$ -->
      <g transform="translate(19.325796 68.709392) scale(0.14 -0.14)">
       <defs>
        <path id="CMR17-37" d="M 2886 3941 
L 2886 4081 
L 1382 4081 
C 634 4081 621 4165 595 4288 
L 480 4288 
L 294 3094 
L 410 3094 
C 429 3215 474 3540 550 3661 
C 589 3712 1062 3712 1171 3712 
L 2579 3712 
L 1869 2661 
C 1395 1954 1069 999 1069 165 
C 1069 89 1069 -128 1299 -128 
C 1530 -128 1530 89 1530 171 
L 1530 465 
C 1530 1508 1709 2196 2003 2636 
L 2886 3941 
z
" transform="scale(0.015625)"/>
       </defs>
       <use xlink:href="#CMR17-31" transform="scale(0.996264)"/>
       <use xlink:href="#CMR17-30" transform="translate(45.690477 0) scale(0.996264)"/>
       <use xlink:href="#CMR17-37" transform="translate(91.380954 36.153639) scale(0.697382)"/>
      </g>
     </g>
    </g>
    <g id="text_6">
     <!-- $\|$regression coefficients$\|^2$ -->
     <g transform="translate(11.838872 180.203667) rotate(-90) scale(0.14 -0.14)">
      <defs>
       <path id="CMSY10-6b" d="M 1103 4582 
C 1103 4685 1103 4800 975 4800 
C 847 4800 847 4659 847 4563 
L 847 -1363 
C 847 -1466 847 -1600 975 -1600 
C 1103 -1600 1103 -1485 1103 -1382 
L 1103 4582 
z
M 2351 4563 
C 2351 4666 2351 4800 2223 4800 
C 2095 4800 2095 4685 2095 4582 
L 2095 -1382 
C 2095 -1485 2095 -1600 2223 -1600 
C 2351 -1600 2351 -1459 2351 -1363 
L 2351 4563 
z
" transform="scale(0.015625)"/>
       <path id="CMSS17-72" d="M 954 1363 
C 954 1965 1395 2368 1958 2368 
L 1958 2789 
C 1549 2789 1165 2585 934 2253 
L 934 2758 
L 480 2758 
L 480 0 
L 954 0 
L 954 1363 
z
" transform="scale(0.015625)"/>
       <path id="CMSS17-65" d="M 2502 1377 
C 2502 1590 2490 2003 2285 2345 
C 2061 2713 1696 2816 1421 2816 
C 755 2816 192 2188 192 1375 
C 192 582 774 -64 1510 -64 
C 1798 -64 2150 19 2470 248 
C 2470 274 2458 414 2451 420 
C 2451 433 2432 630 2432 656 
C 2125 407 1773 325 1517 325 
C 1107 325 666 667 646 1377 
L 2502 1377 
z
M 698 1728 
C 781 2084 1062 2421 1421 2421 
C 1517 2421 1965 2421 2080 1728 
L 698 1728 
z
" transform="scale(0.015625)"/>
       <path id="CMSS17-67" d="M 2848 2808 
C 2483 2808 2170 2738 1914 2617 
C 1702 2777 1485 2808 1338 2808 
C 781 2808 358 2349 358 1814 
C 358 1468 550 1207 563 1195 
C 448 1035 384 863 384 672 
C 384 448 474 289 544 200 
C 211 -3 166 -314 166 -435 
C 166 -898 749 -1280 1498 -1280 
C 2253 -1280 2835 -898 2835 -428 
C 2835 448 1856 448 1587 448 
L 1069 448 
C 973 448 717 448 717 791 
C 717 921 774 1004 781 1010 
C 877 940 1075 832 1338 832 
C 1869 832 2310 1278 2310 1827 
C 2310 2132 2170 2355 2112 2432 
L 2131 2432 
C 2150 2432 2419 2432 2515 2432 
C 2720 2432 2739 2429 2918 2419 
L 2848 2808 
z
M 1338 1182 
C 1120 1182 813 1315 813 1823 
C 813 2375 1165 2464 1331 2464 
C 1549 2464 1856 2331 1856 1823 
C 1856 1271 1504 1182 1338 1182 
z
M 1581 -10 
C 1734 -10 2381 -10 2381 -442 
C 2381 -714 1984 -929 1504 -929 
C 1018 -929 621 -720 621 -435 
C 621 -403 621 -10 1062 -10 
L 1581 -10 
z
" transform="scale(0.015625)"/>
       <path id="CMSS17-73" d="M 2061 2627 
C 1683 2807 1389 2807 1197 2807 
C 742 2807 198 2648 198 2003 
C 198 1359 902 1218 1094 1179 
C 1389 1122 1715 1058 1715 740 
C 1715 337 1254 337 1171 337 
C 915 337 563 407 243 638 
L 166 210 
C 531 0 883 -64 1178 -64 
C 1965 -64 2163 416 2163 781 
C 2163 1094 1984 1305 1862 1401 
C 1651 1568 1574 1587 1050 1696 
C 960 1709 646 1779 646 2066 
C 646 2432 1050 2432 1139 2432 
C 1555 2432 1811 2303 1984 2208 
L 2061 2627 
z
" transform="scale(0.015625)"/>
       <path id="CMSS17-69" d="M 979 4183 
L 442 4183 
L 442 3648 
L 979 3648 
L 979 4183 
z
M 947 2739 
L 474 2739 
L 474 0 
L 947 0 
L 947 2739 
z
" transform="scale(0.015625)"/>
       <path id="CMSS17-6f" d="M 2829 1356 
C 2829 2176 2221 2816 1504 2816 
C 768 2816 173 2157 173 1356 
C 173 544 787 -64 1498 -64 
C 2227 -64 2829 563 2829 1356 
z
M 1504 337 
C 1050 337 659 709 659 1408 
C 659 2151 1114 2427 1498 2427 
C 1914 2427 2342 2126 2342 1408 
C 2342 683 1926 337 1504 337 
z
" transform="scale(0.015625)"/>
       <path id="CMSS17-6e" d="M 2618 1877 
C 2618 2283 2522 2816 1798 2816 
C 1389 2816 1120 2606 941 2389 
L 941 2758 
L 474 2758 
L 474 0 
L 960 0 
L 960 1559 
C 960 1964 1114 2428 1549 2428 
C 2112 2428 2131 2048 2131 1829 
L 2131 0 
L 2618 0 
L 2618 1877 
z
" transform="scale(0.015625)"/>
       <path id="CMSS17-63" d="M 2464 2541 
C 2464 2585 2170 2714 2093 2739 
C 1882 2816 1613 2816 1542 2816 
C 710 2816 211 2093 211 1363 
C 211 595 768 -64 1517 -64 
C 1946 -64 2253 76 2502 242 
L 2464 664 
C 2189 453 1869 337 1523 337 
C 1024 337 698 774 698 1369 
C 698 1831 909 2414 1549 2414 
C 1901 2414 2099 2343 2394 2145 
L 2464 2541 
z
" transform="scale(0.015625)"/>
       <path id="CMSS17-e" d="M 4422 4416 
L 3910 4416 
L 3910 3906 
L 4422 3906 
L 4422 4416 
z
M 4403 2737 
L 3930 2737 
L 3930 0 
L 4403 0 
L 4403 2737 
z
M 2739 2368 
L 3437 2368 
L 3437 2737 
L 2726 2737 
L 2726 3578 
C 2726 3919 2880 4092 3085 4092 
C 3226 4092 3360 4042 3437 3992 
L 3437 4416 
C 3322 4461 3270 4480 3085 4480 
C 2605 4480 2266 3995 2266 3376 
L 2266 0 
L 2739 0 
L 2739 2368 
z
M 1075 2368 
L 1773 2368 
L 1773 2737 
L 1062 2737 
L 1062 3565 
C 1062 3995 1325 4092 1510 4092 
C 1619 4092 1773 4070 1920 3999 
L 1920 4410 
C 1754 4480 1728 4480 1510 4480 
C 986 4480 602 3999 602 3366 
L 602 2737 
L 160 2737 
L 160 2368 
L 602 2368 
L 602 0 
L 1075 0 
L 1075 2368 
z
" transform="scale(0.015625)"/>
       <path id="CMSS17-74" d="M 1069 2368 
L 1901 2368 
L 1901 2737 
L 1069 2737 
L 1069 3520 
L 614 3520 
L 614 2737 
L 109 2737 
L 109 2368 
L 602 2368 
L 602 749 
C 602 384 685 -64 1107 -64 
C 1427 -64 1722 25 2003 172 
L 1901 548 
C 1747 414 1562 337 1363 337 
C 1082 337 1069 696 1069 856 
L 1069 2368 
z
" transform="scale(0.015625)"/>
       <path id="CMR17-32" d="M 2669 989 
L 2554 989 
C 2490 536 2438 459 2413 420 
C 2381 369 1920 369 1830 369 
L 602 369 
C 832 619 1280 1072 1824 1597 
C 2214 1967 2669 2402 2669 3035 
C 2669 3790 2067 4224 1395 4224 
C 691 4224 262 3604 262 3030 
C 262 2780 448 2748 525 2748 
C 589 2748 781 2787 781 3010 
C 781 3207 614 3264 525 3264 
C 486 3264 448 3258 422 3245 
C 544 3790 915 4058 1306 4058 
C 1862 4058 2227 3617 2227 3035 
C 2227 2479 1901 2000 1536 1584 
L 262 146 
L 262 0 
L 2515 0 
L 2669 989 
z
" transform="scale(0.015625)"/>
      </defs>
      <use xlink:href="#CMSY10-6b" transform="scale(0.996264)"/>
      <use xlink:href="#CMSS17-72" transform="translate(49.813383 0) scale(0.996264)"/>
      <use xlink:href="#CMSS17-65" transform="translate(81.723155 0) scale(0.996264)"/>
      <use xlink:href="#CMSS17-67" transform="translate(123.361978 0) scale(0.996264)"/>
      <use xlink:href="#CMSS17-72" transform="translate(170.205601 0) scale(0.996264)"/>
      <use xlink:href="#CMSS17-65" transform="translate(202.115374 0) scale(0.996264)"/>
      <use xlink:href="#CMSS17-73" transform="translate(243.754196 0) scale(0.996264)"/>
      <use xlink:href="#CMSS17-73" transform="translate(279.667738 0) scale(0.996264)"/>
      <use xlink:href="#CMSS17-69" transform="translate(315.58128 0) scale(0.996264)"/>
      <use xlink:href="#CMSS17-6f" transform="translate(337.762003 0) scale(0.996264)"/>
      <use xlink:href="#CMSS17-6e" transform="translate(384.605626 0) scale(0.996264)"/>
      <use xlink:href="#CMSS17-63" transform="translate(464.039682 0) scale(0.996264)"/>
      <use xlink:href="#CMSS17-6f" transform="translate(505.678504 0) scale(0.996264)"/>
      <use xlink:href="#CMSS17-65" transform="translate(555.124566 0) scale(0.996264)"/>
      <use xlink:href="#CMSS17-e" transform="translate(596.763389 0) scale(0.996264)"/>
      <use xlink:href="#CMSS17-63" transform="translate(672.914331 0) scale(0.996264)"/>
      <use xlink:href="#CMSS17-69" transform="translate(714.553153 0) scale(0.996264)"/>
      <use xlink:href="#CMSS17-65" transform="translate(736.733876 0) scale(0.996264)"/>
      <use xlink:href="#CMSS17-6e" transform="translate(778.372698 0) scale(0.996264)"/>
      <use xlink:href="#CMSS17-74" transform="translate(826.577641 0) scale(0.996264)"/>
      <use xlink:href="#CMSS17-73" transform="translate(860.409208 0) scale(0.996264)"/>
      <use xlink:href="#CMSY10-6b" transform="translate(896.32275 0) scale(0.996264)"/>
      <use xlink:href="#CMR17-32" transform="translate(946.136133 36.153639) scale(0.697382)"/>
     </g>
    </g>
   </g>
   <g id="line2d_17">
    <path d="M 57.681818 183.944603 
L 89.093214 178.659211 
L 111.491259 174.890437 
L 128.91157 171.959235 
L 143.169273 169.560184 
L 155.238147 167.529432 
L 165.701659 165.768805 
L 174.937181 164.214804 
L 183.202908 162.823984 
L 190.683294 161.565308 
L 197.514709 160.41583 
L 203.800823 159.358106 
L 209.622293 158.378565 
L 215.043105 157.46644 
L 220.114876 156.613046 
L 224.879848 155.811275 
L 229.373031 155.055237 
L 233.623764 154.339993 
L 237.656878 153.661368 
L 241.493574 153.015792 
L 245.152099 152.400195 
L 248.648268 151.811918 
L 251.995883 151.248636 
L 255.207053 150.708314 
L 258.292468 150.189151 
L 261.261606 149.689553 
L 264.122916 149.208099 
L 266.883954 148.743517 
L 269.551511 148.294665 
L 272.131711 147.860511 
L 274.630094 147.440124 
L 277.05169 147.032658 
L 279.401079 146.637342 
L 281.682441 146.253472 
L 283.899607 145.880404 
L 286.05609 145.517546 
L 288.155124 145.164355 
L 290.19969 144.82033 
L 292.192544 144.485005 
L 294.136237 144.157952 
L 296.033137 143.838773 
L 297.885443 143.527098 
L 299.695205 143.222581 
L 301.464332 142.924901 
L 303.19461 142.633759 
L 304.887708 142.348872 
L 306.54519 142.069978 
L 308.168524 141.796831 
L 309.759089 141.529196 
L 311.318182 141.266858 
" clip-path="url(#p72afa10857)" style="fill: none; stroke-dasharray: 1.5,2.475; stroke-dashoffset: 0; stroke: #1e88e5; stroke-width: 1.5"/>
   </g>
   <g id="line2d_18">
    <path d="M 57.681818 119.183535 
L 89.093214 108.581989 
L 111.491259 101.022507 
L 128.91157 95.143041 
L 143.169273 90.330976 
L 155.238147 86.257654 
L 165.701659 82.726153 
L 174.937181 79.609105 
L 183.202908 76.81937 
L 190.683294 74.294692 
L 197.514709 71.989046 
L 203.800823 69.867443 
L 209.622293 67.90266 
L 215.043105 66.073101 
L 220.114876 64.361346 
L 224.879848 62.753138 
L 229.373031 61.23666 
L 233.623764 59.802011 
L 237.656878 58.440809 
L 241.493574 57.1459 
L 245.152099 55.911125 
L 248.648268 54.731145 
L 251.995883 53.601304 
L 255.207053 52.517514 
L 258.292468 51.476167 
L 261.261606 50.474064 
L 264.122916 49.508354 
L 266.883954 48.576486 
L 269.551511 47.676168 
L 272.131711 46.805334 
L 274.630094 45.962114 
L 277.05169 45.14481 
L 279.401079 44.351877 
L 281.682441 43.581902 
L 283.899607 42.833595 
L 286.05609 42.105768 
L 288.155124 41.397331 
L 290.19969 40.707277 
L 292.192544 40.034676 
L 294.136237 39.378667 
L 296.033137 38.738451 
L 297.885443 38.113286 
L 299.695205 37.50248 
L 301.464332 36.905389 
L 303.19461 36.321409 
L 304.887708 35.749978 
L 306.54519 35.190567 
L 308.168524 34.642681 
L 309.759089 34.105855 
L 311.318182 33.579652 
" clip-path="url(#p72afa10857)" style="fill: none; stroke-dasharray: 1.5,2.475; stroke-dashoffset: 0; stroke: #d81b60; stroke-width: 1.5"/>
   </g>
   <g id="patch_3">
    <path d="M 45 192.24 
L 45 25.92 
" style="fill: none; stroke: #000000; stroke-width: 0.8; stroke-linejoin: miter; stroke-linecap: square"/>
   </g>
   <g id="patch_4">
    <path d="M 324 192.24 
L 324 25.92 
" style="fill: none; stroke: #000000; stroke-width: 0.8; stroke-linejoin: miter; stroke-linecap: square"/>
   </g>
   <g id="patch_5">
    <path d="M 45 192.24 
L 324 192.24 
" style="fill: none; stroke: #000000; stroke-width: 0.8; stroke-linejoin: miter; stroke-linecap: square"/>
   </g>
   <g id="patch_6">
    <path d="M 45 25.92 
L 324 25.92 
" style="fill: none; stroke: #000000; stroke-width: 0.8; stroke-linejoin: miter; stroke-linecap: square"/>
   </g>
   <g id="text_7">
    <!-- $\|\underline{\beta}_{\tau}\|^2 \propto(n_{\mathtt{train}})^{1.25}$ -->
    <g transform="translate(98.247681 160.476074) scale(0.14 -0.14)">
     <defs>
      <path id="CMMI12-c" d="M 3622 3701 
C 3622 4081 3296 4480 2714 4480 
C 1888 4480 1363 3477 1197 2816 
L 186 -1172 
C 173 -1223 211 -1236 243 -1236 
C 288 -1236 320 -1230 326 -1198 
L 774 586 
C 838 229 1190 -64 1568 -64 
C 2483 -64 3347 650 3347 1599 
C 3347 1841 3290 2083 3155 2287 
C 3078 2408 2982 2497 2880 2574 
C 3341 2815 3622 3200 3622 3701 
z
M 2509 2580 
C 2406 2542 2304 2529 2182 2529 
C 2093 2529 2010 2523 1894 2561 
C 1958 2606 2054 2618 2189 2618 
C 2304 2618 2419 2606 2509 2580 
z
M 3290 3758 
C 3290 3410 3117 2903 2701 2669 
C 2579 2718 2413 2752 2272 2752 
C 2138 2752 1754 2752 1754 2555 
C 1754 2389 2106 2389 2214 2389 
C 2381 2389 2528 2432 2682 2484 
C 2886 2318 2976 2101 2976 1783 
C 2976 1413 2874 1115 2752 841 
C 2541 369 2042 64 1600 64 
C 1133 64 890 432 890 864 
C 890 922 890 1005 915 1099 
L 1331 2771 
C 1542 3603 2080 4353 2701 4353 
C 3162 4353 3290 4036 3290 3758 
z
" transform="scale(0.015625)"/>
      <path id="CMMI12-1c" d="M 1837 2408 
L 2899 2408 
C 2982 2408 3194 2408 3194 2612 
C 3194 2752 3072 2752 2957 2752 
L 1197 2752 
C 1050 2752 832 2752 538 2440 
C 371 2255 166 1917 166 1879 
C 166 1841 198 1828 237 1828 
C 282 1828 288 1847 320 1885 
C 653 2408 986 2408 1146 2408 
L 1677 2408 
L 1011 223 
C 979 127 979 114 979 95 
C 979 25 1024 -64 1152 -64 
C 1350 -64 1382 108 1402 203 
L 1837 2408 
z
" transform="scale(0.015625)"/>
      <path id="CMSY10-2f" d="M 4621 205 
C 4595 205 4493 192 4474 192 
C 3968 192 3629 691 3411 1024 
C 3347 1133 3174 1395 3104 1504 
C 3258 1850 3686 2643 4448 2643 
C 4493 2643 4550 2643 4621 2624 
C 4621 2790 4614 2797 4602 2810 
C 4557 2822 4461 2829 4403 2829 
C 3590 2829 3117 2048 2963 1728 
C 2707 2118 2618 2259 2381 2458 
C 1990 2797 1638 2829 1478 2829 
C 768 2829 358 2112 358 1376 
C 358 659 755 -70 1459 -70 
C 2272 -70 2746 710 2899 1030 
C 3155 640 3245 499 3482 301 
C 3872 -38 4224 -70 4384 -70 
C 4461 -70 4563 -58 4621 -44 
L 4621 205 
z
M 2758 1254 
C 2605 909 2176 115 1414 115 
C 794 115 499 794 499 1376 
C 499 2010 858 2566 1389 2566 
C 1894 2566 2234 2067 2451 1734 
C 2515 1626 2688 1363 2758 1254 
z
" transform="scale(0.015625)"/>
      <path id="CMR17-28" d="M 1958 -1561 
C 1958 -1555 1958 -1542 1939 -1523 
C 1645 -1224 858 -407 858 1581 
C 858 3569 1632 4379 1946 4697 
C 1946 4704 1958 4717 1958 4736 
C 1958 4755 1939 4768 1914 4768 
C 1843 4768 1299 4296 986 3594 
C 666 2887 576 2199 576 1588 
C 576 1128 621 351 1005 -471 
C 1312 -1135 1837 -1600 1914 -1600 
C 1946 -1600 1958 -1587 1958 -1561 
z
" transform="scale(0.015625)"/>
      <path id="CMR17-29" d="M 1683 1581 
C 1683 2040 1638 2817 1254 3639 
C 947 4303 422 4768 346 4768 
C 326 4768 301 4761 301 4729 
C 301 4717 307 4710 314 4697 
C 621 4378 1402 3568 1402 1584 
C 1402 -407 627 -1217 314 -1537 
C 307 -1549 301 -1556 301 -1568 
C 301 -1600 326 -1600 346 -1600 
C 416 -1600 960 -1128 1274 -426 
C 1594 281 1683 969 1683 1581 
z
" transform="scale(0.015625)"/>
      <path id="CMMI12-3a" d="M 1178 307 
C 1178 492 1024 619 870 619 
C 685 619 557 466 557 313 
C 557 128 710 0 864 0 
C 1050 0 1178 153 1178 307 
z
" transform="scale(0.015625)"/>
     </defs>
     <use xlink:href="#CMSY10-6b" transform="scale(0.996264)"/>
     <use xlink:href="#CMMI12-c" transform="translate(49.813383 0) scale(0.996264)"/>
     <use xlink:href="#CMMI12-1c" transform="translate(110.407399 -42.783379) scale(0.697382)"/>
     <use xlink:href="#CMSY10-6b" transform="translate(148.349178 0) scale(0.996264)"/>
     <use xlink:href="#CMR17-32" transform="translate(198.162561 36.153639) scale(0.697382)"/>
     <use xlink:href="#CMSY10-2f" transform="translate(258.317883 0) scale(0.996264)"/>
     <use xlink:href="#CMR17-28" transform="translate(363.47936 0) scale(0.996264)"/>
     <use xlink:href="#CMMI12-6e" transform="translate(398.760127 0) scale(0.996264)"/>
     <use xlink:href="#CMTT12-74" transform="translate(456.990175 -14.943915) scale(0.697382)"/>
     <use xlink:href="#CMTT12-72" transform="translate(492.876293 -14.943915) scale(0.697382)"/>
     <use xlink:href="#CMTT12-61" transform="translate(528.762411 -14.943915) scale(0.697382)"/>
     <use xlink:href="#CMTT12-69" transform="translate(564.648529 -14.943915) scale(0.697382)"/>
     <use xlink:href="#CMTT12-6e" transform="translate(600.534647 -14.943915) scale(0.697382)"/>
     <use xlink:href="#CMR17-29" transform="translate(636.918897 0) scale(0.996264)"/>
     <use xlink:href="#CMR17-31" transform="translate(672.199664 36.153639) scale(0.697382)"/>
     <use xlink:href="#CMMI12-3a" transform="translate(704.182846 36.153639) scale(0.697382)"/>
     <use xlink:href="#CMR17-32" transform="translate(723.150779 36.153639) scale(0.697382)"/>
     <use xlink:href="#CMR17-35" transform="translate(755.133961 36.153639) scale(0.697382)"/>
     <path d="M 49.813383 -35.311521 
L 110.407399 -35.311521 
L 110.407399 -31.326571 
L 49.813383 -31.326571 
L 49.813383 -35.311521 
z
"/>
    </g>
   </g>
   <g id="text_8">
    <!-- $\|\underline{\beta}_{\tau}\|^2 \propto(n_{\mathtt{train}})^{2.5}$ -->
    <g transform="translate(98.247681 73.806408) scale(0.14 -0.14)">
     <use xlink:href="#CMSY10-6b" transform="scale(0.996264)"/>
     <use xlink:href="#CMMI12-c" transform="translate(49.813383 0) scale(0.996264)"/>
     <use xlink:href="#CMMI12-1c" transform="translate(110.407399 -42.783379) scale(0.697382)"/>
     <use xlink:href="#CMSY10-6b" transform="translate(148.349178 0) scale(0.996264)"/>
     <use xlink:href="#CMR17-32" transform="translate(198.162561 36.153639) scale(0.697382)"/>
     <use xlink:href="#CMSY10-2f" transform="translate(258.317883 0) scale(0.996264)"/>
     <use xlink:href="#CMR17-28" transform="translate(363.47936 0) scale(0.996264)"/>
     <use xlink:href="#CMMI12-6e" transform="translate(398.760127 0) scale(0.996264)"/>
     <use xlink:href="#CMTT12-74" transform="translate(456.990175 -14.943915) scale(0.697382)"/>
     <use xlink:href="#CMTT12-72" transform="translate(492.876293 -14.943915) scale(0.697382)"/>
     <use xlink:href="#CMTT12-61" transform="translate(528.762411 -14.943915) scale(0.697382)"/>
     <use xlink:href="#CMTT12-69" transform="translate(564.648529 -14.943915) scale(0.697382)"/>
     <use xlink:href="#CMTT12-6e" transform="translate(600.534647 -14.943915) scale(0.697382)"/>
     <use xlink:href="#CMR17-29" transform="translate(636.918897 0) scale(0.996264)"/>
     <use xlink:href="#CMR17-32" transform="translate(672.199664 36.153639) scale(0.697382)"/>
     <use xlink:href="#CMMI12-3a" transform="translate(704.182846 36.153639) scale(0.697382)"/>
     <use xlink:href="#CMR17-35" transform="translate(723.150779 36.153639) scale(0.697382)"/>
     <path d="M 49.813383 -35.311521 
L 110.407399 -35.311521 
L 110.407399 -31.326571 
L 49.813383 -31.326571 
L 49.813383 -35.311521 
z
"/>
    </g>
   </g>
   <g id="text_9">
    <!-- Norm vs $n_{\mathtt{train}}$ -->
    <g transform="translate(133.001667 19.92) scale(0.168 -0.168)">
     <defs>
      <path id="CMSS17-4e" d="M 1466 4180 
L 1350 4416 
L 563 4416 
L 563 0 
L 1062 0 
L 1062 3926 
L 1069 3932 
C 1114 3817 1139 3760 1402 3194 
L 2771 236 
L 2886 0 
L 3674 0 
L 3674 4416 
L 3174 4416 
L 3174 490 
L 3168 483 
C 3123 598 3098 655 2835 1221 
L 1466 4180 
z
" transform="scale(0.015625)"/>
      <path id="CMSS17-6d" d="M 4288 1877 
C 4288 2308 4179 2816 3462 2816 
C 2982 2816 2694 2516 2566 2331 
C 2451 2670 2182 2816 1798 2816 
C 1363 2816 1088 2568 941 2389 
L 941 2758 
L 474 2758 
L 474 0 
L 960 0 
L 960 1559 
C 960 1939 1101 2428 1555 2428 
C 2138 2428 2138 2016 2138 1829 
L 2138 0 
L 2624 0 
L 2624 1559 
C 2624 1939 2765 2428 3219 2428 
C 3802 2428 3802 2016 3802 1829 
L 3802 0 
L 4288 0 
L 4288 1877 
z
" transform="scale(0.015625)"/>
      <path id="CMSS17-76" d="M 2675 2752 
L 2176 2752 
L 1747 1556 
C 1613 1165 1421 627 1389 352 
L 1382 352 
C 1370 468 1318 634 1286 749 
C 1248 890 1197 1056 1158 1172 
L 595 2752 
L 83 2752 
L 1094 0 
L 1664 0 
L 2675 2752 
z
" transform="scale(0.015625)"/>
     </defs>
     <use xlink:href="#CMSS17-4e" transform="scale(0.996264)"/>
     <use xlink:href="#CMSS17-6f" transform="translate(66.061519 0) scale(0.996264)"/>
     <use xlink:href="#CMSS17-72" transform="translate(110.302689 0) scale(0.996264)"/>
     <use xlink:href="#CMSS17-6d" transform="translate(142.212461 0) scale(0.996264)"/>
     <use xlink:href="#CMSS17-76" transform="translate(247.670829 0) scale(0.996264)"/>
     <use xlink:href="#CMSS17-73" transform="translate(290.67097 0) scale(0.996264)"/>
     <use xlink:href="#CMMI12-6e" transform="translate(357.813625 0) scale(0.996264)"/>
     <use xlink:href="#CMTT12-74" transform="translate(416.043672 -14.943915) scale(0.697382)"/>
     <use xlink:href="#CMTT12-72" transform="translate(451.92979 -14.943915) scale(0.697382)"/>
     <use xlink:href="#CMTT12-61" transform="translate(487.815908 -14.943915) scale(0.697382)"/>
     <use xlink:href="#CMTT12-69" transform="translate(523.702026 -14.943915) scale(0.697382)"/>
     <use xlink:href="#CMTT12-6e" transform="translate(559.588144 -14.943915) scale(0.697382)"/>
    </g>
   </g>
   <g id="legend_1">
    <g id="patch_7">
     <path d="M 54.8 58.067696 
L 191.816794 58.067696 
Q 194.616794 58.067696 194.616794 55.267696 
L 194.616794 35.72 
Q 194.616794 32.92 191.816794 32.92 
L 54.8 32.92 
Q 52 32.92 52 35.72 
L 52 55.267696 
Q 52 58.067696 54.8 58.067696 
z
" style="fill: #ffffff; opacity: 0.8; stroke: #cccccc; stroke-linejoin: miter"/>
    </g>
    <g id="line2d_19">
     <path d="M 57.6 44.080772 
L 71.6 44.080772 
L 85.6 44.080772 
" style="fill: none; stroke-dasharray: 1.5,2.475; stroke-dashoffset: 0; stroke: #d81b60; stroke-width: 1.5"/>
    </g>
    <g id="text_10">
     <!-- LSq fit (log-log) -->
     <g transform="translate(96.8 48.980772) scale(0.14 -0.14)">
      <defs>
       <path id="CMSS17-4c" d="M 1670 414 
C 1594 414 1517 414 1440 414 
L 1101 414 
L 1101 4416 
L 563 4416 
L 563 0 
L 3002 0 
L 3002 414 
L 1670 414 
z
" transform="scale(0.015625)"/>
       <path id="CMSS17-53" d="M 2797 4169 
C 2515 4334 2208 4480 1690 4480 
C 864 4480 333 3879 333 3266 
C 333 3025 403 2753 653 2475 
C 902 2196 1184 2121 1542 2033 
C 1690 1994 1939 1924 1984 1906 
C 2342 1767 2515 1444 2515 1140 
C 2515 742 2202 318 1645 318 
C 1453 318 890 318 358 819 
L 269 318 
C 794 -64 1363 -128 1651 -128 
C 2438 -128 3002 488 3002 1186 
C 3002 1440 2925 1763 2656 2061 
C 2394 2347 2163 2410 1638 2549 
C 1338 2626 1146 2677 986 2873 
C 877 3013 819 3146 819 3317 
C 819 3673 1126 4060 1690 4060 
C 1971 4060 2336 4002 2707 3660 
L 2797 4169 
z
" transform="scale(0.015625)"/>
       <path id="CMSS17-71" d="M 2611 2816 
L 2138 2816 
L 2138 2428 
C 2112 2460 1818 2816 1318 2816 
C 736 2816 211 2228 211 1399 
C 211 633 653 -5 1229 -5 
C 1498 -5 1837 91 2125 365 
L 2125 -1216 
L 2611 -1216 
L 2611 2816 
z
M 2138 914 
C 2138 832 2138 718 1939 554 
C 1888 510 1747 384 1504 384 
C 1050 384 698 850 698 1399 
C 698 2011 1126 2415 1562 2415 
C 1926 2415 2138 2061 2138 1797 
L 2138 914 
z
" transform="scale(0.015625)"/>
       <path id="CMSS17-c" d="M 2752 4416 
L 2240 4416 
L 2240 3906 
L 2752 3906 
L 2752 4416 
z
M 2733 2737 
L 2259 2737 
L 2259 0 
L 2733 0 
L 2733 2737 
z
M 1075 2368 
L 1773 2368 
L 1773 2737 
L 1062 2737 
L 1062 3578 
C 1062 3919 1216 4092 1421 4092 
C 1542 4092 1664 4056 1773 3992 
L 1773 4410 
C 1722 4428 1574 4480 1421 4480 
C 941 4480 602 3993 602 3372 
L 602 2737 
L 160 2737 
L 160 2368 
L 602 2368 
L 602 0 
L 1075 0 
L 1075 2368 
z
" transform="scale(0.015625)"/>
       <path id="CMSS17-28" d="M 1613 4768 
C 1267 4417 474 3601 474 1588 
C 474 -433 1267 -1243 1613 -1600 
L 2003 -1600 
C 1216 -784 960 357 960 1581 
C 960 2798 1203 3946 2003 4768 
L 1613 4768 
z
" transform="scale(0.015625)"/>
       <path id="CMSS17-6c" d="M 947 4416 
L 474 4416 
L 474 0 
L 947 0 
L 947 4416 
z
" transform="scale(0.015625)"/>
       <path id="CMSS17-2d" d="M 1664 1216 
L 1664 1585 
L 64 1585 
L 64 1216 
L 1664 1216 
z
" transform="scale(0.015625)"/>
       <path id="CMSS17-29" d="M 723 -1600 
C 1069 -1249 1862 -433 1862 1581 
C 1862 3601 1069 4411 723 4768 
L 333 4768 
C 1120 3952 1376 2811 1376 1588 
C 1376 370 1133 -778 333 -1600 
L 723 -1600 
z
" transform="scale(0.015625)"/>
      </defs>
      <use xlink:href="#CMSS17-4c" transform="scale(0.996264)"/>
      <use xlink:href="#CMSS17-53" transform="translate(50.687105 0) scale(0.996264)"/>
      <use xlink:href="#CMSS17-71" transform="translate(102.735622 0) scale(0.996264)"/>
      <use xlink:href="#CMSS17-c" transform="translate(182.169677 0) scale(0.996264)"/>
      <use xlink:href="#CMSS17-74" transform="translate(232.296415 0) scale(0.996264)"/>
      <use xlink:href="#CMSS17-28" transform="translate(297.357094 0) scale(0.996264)"/>
      <use xlink:href="#CMSS17-6c" transform="translate(333.791008 0) scale(0.996264)"/>
      <use xlink:href="#CMSS17-6f" transform="translate(355.971731 0) scale(0.996264)"/>
      <use xlink:href="#CMSS17-67" transform="translate(402.815355 0) scale(0.996264)"/>
      <use xlink:href="#CMSS17-2d" transform="translate(449.658978 0) scale(0.996264)"/>
      <use xlink:href="#CMSS17-6c" transform="translate(480.888091 0) scale(0.996264)"/>
      <use xlink:href="#CMSS17-6f" transform="translate(503.068814 0) scale(0.996264)"/>
      <use xlink:href="#CMSS17-67" transform="translate(549.912438 0) scale(0.996264)"/>
      <use xlink:href="#CMSS17-29" transform="translate(596.756061 0) scale(0.996264)"/>
     </g>
    </g>
   </g>
  </g>
 </g>
 <defs>
  <clipPath id="p72afa10857">
   <rect x="45" y="25.92" width="279" height="166.32"/>
  </clipPath>
 </defs>
</svg>
