<?xml version="1.0" encoding="utf-8" standalone="no"?>
<!DOCTYPE svg PUBLIC "-//W3C//DTD SVG 1.1//EN"
  "http://www.w3.org/Graphics/SVG/1.1/DTD/svg11.dtd">
<svg xmlns:xlink="http://www.w3.org/1999/xlink" width="360pt" height="216pt" viewBox="0 0 360 216" xmlns="http://www.w3.org/2000/svg" version="1.1">
 <metadata>
  <rdf:RDF xmlns:dc="http://purl.org/dc/elements/1.1/" xmlns:cc="http://creativecommons.org/ns#" xmlns:rdf="http://www.w3.org/1999/02/22-rdf-syntax-ns#">
   <cc:Work>
    <dc:type rdf:resource="http://purl.org/dc/dcmitype/StillImage"/>
    <dc:date>2023-10-08T16:45:00.708045</dc:date>
    <dc:format>image/svg+xml</dc:format>
    <dc:creator>
     <cc:Agent>
      <dc:title>Matplotlib v3.7.2, https://matplotlib.org/</dc:title>
     </cc:Agent>
    </dc:creator>
   </cc:Work>
  </rdf:RDF>
 </metadata>
 <defs>
  <style type="text/css">*{stroke-linejoin: round; stroke-linecap: butt}</style>
 </defs>
 <g id="figure_1">
  <g id="patch_1">
   <path d="M 0 216 
L 360 216 
L 360 0 
L 0 0 
z
" style="fill: #ffffff"/>
  </g>
  <g id="axes_1">
   <g id="patch_2">
    <path d="M 45 192.24 
L 324 192.24 
L 324 25.92 
L 45 25.92 
z
" style="fill: #ffffff"/>
   </g>
   <g id="PolyCollection_1">
    <defs>
     <path id="mea012edd55" d="M 70.363636 -106.20588 
L 70.363636 -85.92556 
L 83.045455 -106.85407 
L 95.727273 -110.670052 
L 108.409091 -85.103709 
L 121.090909 -73.736454 
L 133.772727 -70.146605 
L 146.454545 -64.106885 
L 159.136364 -58.851651 
L 171.818182 -58.903846 
L 184.5 -46.420066 
L 197.181818 -45.44092 
L 209.863636 -49.847432 
L 222.545455 -41.530165 
L 235.227273 -36.345038 
L 247.909091 -43.486096 
L 260.590909 -39.059606 
L 273.272727 -37.807642 
L 285.954545 -40.130135 
L 298.636364 -46.86223 
L 311.318182 -38.302182 
L 311.318182 -43.024036 
L 311.318182 -43.024036 
L 298.636364 -54.865197 
L 285.954545 -53.019513 
L 273.272727 -54.459334 
L 260.590909 -53.783264 
L 247.909091 -57.040375 
L 235.227273 -49.070659 
L 222.545455 -56.079234 
L 209.863636 -57.626046 
L 197.181818 -60.78888 
L 184.5 -69.068351 
L 171.818182 -67.944258 
L 159.136364 -72.818185 
L 146.454545 -73.895277 
L 133.772727 -89.964465 
L 121.090909 -96.906687 
L 108.409091 -102.384971 
L 95.727273 -132.281467 
L 83.045455 -116.192398 
L 70.363636 -106.20588 
z
" style="stroke: #1e88e5; stroke-opacity: 0.25"/>
    </defs>
    <g clip-path="url(#p9e96d329a3)">
     <use xlink:href="#mea012edd55" x="0" y="216" style="fill: #1e88e5; fill-opacity: 0.25; stroke: #1e88e5; stroke-opacity: 0.25"/>
    </g>
   </g>
   <g id="PathCollection_1">
    <defs>
     <path id="md30a0c4ba5" d="M 0 1.5 
C 0.397805 1.5 0.77937 1.341951 1.06066 1.06066 
C 1.341951 0.77937 1.5 0.397805 1.5 0 
C 1.5 -0.397805 1.341951 -0.77937 1.06066 -1.06066 
C 0.77937 -1.341951 0.397805 -1.5 0 -1.5 
C -0.397805 -1.5 -0.77937 -1.341951 -1.06066 -1.06066 
C -1.341951 -0.77937 -1.5 -0.397805 -1.5 0 
C -1.5 0.397805 -1.341951 0.77937 -1.06066 1.06066 
C -0.77937 1.341951 -0.397805 1.5 0 1.5 
z
" style="stroke: #a5d5ff"/>
    </defs>
    <g clip-path="url(#p9e96d329a3)">
     <use xlink:href="#md30a0c4ba5" x="233.373489" y="172.187991" style="fill: #a5d5ff; stroke: #a5d5ff"/>
     <use xlink:href="#md30a0c4ba5" x="296.608223" y="165.722638" style="fill: #a5d5ff; stroke: #a5d5ff"/>
     <use xlink:href="#md30a0c4ba5" x="95.365447" y="117.102459" style="fill: #a5d5ff; stroke: #a5d5ff"/>
     <use xlink:href="#md30a0c4ba5" x="122.350472" y="123.415366" style="fill: #a5d5ff; stroke: #a5d5ff"/>
     <use xlink:href="#md30a0c4ba5" x="181.549979" y="171.769154" style="fill: #a5d5ff; stroke: #a5d5ff"/>
     <use xlink:href="#md30a0c4ba5" x="158.21114" y="149.647461" style="fill: #a5d5ff; stroke: #a5d5ff"/>
     <use xlink:href="#md30a0c4ba5" x="161.029059" y="151.98814" style="fill: #a5d5ff; stroke: #a5d5ff"/>
     <use xlink:href="#md30a0c4ba5" x="134.846758" y="128.22618" style="fill: #a5d5ff; stroke: #a5d5ff"/>
     <use xlink:href="#md30a0c4ba5" x="135.286748" y="162.046053" style="fill: #a5d5ff; stroke: #a5d5ff"/>
     <use xlink:href="#md30a0c4ba5" x="105.506319" y="127.319616" style="fill: #a5d5ff; stroke: #a5d5ff"/>
     <use xlink:href="#md30a0c4ba5" x="188.700345" y="143.483703" style="fill: #a5d5ff; stroke: #a5d5ff"/>
     <use xlink:href="#md30a0c4ba5" x="279.645661" y="168.476336" style="fill: #a5d5ff; stroke: #a5d5ff"/>
     <use xlink:href="#md30a0c4ba5" x="185.825498" y="157.278619" style="fill: #a5d5ff; stroke: #a5d5ff"/>
     <use xlink:href="#md30a0c4ba5" x="133.13083" y="151.012387" style="fill: #a5d5ff; stroke: #a5d5ff"/>
     <use xlink:href="#md30a0c4ba5" x="102.479367" y="127.021856" style="fill: #a5d5ff; stroke: #a5d5ff"/>
     <use xlink:href="#md30a0c4ba5" x="307.006634" y="180.722648" style="fill: #a5d5ff; stroke: #a5d5ff"/>
     <use xlink:href="#md30a0c4ba5" x="258.22373" y="170.659025" style="fill: #a5d5ff; stroke: #a5d5ff"/>
     <use xlink:href="#md30a0c4ba5" x="80.037917" y="105.824086" style="fill: #a5d5ff; stroke: #a5d5ff"/>
     <use xlink:href="#md30a0c4ba5" x="147.322827" y="150.565596" style="fill: #a5d5ff; stroke: #a5d5ff"/>
     <use xlink:href="#md30a0c4ba5" x="245.181934" y="172.044206" style="fill: #a5d5ff; stroke: #a5d5ff"/>
     <use xlink:href="#md30a0c4ba5" x="117.817279" y="143.932483" style="fill: #a5d5ff; stroke: #a5d5ff"/>
     <use xlink:href="#md30a0c4ba5" x="218.833853" y="178.07097" style="fill: #a5d5ff; stroke: #a5d5ff"/>
     <use xlink:href="#md30a0c4ba5" x="70.252045" y="107.913464" style="fill: #a5d5ff; stroke: #a5d5ff"/>
     <use xlink:href="#md30a0c4ba5" x="82.978019" y="108.106992" style="fill: #a5d5ff; stroke: #a5d5ff"/>
     <use xlink:href="#md30a0c4ba5" x="140.734951" y="142.098952" style="fill: #a5d5ff; stroke: #a5d5ff"/>
     <use xlink:href="#md30a0c4ba5" x="113.145903" y="132.607528" style="fill: #a5d5ff; stroke: #a5d5ff"/>
     <use xlink:href="#md30a0c4ba5" x="115.925289" y="129.667754" style="fill: #a5d5ff; stroke: #a5d5ff"/>
     <use xlink:href="#md30a0c4ba5" x="213.956848" y="167.747527" style="fill: #a5d5ff; stroke: #a5d5ff"/>
     <use xlink:href="#md30a0c4ba5" x="283.6017" y="148.722612" style="fill: #a5d5ff; stroke: #a5d5ff"/>
     <use xlink:href="#md30a0c4ba5" x="254.138237" y="166.180822" style="fill: #a5d5ff; stroke: #a5d5ff"/>
     <use xlink:href="#md30a0c4ba5" x="166.528771" y="148.478659" style="fill: #a5d5ff; stroke: #a5d5ff"/>
     <use xlink:href="#md30a0c4ba5" x="271.546802" y="155.702244" style="fill: #a5d5ff; stroke: #a5d5ff"/>
     <use xlink:href="#md30a0c4ba5" x="206.740021" y="178.563835" style="fill: #a5d5ff; stroke: #a5d5ff"/>
     <use xlink:href="#md30a0c4ba5" x="168.51735" y="144.917293" style="fill: #a5d5ff; stroke: #a5d5ff"/>
     <use xlink:href="#md30a0c4ba5" x="184.53196" y="158.176826" style="fill: #a5d5ff; stroke: #a5d5ff"/>
     <use xlink:href="#md30a0c4ba5" x="166.145472" y="146.364074" style="fill: #a5d5ff; stroke: #a5d5ff"/>
     <use xlink:href="#md30a0c4ba5" x="127.582645" y="137.765898" style="fill: #a5d5ff; stroke: #a5d5ff"/>
     <use xlink:href="#md30a0c4ba5" x="231.757876" y="175.888873" style="fill: #a5d5ff; stroke: #a5d5ff"/>
     <use xlink:href="#md30a0c4ba5" x="183.575872" y="169.537671" style="fill: #a5d5ff; stroke: #a5d5ff"/>
     <use xlink:href="#md30a0c4ba5" x="270.382579" y="168.151221" style="fill: #a5d5ff; stroke: #a5d5ff"/>
     <use xlink:href="#md30a0c4ba5" x="94.800434" y="93.267973" style="fill: #a5d5ff; stroke: #a5d5ff"/>
     <use xlink:href="#md30a0c4ba5" x="243.025478" y="163.398489" style="fill: #a5d5ff; stroke: #a5d5ff"/>
     <use xlink:href="#md30a0c4ba5" x="254.162467" y="178.899306" style="fill: #a5d5ff; stroke: #a5d5ff"/>
     <use xlink:href="#md30a0c4ba5" x="116.211281" y="141.846312" style="fill: #a5d5ff; stroke: #a5d5ff"/>
     <use xlink:href="#md30a0c4ba5" x="234.57753" y="179.955739" style="fill: #a5d5ff; stroke: #a5d5ff"/>
     <use xlink:href="#md30a0c4ba5" x="95.600524" y="84.735475" style="fill: #a5d5ff; stroke: #a5d5ff"/>
     <use xlink:href="#md30a0c4ba5" x="136.829971" y="155.41603" style="fill: #a5d5ff; stroke: #a5d5ff"/>
     <use xlink:href="#md30a0c4ba5" x="135.164874" y="142.791241" style="fill: #a5d5ff; stroke: #a5d5ff"/>
     <use xlink:href="#md30a0c4ba5" x="112.425143" y="120.723215" style="fill: #a5d5ff; stroke: #a5d5ff"/>
     <use xlink:href="#md30a0c4ba5" x="69.90194" y="128.568087" style="fill: #a5d5ff; stroke: #a5d5ff"/>
    </g>
   </g>
   <g id="PolyCollection_2">
    <defs>
     <path id="ma93fdd9d10" d="M 70.363636 -147.955566 
L 70.363636 -127.082235 
L 83.045455 -128.080303 
L 95.727273 -118.755536 
L 108.409091 -124.24942 
L 121.090909 -104.387938 
L 133.772727 -101.184411 
L 146.454545 -103.019688 
L 159.136364 -99.632938 
L 171.818182 -92.092323 
L 184.5 -88.142242 
L 197.181818 -84.173869 
L 209.863636 -77.426365 
L 222.545455 -71.566279 
L 235.227273 -69.159865 
L 247.909091 -58.855037 
L 260.590909 -50.410299 
L 273.272727 -46.160616 
L 285.954545 -48.831493 
L 298.636364 -46.833842 
L 311.318182 -39.726947 
L 311.318182 -49.170616 
L 311.318182 -49.170616 
L 298.636364 -56.417391 
L 285.954545 -60.169 
L 273.272727 -69.787975 
L 260.590909 -60.058146 
L 247.909091 -71.749376 
L 235.227273 -84.141283 
L 222.545455 -91.075931 
L 209.863636 -85.953202 
L 197.181818 -101.571069 
L 184.5 -114.107581 
L 171.818182 -105.127542 
L 159.136364 -110.571074 
L 146.454545 -123.231439 
L 133.772727 -131.2107 
L 121.090909 -121.6901 
L 108.409091 -135.233183 
L 95.727273 -132.863496 
L 83.045455 -142.072714 
L 70.363636 -147.955566 
z
" style="stroke: #d81b60; stroke-opacity: 0.25"/>
    </defs>
    <g clip-path="url(#p9e96d329a3)">
     <use xlink:href="#ma93fdd9d10" x="0" y="216" style="fill: #d81b60; fill-opacity: 0.25; stroke: #d81b60; stroke-opacity: 0.25"/>
    </g>
   </g>
   <g id="PathCollection_2">
    <defs>
     <path id="md3303e66c7" d="M 0 1.5 
C 0.397805 1.5 0.77937 1.341951 1.06066 1.06066 
C 1.341951 0.77937 1.5 0.397805 1.5 0 
C 1.5 -0.397805 1.341951 -0.77937 1.06066 -1.06066 
C 0.77937 -1.341951 0.397805 -1.5 0 -1.5 
C -0.397805 -1.5 -0.77937 -1.341951 -1.06066 -1.06066 
C -1.341951 -0.77937 -1.5 -0.397805 -1.5 0 
C -1.5 0.397805 -1.341951 0.77937 -1.06066 1.06066 
C -0.77937 1.341951 -0.397805 1.5 0 1.5 
z
" style="stroke: #ff86b2"/>
    </defs>
    <g clip-path="url(#p9e96d329a3)">
     <use xlink:href="#md3303e66c7" x="128.506604" y="101.491035" style="fill: #ff86b2; stroke: #ff86b2"/>
     <use xlink:href="#md3303e66c7" x="259.254863" y="159.616748" style="fill: #ff86b2; stroke: #ff86b2"/>
     <use xlink:href="#md3303e66c7" x="289.274722" y="161.160499" style="fill: #ff86b2; stroke: #ff86b2"/>
     <use xlink:href="#md3303e66c7" x="155.89332" y="88.114851" style="fill: #ff86b2; stroke: #ff86b2"/>
     <use xlink:href="#md3303e66c7" x="232.360903" y="131.272194" style="fill: #ff86b2; stroke: #ff86b2"/>
     <use xlink:href="#md3303e66c7" x="255.827503" y="157.453875" style="fill: #ff86b2; stroke: #ff86b2"/>
     <use xlink:href="#md3303e66c7" x="232.760872" y="135.322289" style="fill: #ff86b2; stroke: #ff86b2"/>
     <use xlink:href="#md3303e66c7" x="205.187738" y="121.996175" style="fill: #ff86b2; stroke: #ff86b2"/>
     <use xlink:href="#md3303e66c7" x="216.362728" y="143.685275" style="fill: #ff86b2; stroke: #ff86b2"/>
     <use xlink:href="#md3303e66c7" x="82.119069" y="75.538293" style="fill: #ff86b2; stroke: #ff86b2"/>
     <use xlink:href="#md3303e66c7" x="246.338508" y="154.92959" style="fill: #ff86b2; stroke: #ff86b2"/>
     <use xlink:href="#md3303e66c7" x="145.563686" y="93.674424" style="fill: #ff86b2; stroke: #ff86b2"/>
     <use xlink:href="#md3303e66c7" x="230.920835" y="136.996059" style="fill: #ff86b2; stroke: #ff86b2"/>
     <use xlink:href="#md3303e66c7" x="69.971546" y="86.978417" style="fill: #ff86b2; stroke: #ff86b2"/>
     <use xlink:href="#md3303e66c7" x="270.548083" y="162.680284" style="fill: #ff86b2; stroke: #ff86b2"/>
     <use xlink:href="#md3303e66c7" x="158.48428" y="108.59736" style="fill: #ff86b2; stroke: #ff86b2"/>
     <use xlink:href="#md3303e66c7" x="108.152325" y="89.553097" style="fill: #ff86b2; stroke: #ff86b2"/>
     <use xlink:href="#md3303e66c7" x="170.148722" y="123.916084" style="fill: #ff86b2; stroke: #ff86b2"/>
     <use xlink:href="#md3303e66c7" x="94.964536" y="62.792192" style="fill: #ff86b2; stroke: #ff86b2"/>
     <use xlink:href="#md3303e66c7" x="205.864519" y="131.675051" style="fill: #ff86b2; stroke: #ff86b2"/>
     <use xlink:href="#md3303e66c7" x="297.089049" y="168.926276" style="fill: #ff86b2; stroke: #ff86b2"/>
     <use xlink:href="#md3303e66c7" x="308.398218" y="164.115488" style="fill: #ff86b2; stroke: #ff86b2"/>
     <use xlink:href="#md3303e66c7" x="155.620274" y="110.227504" style="fill: #ff86b2; stroke: #ff86b2"/>
     <use xlink:href="#md3303e66c7" x="311.099422" y="167.085119" style="fill: #ff86b2; stroke: #ff86b2"/>
     <use xlink:href="#md3303e66c7" x="170.816461" y="117.682408" style="fill: #ff86b2; stroke: #ff86b2"/>
     <use xlink:href="#md3303e66c7" x="82.957022" y="53.978562" style="fill: #ff86b2; stroke: #ff86b2"/>
     <use xlink:href="#md3303e66c7" x="192.69679" y="123.738845" style="fill: #ff86b2; stroke: #ff86b2"/>
     <use xlink:href="#md3303e66c7" x="120.880974" y="117.741373" style="fill: #ff86b2; stroke: #ff86b2"/>
     <use xlink:href="#md3303e66c7" x="167.228048" y="87.713933" style="fill: #ff86b2; stroke: #ff86b2"/>
     <use xlink:href="#md3303e66c7" x="167.295416" y="133.060479" style="fill: #ff86b2; stroke: #ff86b2"/>
     <use xlink:href="#md3303e66c7" x="181.05706" y="100.104768" style="fill: #ff86b2; stroke: #ff86b2"/>
     <use xlink:href="#md3303e66c7" x="115.918834" y="117.491101" style="fill: #ff86b2; stroke: #ff86b2"/>
     <use xlink:href="#md3303e66c7" x="310.438503" y="173.883047" style="fill: #ff86b2; stroke: #ff86b2"/>
     <use xlink:href="#md3303e66c7" x="165.550493" y="123.905575" style="fill: #ff86b2; stroke: #ff86b2"/>
     <use xlink:href="#md3303e66c7" x="94.985332" y="103.746662" style="fill: #ff86b2; stroke: #ff86b2"/>
     <use xlink:href="#md3303e66c7" x="233.85974" y="148.365091" style="fill: #ff86b2; stroke: #ff86b2"/>
     <use xlink:href="#md3303e66c7" x="209.809968" y="140.295848" style="fill: #ff86b2; stroke: #ff86b2"/>
     <use xlink:href="#md3303e66c7" x="258.505254" y="160.628589" style="fill: #ff86b2; stroke: #ff86b2"/>
     <use xlink:href="#md3303e66c7" x="145.890064" y="124.367475" style="fill: #ff86b2; stroke: #ff86b2"/>
     <use xlink:href="#md3303e66c7" x="81.009132" y="71.909716" style="fill: #ff86b2; stroke: #ff86b2"/>
     <use xlink:href="#md3303e66c7" x="191.958437" y="116.96236" style="fill: #ff86b2; stroke: #ff86b2"/>
     <use xlink:href="#md3303e66c7" x="243.902525" y="147.384479" style="fill: #ff86b2; stroke: #ff86b2"/>
     <use xlink:href="#md3303e66c7" x="92.64622" y="84.427328" style="fill: #ff86b2; stroke: #ff86b2"/>
     <use xlink:href="#md3303e66c7" x="208.840441" y="130.734837" style="fill: #ff86b2; stroke: #ff86b2"/>
     <use xlink:href="#md3303e66c7" x="82.872399" y="83.972501" style="fill: #ff86b2; stroke: #ff86b2"/>
     <use xlink:href="#md3303e66c7" x="155.85346" y="106.432093" style="fill: #ff86b2; stroke: #ff86b2"/>
     <use xlink:href="#md3303e66c7" x="139.931324" y="86.682409" style="fill: #ff86b2; stroke: #ff86b2"/>
     <use xlink:href="#md3303e66c7" x="166.716607" y="116.662089" style="fill: #ff86b2; stroke: #ff86b2"/>
     <use xlink:href="#md3303e66c7" x="95.546249" y="77.973205" style="fill: #ff86b2; stroke: #ff86b2"/>
     <use xlink:href="#md3303e66c7" x="269.365581" y="145.065762" style="fill: #ff86b2; stroke: #ff86b2"/>
    </g>
   </g>
   <g id="matplotlib.axis_1">
    <g id="xtick_1">
     <g id="line2d_1">
      <defs>
       <path id="m2155a22fcb" d="M 0 0 
L 0 3.5 
" style="stroke: #000000; stroke-width: 0.8"/>
      </defs>
      <g>
       <use xlink:href="#m2155a22fcb" x="57.681818" y="192.24" style="stroke: #000000; stroke-width: 0.8"/>
      </g>
     </g>
     <g id="text_1">
      <!-- $\mathdefault{0.0}$ -->
      <g transform="translate(48.956527 208.925876) scale(0.14 -0.14)">
       <defs>
        <path id="CMR17-30" d="M 2688 2025 
C 2688 2416 2682 3080 2413 3591 
C 2176 4039 1798 4198 1466 4198 
C 1158 4198 768 4058 525 3597 
C 269 3118 243 2524 243 2025 
C 243 1661 250 1106 448 619 
C 723 -39 1216 -128 1466 -128 
C 1760 -128 2208 -7 2470 600 
C 2662 1042 2688 1559 2688 2025 
z
M 1466 -26 
C 1056 -26 813 325 723 812 
C 653 1188 653 1738 653 2096 
C 653 2588 653 2997 736 3387 
C 858 3929 1216 4096 1466 4096 
C 1728 4096 2067 3923 2189 3400 
C 2272 3036 2278 2607 2278 2096 
C 2278 1680 2278 1169 2202 792 
C 2067 95 1690 -26 1466 -26 
z
" transform="scale(0.015625)"/>
        <path id="CMMI12-3a" d="M 1178 307 
C 1178 492 1024 619 870 619 
C 685 619 557 466 557 313 
C 557 128 710 0 864 0 
C 1050 0 1178 153 1178 307 
z
" transform="scale(0.015625)"/>
       </defs>
       <use xlink:href="#CMR17-30" transform="scale(0.996264)"/>
       <use xlink:href="#CMMI12-3a" transform="translate(45.690477 0) scale(0.996264)"/>
       <use xlink:href="#CMR17-30" transform="translate(72.787654 0) scale(0.996264)"/>
      </g>
     </g>
    </g>
    <g id="xtick_2">
     <g id="line2d_2">
      <g>
       <use xlink:href="#m2155a22fcb" x="108.409091" y="192.24" style="stroke: #000000; stroke-width: 0.8"/>
      </g>
     </g>
     <g id="text_2">
      <!-- $\mathdefault{0.2}$ -->
      <g transform="translate(99.6838 208.925876) scale(0.14 -0.14)">
       <defs>
        <path id="CMR17-32" d="M 2669 989 
L 2554 989 
C 2490 536 2438 459 2413 420 
C 2381 369 1920 369 1830 369 
L 602 369 
C 832 619 1280 1072 1824 1597 
C 2214 1967 2669 2402 2669 3035 
C 2669 3790 2067 4224 1395 4224 
C 691 4224 262 3604 262 3030 
C 262 2780 448 2748 525 2748 
C 589 2748 781 2787 781 3010 
C 781 3207 614 3264 525 3264 
C 486 3264 448 3258 422 3245 
C 544 3790 915 4058 1306 4058 
C 1862 4058 2227 3617 2227 3035 
C 2227 2479 1901 2000 1536 1584 
L 262 146 
L 262 0 
L 2515 0 
L 2669 989 
z
" transform="scale(0.015625)"/>
       </defs>
       <use xlink:href="#CMR17-30" transform="scale(0.996264)"/>
       <use xlink:href="#CMMI12-3a" transform="translate(45.690477 0) scale(0.996264)"/>
       <use xlink:href="#CMR17-32" transform="translate(72.787654 0) scale(0.996264)"/>
      </g>
     </g>
    </g>
    <g id="xtick_3">
     <g id="line2d_3">
      <g>
       <use xlink:href="#m2155a22fcb" x="159.136364" y="192.24" style="stroke: #000000; stroke-width: 0.8"/>
      </g>
     </g>
     <g id="text_3">
      <!-- $\mathdefault{0.4}$ -->
      <g transform="translate(150.411073 208.925876) scale(0.14 -0.14)">
       <defs>
        <path id="CMR17-34" d="M 2150 4122 
C 2150 4256 2144 4256 2029 4256 
L 128 1254 
L 128 1088 
L 1779 1088 
L 1779 457 
C 1779 224 1766 160 1318 160 
L 1197 160 
L 1197 0 
C 1402 0 1747 0 1965 0 
C 2182 0 2528 0 2733 0 
L 2733 160 
L 2611 160 
C 2163 160 2150 224 2150 457 
L 2150 1088 
L 2803 1088 
L 2803 1254 
L 2150 1254 
L 2150 4122 
z
M 1798 3703 
L 1798 1254 
L 256 1254 
L 1798 3703 
z
" transform="scale(0.015625)"/>
       </defs>
       <use xlink:href="#CMR17-30" transform="scale(0.996264)"/>
       <use xlink:href="#CMMI12-3a" transform="translate(45.690477 0) scale(0.996264)"/>
       <use xlink:href="#CMR17-34" transform="translate(72.787654 0) scale(0.996264)"/>
      </g>
     </g>
    </g>
    <g id="xtick_4">
     <g id="line2d_4">
      <g>
       <use xlink:href="#m2155a22fcb" x="209.863636" y="192.24" style="stroke: #000000; stroke-width: 0.8"/>
      </g>
     </g>
     <g id="text_4">
      <!-- $\mathdefault{0.6}$ -->
      <g transform="translate(201.138345 208.925876) scale(0.14 -0.14)">
       <defs>
        <path id="CMR17-36" d="M 678 2176 
C 678 3690 1395 4032 1811 4032 
C 1946 4032 2272 4009 2400 3776 
C 2298 3776 2106 3776 2106 3553 
C 2106 3381 2246 3323 2336 3323 
C 2394 3323 2566 3348 2566 3560 
C 2566 3954 2246 4179 1805 4179 
C 1043 4179 243 3390 243 1984 
C 243 253 966 -128 1478 -128 
C 2099 -128 2688 427 2688 1283 
C 2688 2081 2170 2662 1517 2662 
C 1126 2662 838 2407 678 1960 
L 678 2176 
z
M 1478 25 
C 691 25 691 1200 691 1436 
C 691 1896 909 2560 1504 2560 
C 1613 2560 1926 2560 2138 2120 
C 2253 1870 2253 1609 2253 1289 
C 2253 944 2253 690 2118 434 
C 1978 171 1773 25 1478 25 
z
" transform="scale(0.015625)"/>
       </defs>
       <use xlink:href="#CMR17-30" transform="scale(0.996264)"/>
       <use xlink:href="#CMMI12-3a" transform="translate(45.690477 0) scale(0.996264)"/>
       <use xlink:href="#CMR17-36" transform="translate(72.787654 0) scale(0.996264)"/>
      </g>
     </g>
    </g>
    <g id="xtick_5">
     <g id="line2d_5">
      <g>
       <use xlink:href="#m2155a22fcb" x="260.590909" y="192.24" style="stroke: #000000; stroke-width: 0.8"/>
      </g>
     </g>
     <g id="text_5">
      <!-- $\mathdefault{0.8}$ -->
      <g transform="translate(251.865618 208.925876) scale(0.14 -0.14)">
       <defs>
        <path id="CMR17-38" d="M 1741 2264 
C 2144 2467 2554 2773 2554 3263 
C 2554 3841 1990 4179 1472 4179 
C 890 4179 378 3759 378 3180 
C 378 3021 416 2747 666 2505 
C 730 2442 998 2251 1171 2130 
C 883 1983 211 1634 211 934 
C 211 279 838 -128 1459 -128 
C 2144 -128 2720 362 2720 1010 
C 2720 1590 2330 1857 2074 2029 
L 1741 2264 
z
M 902 2822 
C 851 2854 595 3051 595 3351 
C 595 3739 998 4032 1459 4032 
C 1965 4032 2336 3676 2336 3262 
C 2336 2669 1670 2331 1638 2331 
C 1632 2331 1626 2331 1574 2370 
L 902 2822 
z
M 2080 1519 
C 2176 1449 2483 1240 2483 851 
C 2483 381 2010 25 1472 25 
C 890 25 448 438 448 940 
C 448 1443 838 1862 1280 2060 
L 2080 1519 
z
" transform="scale(0.015625)"/>
       </defs>
       <use xlink:href="#CMR17-30" transform="scale(0.996264)"/>
       <use xlink:href="#CMMI12-3a" transform="translate(45.690477 0) scale(0.996264)"/>
       <use xlink:href="#CMR17-38" transform="translate(72.787654 0) scale(0.996264)"/>
      </g>
     </g>
    </g>
    <g id="xtick_6">
     <g id="line2d_6">
      <g>
       <use xlink:href="#m2155a22fcb" x="311.318182" y="192.24" style="stroke: #000000; stroke-width: 0.8"/>
      </g>
     </g>
     <g id="text_6">
      <!-- $\mathdefault{1.0}$ -->
      <g transform="translate(302.592891 208.925876) scale(0.14 -0.14)">
       <defs>
        <path id="CMR17-31" d="M 1702 4058 
C 1702 4192 1696 4192 1606 4192 
C 1357 3916 979 3827 621 3827 
C 602 3827 570 3827 563 3808 
C 557 3795 557 3782 557 3648 
C 755 3648 1088 3686 1344 3839 
L 1344 461 
C 1344 236 1331 160 781 160 
L 589 160 
L 589 0 
C 896 0 1216 0 1523 0 
C 1830 0 2150 0 2458 0 
L 2458 160 
L 2266 160 
C 1715 160 1702 230 1702 458 
L 1702 4058 
z
" transform="scale(0.015625)"/>
       </defs>
       <use xlink:href="#CMR17-31" transform="scale(0.996264)"/>
       <use xlink:href="#CMMI12-3a" transform="translate(45.690477 0) scale(0.996264)"/>
       <use xlink:href="#CMR17-30" transform="translate(72.787654 0) scale(0.996264)"/>
      </g>
     </g>
    </g>
    <g id="text_7">
     <!-- Training error -->
     <g transform="translate(145.692289 225.323781) scale(0.14 -0.14)">
      <defs>
       <path id="CMSS17-54" d="M 2317 3968 
L 2848 3968 
C 2925 3968 3002 3968 3078 3968 
L 3878 3968 
L 3878 4376 
L 218 4376 
L 218 3968 
L 1018 3968 
C 1094 3968 1171 3968 1248 3968 
L 1779 3968 
L 1779 -32 
L 2317 -32 
L 2317 3968 
z
" transform="scale(0.015625)"/>
       <path id="CMSS17-72" d="M 954 1363 
C 954 1965 1395 2368 1958 2368 
L 1958 2789 
C 1549 2789 1165 2585 934 2253 
L 934 2758 
L 480 2758 
L 480 0 
L 954 0 
L 954 1363 
z
" transform="scale(0.015625)"/>
       <path id="CMSS17-61" d="M 2406 1791 
C 2406 2392 1978 2808 1402 2808 
C 1120 2808 813 2757 461 2553 
L 499 2135 
C 659 2248 934 2432 1395 2432 
C 1722 2432 1920 2180 1920 1782 
L 1920 1536 
C 896 1536 256 1238 256 726 
C 256 461 416 -64 947 -64 
C 1043 -64 1562 -64 1933 217 
L 1933 -19 
L 2406 -19 
L 2406 1791 
z
M 1920 816 
C 1920 701 1920 548 1728 434 
C 1562 325 1350 325 1261 325 
C 941 325 723 511 723 744 
C 723 1211 1722 1211 1920 1211 
L 1920 816 
z
" transform="scale(0.015625)"/>
       <path id="CMSS17-69" d="M 979 4183 
L 442 4183 
L 442 3648 
L 979 3648 
L 979 4183 
z
M 947 2739 
L 474 2739 
L 474 0 
L 947 0 
L 947 2739 
z
" transform="scale(0.015625)"/>
       <path id="CMSS17-6e" d="M 2618 1877 
C 2618 2283 2522 2816 1798 2816 
C 1389 2816 1120 2606 941 2389 
L 941 2758 
L 474 2758 
L 474 0 
L 960 0 
L 960 1559 
C 960 1964 1114 2428 1549 2428 
C 2112 2428 2131 2048 2131 1829 
L 2131 0 
L 2618 0 
L 2618 1877 
z
" transform="scale(0.015625)"/>
       <path id="CMSS17-67" d="M 2848 2808 
C 2483 2808 2170 2738 1914 2617 
C 1702 2777 1485 2808 1338 2808 
C 781 2808 358 2349 358 1814 
C 358 1468 550 1207 563 1195 
C 448 1035 384 863 384 672 
C 384 448 474 289 544 200 
C 211 -3 166 -314 166 -435 
C 166 -898 749 -1280 1498 -1280 
C 2253 -1280 2835 -898 2835 -428 
C 2835 448 1856 448 1587 448 
L 1069 448 
C 973 448 717 448 717 791 
C 717 921 774 1004 781 1010 
C 877 940 1075 832 1338 832 
C 1869 832 2310 1278 2310 1827 
C 2310 2132 2170 2355 2112 2432 
L 2131 2432 
C 2150 2432 2419 2432 2515 2432 
C 2720 2432 2739 2429 2918 2419 
L 2848 2808 
z
M 1338 1182 
C 1120 1182 813 1315 813 1823 
C 813 2375 1165 2464 1331 2464 
C 1549 2464 1856 2331 1856 1823 
C 1856 1271 1504 1182 1338 1182 
z
M 1581 -10 
C 1734 -10 2381 -10 2381 -442 
C 2381 -714 1984 -929 1504 -929 
C 1018 -929 621 -720 621 -435 
C 621 -403 621 -10 1062 -10 
L 1581 -10 
z
" transform="scale(0.015625)"/>
       <path id="CMSS17-65" d="M 2502 1377 
C 2502 1590 2490 2003 2285 2345 
C 2061 2713 1696 2816 1421 2816 
C 755 2816 192 2188 192 1375 
C 192 582 774 -64 1510 -64 
C 1798 -64 2150 19 2470 248 
C 2470 274 2458 414 2451 420 
C 2451 433 2432 630 2432 656 
C 2125 407 1773 325 1517 325 
C 1107 325 666 667 646 1377 
L 2502 1377 
z
M 698 1728 
C 781 2084 1062 2421 1421 2421 
C 1517 2421 1965 2421 2080 1728 
L 698 1728 
z
" transform="scale(0.015625)"/>
       <path id="CMSS17-6f" d="M 2829 1356 
C 2829 2176 2221 2816 1504 2816 
C 768 2816 173 2157 173 1356 
C 173 544 787 -64 1498 -64 
C 2227 -64 2829 563 2829 1356 
z
M 1504 337 
C 1050 337 659 709 659 1408 
C 659 2151 1114 2427 1498 2427 
C 1914 2427 2342 2126 2342 1408 
C 2342 683 1926 337 1504 337 
z
" transform="scale(0.015625)"/>
      </defs>
      <use xlink:href="#CMSS17-54" transform="scale(0.996264)"/>
      <use xlink:href="#CMSS17-72" transform="translate(56.012199 0) scale(0.996264)"/>
      <use xlink:href="#CMSS17-61" transform="translate(87.921971 0) scale(0.996264)"/>
      <use xlink:href="#CMSS17-69" transform="translate(132.843892 0) scale(0.996264)"/>
      <use xlink:href="#CMSS17-6e" transform="translate(155.024615 0) scale(0.996264)"/>
      <use xlink:href="#CMSS17-69" transform="translate(203.229558 0) scale(0.996264)"/>
      <use xlink:href="#CMSS17-6e" transform="translate(225.410281 0) scale(0.996264)"/>
      <use xlink:href="#CMSS17-67" transform="translate(273.615224 0) scale(0.996264)"/>
      <use xlink:href="#CMSS17-65" transform="translate(351.68796 0) scale(0.996264)"/>
      <use xlink:href="#CMSS17-72" transform="translate(393.326782 0) scale(0.996264)"/>
      <use xlink:href="#CMSS17-72" transform="translate(425.236555 0) scale(0.996264)"/>
      <use xlink:href="#CMSS17-6f" transform="translate(457.146327 0) scale(0.996264)"/>
      <use xlink:href="#CMSS17-72" transform="translate(501.387497 0) scale(0.996264)"/>
     </g>
    </g>
   </g>
   <g id="matplotlib.axis_2">
    <g id="ytick_1">
     <g id="line2d_7">
      <defs>
       <path id="m71daf705d0" d="M 0 0 
L -3.5 0 
" style="stroke: #000000; stroke-width: 0.8"/>
      </defs>
      <g>
       <use xlink:href="#m71daf705d0" x="45" y="173.76" style="stroke: #000000; stroke-width: 0.8"/>
      </g>
     </g>
     <g id="text_8">
      <!-- $\mathdefault{1.0}$ -->
      <g transform="translate(20.549418 178.602938) scale(0.14 -0.14)">
       <use xlink:href="#CMR17-31" transform="scale(0.996264)"/>
       <use xlink:href="#CMMI12-3a" transform="translate(45.690477 0) scale(0.996264)"/>
       <use xlink:href="#CMR17-30" transform="translate(72.787654 0) scale(0.996264)"/>
      </g>
     </g>
    </g>
    <g id="ytick_2">
     <g id="line2d_8">
      <g>
       <use xlink:href="#m71daf705d0" x="45" y="136.8" style="stroke: #000000; stroke-width: 0.8"/>
      </g>
     </g>
     <g id="text_9">
      <!-- $\mathdefault{1.2}$ -->
      <g transform="translate(20.549418 141.642938) scale(0.14 -0.14)">
       <use xlink:href="#CMR17-31" transform="scale(0.996264)"/>
       <use xlink:href="#CMMI12-3a" transform="translate(45.690477 0) scale(0.996264)"/>
       <use xlink:href="#CMR17-32" transform="translate(72.787654 0) scale(0.996264)"/>
      </g>
     </g>
    </g>
    <g id="ytick_3">
     <g id="line2d_9">
      <g>
       <use xlink:href="#m71daf705d0" x="45" y="99.84" style="stroke: #000000; stroke-width: 0.8"/>
      </g>
     </g>
     <g id="text_10">
      <!-- $\mathdefault{1.4}$ -->
      <g transform="translate(20.549418 104.682938) scale(0.14 -0.14)">
       <use xlink:href="#CMR17-31" transform="scale(0.996264)"/>
       <use xlink:href="#CMMI12-3a" transform="translate(45.690477 0) scale(0.996264)"/>
       <use xlink:href="#CMR17-34" transform="translate(72.787654 0) scale(0.996264)"/>
      </g>
     </g>
    </g>
    <g id="ytick_4">
     <g id="line2d_10">
      <g>
       <use xlink:href="#m71daf705d0" x="45" y="62.88" style="stroke: #000000; stroke-width: 0.8"/>
      </g>
     </g>
     <g id="text_11">
      <!-- $\mathdefault{1.6}$ -->
      <g transform="translate(20.549418 67.722938) scale(0.14 -0.14)">
       <use xlink:href="#CMR17-31" transform="scale(0.996264)"/>
       <use xlink:href="#CMMI12-3a" transform="translate(45.690477 0) scale(0.996264)"/>
       <use xlink:href="#CMR17-36" transform="translate(72.787654 0) scale(0.996264)"/>
      </g>
     </g>
    </g>
    <g id="ytick_5">
     <g id="line2d_11">
      <g>
       <use xlink:href="#m71daf705d0" x="45" y="25.92" style="stroke: #000000; stroke-width: 0.8"/>
      </g>
     </g>
     <g id="text_12">
      <!-- $\mathdefault{1.8}$ -->
      <g transform="translate(20.549418 30.762938) scale(0.14 -0.14)">
       <use xlink:href="#CMR17-31" transform="scale(0.996264)"/>
       <use xlink:href="#CMMI12-3a" transform="translate(45.690477 0) scale(0.996264)"/>
       <use xlink:href="#CMR17-38" transform="translate(72.787654 0) scale(0.996264)"/>
      </g>
     </g>
    </g>
    <g id="text_13">
     <!-- Testing error -->
     <g transform="translate(13.83739 145.307276) rotate(-90) scale(0.14 -0.14)">
      <defs>
       <path id="CMSS17-73" d="M 2061 2627 
C 1683 2807 1389 2807 1197 2807 
C 742 2807 198 2648 198 2003 
C 198 1359 902 1218 1094 1179 
C 1389 1122 1715 1058 1715 740 
C 1715 337 1254 337 1171 337 
C 915 337 563 407 243 638 
L 166 210 
C 531 0 883 -64 1178 -64 
C 1965 -64 2163 416 2163 781 
C 2163 1094 1984 1305 1862 1401 
C 1651 1568 1574 1587 1050 1696 
C 960 1709 646 1779 646 2066 
C 646 2432 1050 2432 1139 2432 
C 1555 2432 1811 2303 1984 2208 
L 2061 2627 
z
" transform="scale(0.015625)"/>
       <path id="CMSS17-74" d="M 1069 2368 
L 1901 2368 
L 1901 2737 
L 1069 2737 
L 1069 3520 
L 614 3520 
L 614 2737 
L 109 2737 
L 109 2368 
L 602 2368 
L 602 749 
C 602 384 685 -64 1107 -64 
C 1427 -64 1722 25 2003 172 
L 1901 548 
C 1747 414 1562 337 1363 337 
C 1082 337 1069 696 1069 856 
L 1069 2368 
z
" transform="scale(0.015625)"/>
      </defs>
      <use xlink:href="#CMSS17-54" transform="scale(0.996264)"/>
      <use xlink:href="#CMSS17-65" transform="translate(56.012199 0) scale(0.996264)"/>
      <use xlink:href="#CMSS17-73" transform="translate(97.651021 0) scale(0.996264)"/>
      <use xlink:href="#CMSS17-74" transform="translate(133.564563 0) scale(0.996264)"/>
      <use xlink:href="#CMSS17-69" transform="translate(167.396129 0) scale(0.996264)"/>
      <use xlink:href="#CMSS17-6e" transform="translate(189.576852 0) scale(0.996264)"/>
      <use xlink:href="#CMSS17-67" transform="translate(237.781795 0) scale(0.996264)"/>
      <use xlink:href="#CMSS17-65" transform="translate(315.854532 0) scale(0.996264)"/>
      <use xlink:href="#CMSS17-72" transform="translate(357.493354 0) scale(0.996264)"/>
      <use xlink:href="#CMSS17-72" transform="translate(389.403126 0) scale(0.996264)"/>
      <use xlink:href="#CMSS17-6f" transform="translate(421.312899 0) scale(0.996264)"/>
      <use xlink:href="#CMSS17-72" transform="translate(465.554068 0) scale(0.996264)"/>
     </g>
    </g>
   </g>
   <g id="line2d_12">
    <path d="M 45 173.76 
L 324 173.76 
" clip-path="url(#p9e96d329a3)" style="fill: none; stroke-dasharray: 1.5,2.475; stroke-dashoffset: 0; stroke: #000000; stroke-width: 1.5"/>
   </g>
   <g id="patch_3">
    <path d="M 45 192.24 
L 45 25.92 
" style="fill: none; stroke: #000000; stroke-width: 0.8; stroke-linejoin: miter; stroke-linecap: square"/>
   </g>
   <g id="patch_4">
    <path d="M 324 192.24 
L 324 25.92 
" style="fill: none; stroke: #000000; stroke-width: 0.8; stroke-linejoin: miter; stroke-linecap: square"/>
   </g>
   <g id="patch_5">
    <path d="M 45 192.24 
L 324 192.24 
" style="fill: none; stroke: #000000; stroke-width: 0.8; stroke-linejoin: miter; stroke-linecap: square"/>
   </g>
   <g id="patch_6">
    <path d="M 45 25.92 
L 324 25.92 
" style="fill: none; stroke: #000000; stroke-width: 0.8; stroke-linejoin: miter; stroke-linecap: square"/>
   </g>
   <g id="patch_7">
    <path d="M 79.8429 168.809054 
Q 69.737587 171.066654 60.723411 173.080486 
" style="fill: none; stroke: #1e88e5; stroke-linecap: round"/>
    <path d="M 66.799174 174.592141 
L 60.723411 173.080486 
L 65.578192 169.126869 
" style="fill: none; stroke: #1e88e5; stroke-linecap: round"/>
   </g>
   <g id="text_14">
    <g id="patch_8">
     <path d="M 56.081818 178.772028 
L 107.50697 178.772028 
Q 111.70697 178.772028 111.70697 174.572028 
L 111.70697 162.174124 
Q 111.70697 157.974124 107.50697 157.974124 
L 56.081818 157.974124 
Q 51.881818 157.974124 51.881818 162.174124 
L 51.881818 174.572028 
Q 51.881818 178.772028 56.081818 178.772028 
z
" style="fill: #ffffff; stroke: #1e88e5; stroke-linejoin: miter"/>
    </g>
    <!-- $\alpha = 1.25$ -->
    <g style="fill: #1e88e5" transform="translate(56.081818 171.86) scale(0.14 -0.14)">
     <defs>
      <path id="CMMI12-b" d="M 2963 1616 
C 2963 2235 2611 2815 1933 2815 
C 1094 2815 256 1902 256 996 
C 256 441 602 -64 1254 -64 
C 1651 -64 2125 89 2579 472 
C 2669 115 2867 -64 3142 -64 
C 3488 -64 3661 294 3661 377 
C 3661 434 3616 434 3597 434 
C 3546 434 3539 415 3520 364 
C 3462 204 3315 64 3162 64 
C 2963 64 2963 472 2963 862 
C 3616 1641 3770 2446 3770 2452 
C 3770 2510 3718 2510 3699 2510 
C 3642 2510 3635 2491 3610 2376 
C 3526 2095 3360 1597 2963 1073 
L 2963 1616 
z
M 2560 626 
C 1997 121 1491 64 1267 64 
C 813 64 685 466 685 766 
C 685 1040 826 1692 1024 2044 
C 1286 2491 1645 2688 1933 2688 
C 2554 2688 2554 1877 2554 1341 
C 2554 1182 2547 1016 2547 856 
C 2547 728 2554 696 2560 626 
z
" transform="scale(0.015625)"/>
      <path id="CMR17-3d" d="M 4115 2017 
C 4211 2017 4307 2017 4307 2125 
C 4307 2240 4198 2240 4090 2240 
L 512 2240 
C 403 2240 294 2240 294 2125 
C 294 2017 390 2017 486 2017 
L 4115 2017 
z
M 4090 896 
C 4198 896 4307 896 4307 1011 
C 4307 1119 4211 1119 4115 1119 
L 486 1119 
C 390 1119 294 1119 294 1011 
C 294 896 403 896 512 896 
L 4090 896 
z
" transform="scale(0.015625)"/>
      <path id="CMR17-35" d="M 730 3692 
C 794 3666 1056 3584 1325 3584 
C 1920 3584 2246 3911 2432 4100 
C 2432 4157 2432 4192 2394 4192 
C 2387 4192 2374 4192 2323 4163 
C 2099 4058 1837 3973 1517 3973 
C 1325 3973 1037 3999 723 4139 
C 653 4171 640 4171 634 4171 
C 602 4171 595 4164 595 4037 
L 595 2203 
C 595 2089 595 2057 659 2057 
C 691 2057 704 2070 736 2114 
C 941 2401 1222 2522 1542 2522 
C 1766 2522 2246 2382 2246 1289 
C 2246 1085 2246 715 2054 421 
C 1894 159 1645 25 1370 25 
C 947 25 518 320 403 814 
C 429 807 480 795 506 795 
C 589 795 749 840 749 1038 
C 749 1210 627 1280 506 1280 
C 358 1280 262 1190 262 1011 
C 262 454 704 -128 1382 -128 
C 2042 -128 2669 440 2669 1264 
C 2669 2030 2170 2624 1549 2624 
C 1222 2624 947 2503 730 2274 
L 730 3692 
z
" transform="scale(0.015625)"/>
     </defs>
     <use xlink:href="#CMMI12-b" transform="scale(0.996264)"/>
     <use xlink:href="#CMR17-3d" transform="translate(90.355032 0) scale(0.996264)"/>
     <use xlink:href="#CMR17-31" transform="translate(189.743829 0) scale(0.996264)"/>
     <use xlink:href="#CMMI12-3a" transform="translate(235.434306 0) scale(0.996264)"/>
     <use xlink:href="#CMR17-32" transform="translate(262.531483 0) scale(0.996264)"/>
     <use xlink:href="#CMR17-35" transform="translate(308.22196 0) scale(0.996264)"/>
    </g>
   </g>
   <g id="patch_9">
    <path d="M 205.53595 31.055932 
Q 196.000183 32.91634 187.561761 34.562657 
" style="fill: none; stroke: #d81b60; stroke-linecap: round"/>
    <path d="M 193.594299 36.238513 
L 187.561761 34.562657 
L 192.521969 30.742141 
" style="fill: none; stroke: #d81b60; stroke-linecap: round"/>
   </g>
   <g id="text_15">
    <g id="patch_10">
     <path d="M 185.2 41.072028 
L 229.796663 41.072028 
Q 233.996663 41.072028 233.996663 36.872028 
L 233.996663 24.474124 
Q 233.996663 20.274124 229.796663 20.274124 
L 185.2 20.274124 
Q 181 20.274124 181 24.474124 
L 181 36.872028 
Q 181 41.072028 185.2 41.072028 
z
" style="fill: #ffffff; stroke: #d81b60; stroke-linejoin: miter"/>
    </g>
    <!-- $\alpha = 2.5$ -->
    <g style="fill: #d81b60" transform="translate(185.2 34.16) scale(0.14 -0.14)">
     <use xlink:href="#CMMI12-b" transform="scale(0.996264)"/>
     <use xlink:href="#CMR17-3d" transform="translate(90.355032 0) scale(0.996264)"/>
     <use xlink:href="#CMR17-32" transform="translate(189.743829 0) scale(0.996264)"/>
     <use xlink:href="#CMMI12-3a" transform="translate(235.434306 0) scale(0.996264)"/>
     <use xlink:href="#CMR17-35" transform="translate(262.531483 0) scale(0.996264)"/>
    </g>
   </g>
   <g id="text_16">
    <!-- Interpolation-Generalization trade-off -->
    <g transform="translate(58.357153 19.92) scale(0.168 -0.168)">
     <defs>
      <path id="CMSS17-49" d="M 1094 4416 
L 557 4416 
L 557 0 
L 1094 0 
L 1094 4416 
z
" transform="scale(0.015625)"/>
      <path id="CMSS17-70" d="M 966 333 
C 1178 129 1466 -5 1773 -5 
C 2368 -5 2880 603 2880 1412 
C 2880 2159 2496 2816 1946 2816 
C 1626 2816 1242 2702 954 2472 
L 954 2765 
L 480 2765 
L 480 -1216 
L 966 -1216 
L 966 333 
z
M 966 2100 
C 1018 2176 1235 2415 1587 2415 
C 2035 2415 2394 1960 2394 1412 
C 2394 787 1958 384 1530 384 
C 1402 384 1267 415 1139 523 
C 966 674 966 768 966 857 
L 966 2100 
z
" transform="scale(0.015625)"/>
      <path id="CMSS17-6c" d="M 947 4416 
L 474 4416 
L 474 0 
L 947 0 
L 947 4416 
z
" transform="scale(0.015625)"/>
      <path id="CMSS17-2d" d="M 1664 1216 
L 1664 1585 
L 64 1585 
L 64 1216 
L 1664 1216 
z
" transform="scale(0.015625)"/>
      <path id="CMSS17-47" d="M 3610 1856 
L 2336 1856 
L 2336 1461 
L 3123 1461 
L 3123 471 
C 2874 401 2618 350 2362 350 
C 1466 350 934 1301 934 2200 
C 934 3095 1491 4032 2362 4032 
C 2854 4032 3130 3881 3469 3627 
L 3552 4134 
C 3130 4351 2867 4440 2387 4440 
C 1146 4440 397 3324 397 2182 
C 397 1090 1152 -64 2349 -64 
C 2797 -64 3213 51 3610 248 
L 3610 1856 
z
" transform="scale(0.015625)"/>
      <path id="CMSS17-7a" d="M 2400 2502 
L 2400 2750 
L 250 2750 
L 250 2368 
L 1069 2368 
C 1146 2368 1222 2368 1299 2368 
L 1747 2368 
L 166 261 
L 166 0 
L 2419 0 
L 2419 395 
L 1549 395 
C 1472 395 1395 395 1318 395 
L 826 395 
L 2400 2502 
z
" transform="scale(0.015625)"/>
      <path id="CMSS17-64" d="M 2611 4416 
L 2138 4416 
L 2138 2438 
C 1939 2603 1613 2756 1254 2756 
C 672 2756 211 2131 211 1347 
C 211 562 666 -64 1235 -64 
C 1677 -64 1971 172 2125 306 
L 2125 -13 
L 2611 -13 
L 2611 4416 
z
M 2125 836 
C 2125 747 2125 653 1926 482 
C 1798 375 1645 325 1498 325 
C 1152 325 698 576 698 1340 
C 698 2134 1210 2368 1562 2368 
C 1798 2368 1990 2254 2125 2065 
L 2125 836 
z
" transform="scale(0.015625)"/>
      <path id="CMSS17-b" d="M 1075 2368 
L 1734 2368 
L 1734 2737 
L 1062 2737 
L 1062 3559 
C 1062 4001 1395 4092 1613 4092 
C 1837 4092 2022 4034 2093 4009 
L 2093 4429 
C 2022 4442 1830 4480 1619 4480 
C 1030 4480 602 3999 602 3359 
L 602 2737 
L 160 2737 
L 160 2368 
L 602 2368 
L 602 0 
L 1075 0 
L 1075 2368 
z
M 2739 2368 
L 3398 2368 
L 3398 2737 
L 2726 2737 
L 2726 3559 
C 2726 4001 3059 4092 3277 4092 
C 3501 4092 3686 4034 3757 4009 
L 3757 4429 
C 3686 4442 3494 4480 3283 4480 
C 2694 4480 2266 4001 2266 3363 
L 2266 0 
L 2739 0 
L 2739 2368 
z
" transform="scale(0.015625)"/>
     </defs>
     <use xlink:href="#CMSS17-49" transform="scale(0.996264)"/>
     <use xlink:href="#CMSS17-6e" transform="translate(25.783926 0) scale(0.996264)"/>
     <use xlink:href="#CMSS17-74" transform="translate(73.988869 0) scale(0.996264)"/>
     <use xlink:href="#CMSS17-65" transform="translate(107.820435 0) scale(0.996264)"/>
     <use xlink:href="#CMSS17-72" transform="translate(149.459257 0) scale(0.996264)"/>
     <use xlink:href="#CMSS17-70" transform="translate(181.36903 0) scale(0.996264)"/>
     <use xlink:href="#CMSS17-6f" transform="translate(232.176412 0) scale(0.996264)"/>
     <use xlink:href="#CMSS17-6c" transform="translate(279.020035 0) scale(0.996264)"/>
     <use xlink:href="#CMSS17-61" transform="translate(301.200758 0) scale(0.996264)"/>
     <use xlink:href="#CMSS17-74" transform="translate(346.122679 0) scale(0.996264)"/>
     <use xlink:href="#CMSS17-69" transform="translate(379.954246 0) scale(0.996264)"/>
     <use xlink:href="#CMSS17-6f" transform="translate(402.134969 0) scale(0.996264)"/>
     <use xlink:href="#CMSS17-6e" transform="translate(448.978592 0) scale(0.996264)"/>
     <use xlink:href="#CMSS17-2d" transform="translate(497.183535 0) scale(0.996264)"/>
     <use xlink:href="#CMSS17-47" transform="translate(528.412648 0) scale(0.996264)"/>
     <use xlink:href="#CMSS17-65" transform="translate(590.870874 0) scale(0.996264)"/>
     <use xlink:href="#CMSS17-6e" transform="translate(632.509696 0) scale(0.996264)"/>
     <use xlink:href="#CMSS17-65" transform="translate(680.714639 0) scale(0.996264)"/>
     <use xlink:href="#CMSS17-72" transform="translate(722.353461 0) scale(0.996264)"/>
     <use xlink:href="#CMSS17-61" transform="translate(754.263233 0) scale(0.996264)"/>
     <use xlink:href="#CMSS17-6c" transform="translate(799.185154 0) scale(0.996264)"/>
     <use xlink:href="#CMSS17-69" transform="translate(821.365877 0) scale(0.996264)"/>
     <use xlink:href="#CMSS17-7a" transform="translate(843.5466 0) scale(0.996264)"/>
     <use xlink:href="#CMSS17-61" transform="translate(884.224472 0) scale(0.996264)"/>
     <use xlink:href="#CMSS17-74" transform="translate(929.146393 0) scale(0.996264)"/>
     <use xlink:href="#CMSS17-69" transform="translate(962.977959 0) scale(0.996264)"/>
     <use xlink:href="#CMSS17-6f" transform="translate(985.158682 0) scale(0.996264)"/>
     <use xlink:href="#CMSS17-6e" transform="translate(1032.002306 0) scale(0.996264)"/>
     <use xlink:href="#CMSS17-74" transform="translate(1111.436362 0) scale(0.996264)"/>
     <use xlink:href="#CMSS17-72" transform="translate(1145.267928 0) scale(0.996264)"/>
     <use xlink:href="#CMSS17-61" transform="translate(1177.177701 0) scale(0.996264)"/>
     <use xlink:href="#CMSS17-64" transform="translate(1222.099622 0) scale(0.996264)"/>
     <use xlink:href="#CMSS17-65" transform="translate(1270.304565 0) scale(0.996264)"/>
     <use xlink:href="#CMSS17-2d" transform="translate(1311.943387 0) scale(0.996264)"/>
     <use xlink:href="#CMSS17-6f" transform="translate(1343.172499 0) scale(0.996264)"/>
     <use xlink:href="#CMSS17-b" transform="translate(1390.016123 0) scale(0.996264)"/>
    </g>
   </g>
   <g id="legend_1">
    <g id="patch_11">
     <path d="M 150.845936 95.656085 
L 314.2 95.656085 
Q 317 95.656085 317 92.856085 
L 317 35.72 
Q 317 32.92 314.2 32.92 
L 150.845936 32.92 
Q 148.045936 32.92 148.045936 35.72 
L 148.045936 92.856085 
Q 148.045936 95.656085 150.845936 95.656085 
z
" style="fill: #ffffff; opacity: 0.8; stroke: #cccccc; stroke-linejoin: miter"/>
    </g>
    <g id="patch_12">
     <path d="M 153.645936 48.32 
L 181.645936 48.32 
L 181.645936 38.52 
L 153.645936 38.52 
z
" style="fill: #1e88e5; fill-opacity: 0.25; stroke: #1e88e5; stroke-opacity: 0.25; stroke-linejoin: miter"/>
    </g>
    <g id="text_17">
     <!-- experiment 20-80 qtl -->
     <g transform="translate(192.845936 48.32) scale(0.14 -0.14)">
      <defs>
       <path id="CMSS17-78" d="M 1587 1414 
L 2656 2739 
L 2099 2739 
L 1363 1777 
L 602 2739 
L 32 2739 
L 1139 1414 
L 0 0 
L 563 0 
L 1363 1121 
L 2195 0 
L 2758 0 
L 1587 1414 
z
" transform="scale(0.015625)"/>
       <path id="CMSS17-6d" d="M 4288 1877 
C 4288 2308 4179 2816 3462 2816 
C 2982 2816 2694 2516 2566 2331 
C 2451 2670 2182 2816 1798 2816 
C 1363 2816 1088 2568 941 2389 
L 941 2758 
L 474 2758 
L 474 0 
L 960 0 
L 960 1559 
C 960 1939 1101 2428 1555 2428 
C 2138 2428 2138 2016 2138 1829 
L 2138 0 
L 2624 0 
L 2624 1559 
C 2624 1939 2765 2428 3219 2428 
C 3802 2428 3802 2016 3802 1829 
L 3802 0 
L 4288 0 
L 4288 1877 
z
" transform="scale(0.015625)"/>
       <path id="CMSS17-32" d="M 1651 1357 
C 1830 1541 2099 1764 2285 1987 
C 2464 2204 2701 2511 2701 2957 
C 2701 3657 2227 4288 1421 4288 
C 787 4288 422 3893 250 3274 
L 499 2929 
C 640 3510 838 3880 1338 3880 
C 1888 3880 2195 3433 2195 2942 
C 2195 2355 1747 1901 1408 1563 
C 1030 1187 659 804 301 408 
L 301 0 
L 2701 0 
L 2701 433 
L 1613 433 
C 1536 433 1459 433 1382 433 
L 742 433 
L 742 439 
L 1651 1357 
z
" transform="scale(0.015625)"/>
       <path id="CMSS17-30" d="M 2758 2044 
C 2758 2405 2752 3077 2490 3596 
C 2227 4096 1805 4229 1504 4229 
C 1069 4229 698 3975 506 3570 
C 301 3146 243 2709 243 2044 
C 243 1589 262 1031 493 543 
C 755 5 1197 -128 1498 -128 
C 1894 -128 2278 81 2496 518 
C 2720 974 2758 1474 2758 2044 
z
M 1498 261 
C 1011 261 864 811 819 995 
C 742 1310 730 1614 730 2114 
C 730 2506 730 2948 851 3297 
C 998 3701 1254 3840 1498 3840 
C 1971 3840 2125 3372 2176 3208 
C 2272 2873 2272 2481 2272 2114 
C 2272 1526 2272 261 1498 261 
z
" transform="scale(0.015625)"/>
       <path id="CMSS17-38" d="M 1933 2222 
C 2419 2380 2669 2760 2669 3134 
C 2669 3722 2157 4229 1504 4229 
C 826 4229 333 3708 333 3144 
C 333 2780 576 2403 1069 2241 
C 442 1997 250 1512 250 1149 
C 250 446 819 -128 1498 -128 
C 2202 -128 2752 455 2752 1138 
C 2752 1557 2502 2000 1933 2222 
z
M 1504 2432 
C 1075 2432 787 2712 787 3136 
C 787 3566 1075 3840 1504 3840 
C 1901 3840 2214 3591 2214 3136 
C 2214 2687 1907 2432 1504 2432 
z
M 1504 267 
C 1139 267 749 517 749 1156 
C 749 1813 1184 2043 1498 2043 
C 1843 2043 2253 1800 2253 1156 
C 2253 491 1830 267 1504 267 
z
" transform="scale(0.015625)"/>
       <path id="CMSS17-71" d="M 2611 2816 
L 2138 2816 
L 2138 2428 
C 2112 2460 1818 2816 1318 2816 
C 736 2816 211 2228 211 1399 
C 211 633 653 -5 1229 -5 
C 1498 -5 1837 91 2125 365 
L 2125 -1216 
L 2611 -1216 
L 2611 2816 
z
M 2138 914 
C 2138 832 2138 718 1939 554 
C 1888 510 1747 384 1504 384 
C 1050 384 698 850 698 1399 
C 698 2011 1126 2415 1562 2415 
C 1926 2415 2138 2061 2138 1797 
L 2138 914 
z
" transform="scale(0.015625)"/>
      </defs>
      <use xlink:href="#CMSS17-65" transform="scale(0.996264)"/>
      <use xlink:href="#CMSS17-78" transform="translate(41.638822 0) scale(0.996264)"/>
      <use xlink:href="#CMSS17-70" transform="translate(84.638964 0) scale(0.996264)"/>
      <use xlink:href="#CMSS17-65" transform="translate(135.446346 0) scale(0.996264)"/>
      <use xlink:href="#CMSS17-72" transform="translate(177.085168 0) scale(0.996264)"/>
      <use xlink:href="#CMSS17-69" transform="translate(208.99494 0) scale(0.996264)"/>
      <use xlink:href="#CMSS17-6d" transform="translate(231.175663 0) scale(0.996264)"/>
      <use xlink:href="#CMSS17-65" transform="translate(305.404918 0) scale(0.996264)"/>
      <use xlink:href="#CMSS17-6e" transform="translate(347.04374 0) scale(0.996264)"/>
      <use xlink:href="#CMSS17-74" transform="translate(395.248683 0) scale(0.996264)"/>
      <use xlink:href="#CMSS17-32" transform="translate(460.309362 0) scale(0.996264)"/>
      <use xlink:href="#CMSS17-30" transform="translate(507.152986 0) scale(0.996264)"/>
      <use xlink:href="#CMSS17-2d" transform="translate(553.996609 0) scale(0.996264)"/>
      <use xlink:href="#CMSS17-38" transform="translate(585.225722 0) scale(0.996264)"/>
      <use xlink:href="#CMSS17-30" transform="translate(632.069346 0) scale(0.996264)"/>
      <use xlink:href="#CMSS17-71" transform="translate(710.142082 0) scale(0.996264)"/>
      <use xlink:href="#CMSS17-74" transform="translate(758.347025 0) scale(0.996264)"/>
      <use xlink:href="#CMSS17-6c" transform="translate(792.178592 0) scale(0.996264)"/>
     </g>
    </g>
    <g id="PathCollection_3">
     <g>
      <use xlink:href="#md30a0c4ba5" x="167.645936" y="64.157028" style="fill: #a5d5ff; stroke: #a5d5ff"/>
     </g>
    </g>
    <g id="text_18">
     <!-- experiment instance -->
     <g transform="translate(192.845936 67.832028) scale(0.14 -0.14)">
      <defs>
       <path id="CMSS17-63" d="M 2464 2541 
C 2464 2585 2170 2714 2093 2739 
C 1882 2816 1613 2816 1542 2816 
C 710 2816 211 2093 211 1363 
C 211 595 768 -64 1517 -64 
C 1946 -64 2253 76 2502 242 
L 2464 664 
C 2189 453 1869 337 1523 337 
C 1024 337 698 774 698 1369 
C 698 1831 909 2414 1549 2414 
C 1901 2414 2099 2343 2394 2145 
L 2464 2541 
z
" transform="scale(0.015625)"/>
      </defs>
      <use xlink:href="#CMSS17-65" transform="scale(0.996264)"/>
      <use xlink:href="#CMSS17-78" transform="translate(41.638822 0) scale(0.996264)"/>
      <use xlink:href="#CMSS17-70" transform="translate(84.638964 0) scale(0.996264)"/>
      <use xlink:href="#CMSS17-65" transform="translate(135.446346 0) scale(0.996264)"/>
      <use xlink:href="#CMSS17-72" transform="translate(177.085168 0) scale(0.996264)"/>
      <use xlink:href="#CMSS17-69" transform="translate(208.99494 0) scale(0.996264)"/>
      <use xlink:href="#CMSS17-6d" transform="translate(231.175663 0) scale(0.996264)"/>
      <use xlink:href="#CMSS17-65" transform="translate(305.404918 0) scale(0.996264)"/>
      <use xlink:href="#CMSS17-6e" transform="translate(347.04374 0) scale(0.996264)"/>
      <use xlink:href="#CMSS17-74" transform="translate(395.248683 0) scale(0.996264)"/>
      <use xlink:href="#CMSS17-69" transform="translate(460.309362 0) scale(0.996264)"/>
      <use xlink:href="#CMSS17-6e" transform="translate(482.490085 0) scale(0.996264)"/>
      <use xlink:href="#CMSS17-73" transform="translate(530.695029 0) scale(0.996264)"/>
      <use xlink:href="#CMSS17-74" transform="translate(566.608571 0) scale(0.996264)"/>
      <use xlink:href="#CMSS17-61" transform="translate(600.440137 0) scale(0.996264)"/>
      <use xlink:href="#CMSS17-6e" transform="translate(645.362058 0) scale(0.996264)"/>
      <use xlink:href="#CMSS17-63" transform="translate(693.567001 0) scale(0.996264)"/>
      <use xlink:href="#CMSS17-65" transform="translate(735.205823 0) scale(0.996264)"/>
     </g>
    </g>
    <g id="line2d_13">
     <path d="M 153.645936 82.444057 
L 167.645936 82.444057 
L 181.645936 82.444057 
" style="fill: none; stroke-dasharray: 1.5,2.475; stroke-dashoffset: 0; stroke: #000000; stroke-width: 1.5"/>
    </g>
    <g id="text_19">
     <!-- noise floor -->
     <g transform="translate(192.845936 87.344057) scale(0.14 -0.14)">
      <defs>
       <path id="CMSS17-d" d="M 1075 2368 
L 1773 2368 
L 1773 2737 
L 1062 2737 
L 1062 3578 
C 1062 3919 1216 4092 1421 4092 
C 1594 4092 1754 4021 1773 4009 
L 1773 4429 
C 1722 4442 1574 4480 1421 4480 
C 941 4480 602 3993 602 3372 
L 602 2737 
L 160 2737 
L 160 2368 
L 602 2368 
L 602 0 
L 1075 0 
L 1075 2368 
z
M 2733 4429 
L 2259 4429 
L 2259 0 
L 2733 0 
L 2733 4429 
z
" transform="scale(0.015625)"/>
      </defs>
      <use xlink:href="#CMSS17-6e" transform="scale(0.996264)"/>
      <use xlink:href="#CMSS17-6f" transform="translate(48.204943 0) scale(0.996264)"/>
      <use xlink:href="#CMSS17-69" transform="translate(95.048567 0) scale(0.996264)"/>
      <use xlink:href="#CMSS17-73" transform="translate(117.22929 0) scale(0.996264)"/>
      <use xlink:href="#CMSS17-65" transform="translate(153.142832 0) scale(0.996264)"/>
      <use xlink:href="#CMSS17-d" transform="translate(226.010767 0) scale(0.996264)"/>
      <use xlink:href="#CMSS17-6f" transform="translate(276.137504 0) scale(0.996264)"/>
      <use xlink:href="#CMSS17-6f" transform="translate(325.583566 0) scale(0.996264)"/>
      <use xlink:href="#CMSS17-72" transform="translate(369.824736 0) scale(0.996264)"/>
     </g>
    </g>
   </g>
  </g>
 </g>
 <defs>
  <clipPath id="p9e96d329a3">
   <rect x="45" y="25.92" width="279" height="166.32"/>
  </clipPath>
 </defs>
</svg>
